<svg width="307" height="265" viewBox="0 0 307 265" fill="none" xmlns="http://www.w3.org/2000/svg">
<path d="M12.6882 8.19641H9.88849C9.83736 7.83419 9.73295 7.51246 9.57528 7.23121C9.41761 6.9457 9.2152 6.7028 8.96804 6.50252C8.72088 6.30223 8.43537 6.14883 8.11151 6.04229C7.7919 5.93576 7.4446 5.88249 7.0696 5.88249C6.39205 5.88249 5.80185 6.05081 5.29901 6.38746C4.79617 6.71985 4.40625 7.20564 4.12926 7.84485C3.85227 8.47979 3.71378 9.2511 3.71378 10.1588C3.71378 11.092 3.85227 11.8761 4.12926 12.511C4.41051 13.146 4.80256 13.6254 5.3054 13.9493C5.80824 14.2731 6.38992 14.435 7.05043 14.435C7.42117 14.435 7.7642 14.386 8.07955 14.288C8.39915 14.19 8.68253 14.0473 8.92969 13.8598C9.17685 13.668 9.38139 13.4358 9.54332 13.163C9.70952 12.8903 9.82457 12.5792 9.88849 12.2298L12.6882 12.2426C12.6158 12.8434 12.4347 13.423 12.1449 13.9812C11.8594 14.5352 11.4737 15.0316 10.9879 15.4706C10.5064 15.9052 9.93111 16.2504 9.26207 16.5061C8.5973 16.7575 7.84517 16.8832 7.00568 16.8832C5.83807 16.8832 4.79403 16.619 3.87358 16.0906C2.95739 15.5622 2.23295 14.7973 1.70028 13.7958C1.17188 12.7944 0.90767 11.5821 0.90767 10.1588C0.90767 8.73121 1.17614 7.51672 1.71307 6.5153C2.25 5.51388 2.97869 4.7511 3.89915 4.22695C4.8196 3.69854 5.85511 3.43434 7.00568 3.43434C7.7642 3.43434 8.46733 3.54087 9.11506 3.75394C9.76705 3.96701 10.3445 4.27809 10.8473 4.68718C11.3501 5.09201 11.7592 5.58846 12.0746 6.17652C12.3942 6.76459 12.5987 7.43789 12.6882 8.19641ZM17.4215 16.8896C16.7951 16.8896 16.2369 16.7809 15.7468 16.5636C15.2567 16.342 14.869 16.016 14.5835 15.5856C14.3022 15.151 14.1616 14.6098 14.1616 13.962C14.1616 13.4166 14.2617 12.9585 14.462 12.5877C14.6623 12.217 14.935 11.9187 15.2802 11.6929C15.6254 11.467 16.0174 11.2966 16.4563 11.1815C16.8995 11.0664 17.364 10.9855 17.8498 10.9386C18.4208 10.8789 18.881 10.8235 19.2305 10.7724C19.5799 10.717 19.8335 10.636 19.9911 10.5295C20.1488 10.423 20.2276 10.2653 20.2276 10.0565V10.0181C20.2276 9.61331 20.0998 9.3001 19.8441 9.07851C19.5927 8.85692 19.2347 8.74613 18.7702 8.74613C18.2802 8.74613 17.8903 8.85479 17.6005 9.07212C17.3107 9.28519 17.119 9.55366 17.0252 9.87752L14.5067 9.67297C14.6346 9.07638 14.886 8.56076 15.261 8.1261C15.636 7.68718 16.1197 7.35053 16.712 7.11615C17.3086 6.87752 17.9989 6.7582 18.783 6.7582C19.3285 6.7582 19.8505 6.82212 20.3491 6.94996C20.8519 7.0778 21.2972 7.27596 21.685 7.54442C22.0771 7.81289 22.386 8.15806 22.6119 8.57993C22.8377 8.99755 22.9506 9.49826 22.9506 10.0821V16.7042H20.3683V15.3427H20.2915C20.1339 15.6495 19.9229 15.9201 19.6587 16.1545C19.3945 16.3846 19.0771 16.5657 18.7063 16.6978C18.3356 16.8257 17.9073 16.8896 17.4215 16.8896ZM18.2013 15.0103C18.6019 15.0103 18.9556 14.9315 19.2624 14.7738C19.5692 14.6119 19.81 14.3946 19.9847 14.1218C20.1594 13.8491 20.2468 13.5402 20.2468 13.195V12.1531C20.1616 12.2085 20.0444 12.2596 19.8952 12.3065C19.7504 12.3491 19.5863 12.3896 19.4031 12.4279C19.2198 12.462 19.0366 12.494 18.8533 12.5238C18.6701 12.5494 18.5039 12.5728 18.3548 12.5941C18.0352 12.641 17.756 12.7156 17.5174 12.8179C17.2788 12.9201 17.0934 13.0586 16.9613 13.2333C16.8292 13.4038 16.7631 13.6169 16.7631 13.8725C16.7631 14.2433 16.8974 14.5267 17.1658 14.7227C17.4386 14.9145 17.7837 15.0103 18.2013 15.0103ZM27.7862 3.61331V16.7042H25.0632V3.61331H27.7862ZM34.4419 16.896C33.432 16.896 32.5627 16.6914 31.834 16.2823C31.1096 15.869 30.5513 15.2852 30.1593 14.5309C29.7672 13.7724 29.5712 12.8754 29.5712 11.8399C29.5712 10.8299 29.7672 9.94357 30.1593 9.18079C30.5513 8.418 31.1032 7.82354 31.8148 7.3974C32.5307 6.97127 33.3702 6.7582 34.3333 6.7582C34.981 6.7582 35.584 6.8626 36.1422 7.07141C36.7047 7.27596 37.1948 7.58491 37.6124 7.99826C38.0343 8.41161 38.3624 8.9315 38.5968 9.55792C38.8311 10.1801 38.9483 10.9088 38.9483 11.744V12.4919H30.6578V10.8044H36.3851C36.3851 10.4123 36.2999 10.065 36.1294 9.76246C35.959 9.45991 35.7225 9.2234 35.4199 9.05295C35.1216 8.87823 34.7743 8.79087 34.378 8.79087C33.9647 8.79087 33.5982 8.88675 33.2786 9.07851C32.9632 9.26601 32.7161 9.51956 32.5371 9.83917C32.3581 10.1545 32.2665 10.5061 32.2623 10.8939V12.4983C32.2623 12.9841 32.3517 13.4038 32.5307 13.7575C32.714 14.1112 32.9718 14.3839 33.3042 14.5757C33.6365 14.7674 34.0307 14.8633 34.4867 14.8633C34.7892 14.8633 35.0662 14.8207 35.3176 14.7355C35.5691 14.6502 35.7843 14.5224 35.9632 14.352C36.1422 14.1815 36.2786 13.9727 36.3723 13.7255L38.8908 13.8917C38.763 14.4968 38.5009 15.0252 38.1046 15.477C37.7125 15.9244 37.2054 16.2738 36.5833 16.5252C35.9654 16.7724 35.2516 16.896 34.4419 16.896ZM43.4483 11.0281V16.7042H40.7253V6.88604H43.3205V8.61829H43.4355C43.6529 8.04726 44.0172 7.59556 44.5286 7.26317C45.04 6.92652 45.66 6.7582 46.3887 6.7582C47.0705 6.7582 47.665 6.90735 48.1721 7.20564C48.6792 7.50394 49.0733 7.93008 49.3546 8.48405C49.6358 9.03377 49.7765 9.69002 49.7765 10.4528V16.7042H47.0534V10.9386C47.0577 10.3377 46.9043 9.869 46.5932 9.53235C46.2821 9.19144 45.8539 9.02098 45.3084 9.02098C44.9419 9.02098 44.6181 9.09982 44.3368 9.25749C44.0598 9.41516 43.8425 9.64527 43.6848 9.94783C43.5314 10.2461 43.4526 10.6062 43.4483 11.0281ZM55.5405 16.864C54.7947 16.864 54.1193 16.6723 53.5142 16.2887C52.9134 15.901 52.4361 15.3321 52.0824 14.5821C51.733 13.8278 51.5582 12.9031 51.5582 11.8079C51.5582 10.6829 51.7393 9.74755 52.1016 9.00181C52.4638 8.25181 52.9453 7.69144 53.5462 7.3207C54.1513 6.9457 54.8139 6.7582 55.5341 6.7582C56.0838 6.7582 56.5419 6.85195 56.9084 7.03945C57.2791 7.22269 57.5774 7.4528 57.8033 7.72979C58.0334 8.00252 58.2081 8.27098 58.3274 8.53519H58.4105V3.61331H61.1271V16.7042H58.4425V15.1318H58.3274C58.1996 15.4045 58.0185 15.6751 57.7841 15.9436C57.554 16.2078 57.2536 16.4272 56.8828 16.602C56.5163 16.7767 56.0689 16.864 55.5405 16.864ZM56.4034 14.6971C56.8423 14.6971 57.2131 14.5778 57.5156 14.3392C57.8224 14.0963 58.0568 13.7575 58.2188 13.3228C58.3849 12.8882 58.468 12.3789 58.468 11.7951C58.468 11.2113 58.3871 10.7042 58.2251 10.2738C58.0632 9.84343 57.8288 9.51104 57.522 9.27667C57.2152 9.04229 56.8423 8.9251 56.4034 8.9251C55.956 8.9251 55.5788 9.04655 55.272 9.28945C54.9652 9.53235 54.733 9.869 54.5753 10.2994C54.4176 10.7298 54.3388 11.2284 54.3388 11.7951C54.3388 12.3662 54.4176 12.8711 54.5753 13.31C54.7372 13.7447 54.9695 14.0856 55.272 14.3328C55.5788 14.5757 55.956 14.6971 56.4034 14.6971ZM66.1657 16.8896C65.5392 16.8896 64.981 16.7809 64.4909 16.5636C64.0009 16.342 63.6131 16.016 63.3276 15.5856C63.0463 15.151 62.9057 14.6098 62.9057 13.962C62.9057 13.4166 63.0059 12.9585 63.2061 12.5877C63.4064 12.217 63.6792 11.9187 64.0243 11.6929C64.3695 11.467 64.7615 11.2966 65.2005 11.1815C65.6436 11.0664 66.1081 10.9855 66.5939 10.9386C67.165 10.8789 67.6252 10.8235 67.9746 10.7724C68.324 10.717 68.5776 10.636 68.7353 10.5295C68.8929 10.423 68.9718 10.2653 68.9718 10.0565V10.0181C68.9718 9.61331 68.8439 9.3001 68.5882 9.07851C68.3368 8.85692 67.9789 8.74613 67.5144 8.74613C67.0243 8.74613 66.6344 8.85479 66.3446 9.07212C66.0549 9.28519 65.8631 9.55366 65.7694 9.87752L63.2509 9.67297C63.3787 9.07638 63.6301 8.56076 64.0051 8.1261C64.3801 7.68718 64.8638 7.35053 65.4561 7.11615C66.0527 6.87752 66.7431 6.7582 67.5272 6.7582C68.0726 6.7582 68.5946 6.82212 69.0932 6.94996C69.5961 7.0778 70.0414 7.27596 70.4292 7.54442C70.8212 7.81289 71.1301 8.15806 71.356 8.57993C71.5819 8.99755 71.6948 9.49826 71.6948 10.0821V16.7042H69.1124V15.3427H69.0357C68.878 15.6495 68.6671 15.9201 68.4029 16.1545C68.1387 16.3846 67.8212 16.5657 67.4505 16.6978C67.0797 16.8257 66.6515 16.8896 66.1657 16.8896ZM66.9455 15.0103C67.3461 15.0103 67.6998 14.9315 68.0066 14.7738C68.3134 14.6119 68.5542 14.3946 68.7289 14.1218C68.9036 13.8491 68.9909 13.5402 68.9909 13.195V12.1531C68.9057 12.2085 68.7885 12.2596 68.6394 12.3065C68.4945 12.3491 68.3304 12.3896 68.1472 12.4279C67.964 12.462 67.7807 12.494 67.5975 12.5238C67.4142 12.5494 67.248 12.5728 67.0989 12.5941C66.7793 12.641 66.5002 12.7156 66.2615 12.8179C66.0229 12.9201 65.8375 13.0586 65.7054 13.2333C65.5733 13.4038 65.5073 13.6169 65.5073 13.8725C65.5073 14.2433 65.6415 14.5267 65.91 14.7227C66.1827 14.9145 66.5279 15.0103 66.9455 15.0103ZM73.8074 16.7042V6.88604H76.4473V8.59911H76.5495C76.7285 7.98973 77.0289 7.52951 77.4508 7.21843C77.8727 6.90309 78.3585 6.74542 78.9082 6.74542C79.0446 6.74542 79.1916 6.75394 79.3493 6.77098C79.5069 6.78803 79.6454 6.81147 79.7647 6.8413V9.25749C79.6369 9.21914 79.4601 9.18505 79.2342 9.15522C79.0083 9.12539 78.8017 9.11047 78.6142 9.11047C78.2136 9.11047 77.8556 9.19783 77.5403 9.37255C77.2292 9.543 76.9821 9.78164 76.7988 10.0885C76.6199 10.3953 76.5304 10.749 76.5304 11.1495V16.7042H73.8074Z" fill="#1B2559"/>
<rect y="34.7042" width="306.883" height="230.104" rx="13.1488" fill="#F7F7F7"/>
<path d="M26.4766 49.8303C26.4346 49.4755 26.2642 49.2 25.9653 49.0038C25.6665 48.8077 25.3 48.7097 24.8657 48.7097C24.5482 48.7097 24.2704 48.761 24.0322 48.8638C23.7964 48.9665 23.612 49.1077 23.4789 49.2875C23.3482 49.4673 23.2828 49.6716 23.2828 49.9004C23.2828 50.0918 23.3283 50.2564 23.4194 50.3941C23.5128 50.5295 23.6318 50.6428 23.7766 50.7338C23.9213 50.8225 24.0731 50.8961 24.2319 50.9545C24.3906 51.0105 24.5365 51.056 24.6696 51.091L25.398 51.2871C25.5848 51.3362 25.7926 51.4039 26.0214 51.4903C26.2525 51.5766 26.4731 51.6945 26.6832 51.844C26.8957 51.991 27.0708 52.1801 27.2085 52.4113C27.3463 52.6424 27.4152 52.9261 27.4152 53.2623C27.4152 53.6498 27.3136 54 27.1105 54.3129C26.9097 54.6257 26.6155 54.8743 26.228 55.0588C25.8428 55.2432 25.3747 55.3354 24.8237 55.3354C24.3101 55.3354 23.8653 55.2526 23.4894 55.0868C23.1159 54.921 22.8217 54.6899 22.6069 54.3934C22.3945 54.0969 22.2742 53.7525 22.2462 53.3603H23.1427C23.1661 53.6311 23.2571 53.8553 23.4159 54.0327C23.577 54.2078 23.7801 54.3385 24.0252 54.4249C24.2727 54.509 24.5389 54.551 24.8237 54.551C25.1552 54.551 25.4529 54.4973 25.7167 54.3899C25.9805 54.2802 26.1895 54.1284 26.3436 53.9346C26.4976 53.7385 26.5747 53.5097 26.5747 53.2483C26.5747 53.0101 26.5081 52.8163 26.3751 52.6669C26.242 52.5175 26.0669 52.3961 25.8498 52.3027C25.6326 52.2093 25.398 52.1276 25.1459 52.0576L24.2634 51.8054C23.7031 51.6443 23.2595 51.4144 22.9326 51.1155C22.6058 50.8167 22.4423 50.4257 22.4423 49.9424C22.4423 49.5408 22.5509 49.1906 22.768 48.8918C22.9875 48.5906 23.2816 48.3571 23.6505 48.1914C24.0217 48.0233 24.4361 47.9392 24.8937 47.9392C25.356 47.9392 25.7669 48.0221 26.1264 48.1879C26.486 48.3513 26.7708 48.5754 26.9809 48.8603C27.1934 49.1451 27.3054 49.4684 27.3171 49.8303H26.4766Z" fill="#6C7072"/>
<path d="M64.0456 48.0373H65.0822L67.5196 53.9907H67.6036L70.041 48.0373H71.0776V55.2094H70.2651V49.7603H70.1951L67.9538 55.2094H67.1694L64.9281 49.7603H64.8581V55.2094H64.0456V48.0373Z" fill="#6C7072"/>
<path d="M107.61 48.8077V48.0373H112.989V48.8077H110.734V55.2094H109.865V48.8077H107.61Z" fill="#6C7072"/>
<path d="M150.522 55.2094L148.561 48.0373H149.443L150.942 53.8786H151.012L152.539 48.0373H153.519L155.046 53.8786H155.116L156.615 48.0373H157.498L155.537 55.2094H154.64L153.057 49.4941H153.001L151.418 55.2094H150.522Z" fill="#6C7072"/>
<path d="M193.077 48.8077V48.0373H198.456V48.8077H196.201V55.2094H195.332V48.8077H193.077Z" fill="#6C7072"/>
<path d="M236.473 55.2094V48.0373H240.773V48.8077H237.341V51.2311H240.451V52.0015H237.341V55.2094H236.473Z" fill="#6C7072"/>
<path d="M282.878 49.8303C282.836 49.4755 282.665 49.2 282.367 49.0038C282.068 48.8077 281.701 48.7097 281.267 48.7097C280.949 48.7097 280.672 48.761 280.433 48.8638C280.198 48.9665 280.013 49.1077 279.88 49.2875C279.749 49.4673 279.684 49.6716 279.684 49.9004C279.684 50.0918 279.73 50.2564 279.821 50.3941C279.914 50.5295 280.033 50.6428 280.178 50.7338C280.323 50.8225 280.474 50.8961 280.633 50.9545C280.792 51.0105 280.938 51.056 281.071 51.091L281.799 51.2871C281.986 51.3362 282.194 51.4039 282.423 51.4903C282.654 51.5766 282.874 51.6945 283.084 51.844C283.297 51.991 283.472 52.1801 283.61 52.4113C283.748 52.6424 283.816 52.9261 283.816 53.2623C283.816 53.6498 283.715 54 283.512 54.3129C283.311 54.6257 283.017 54.8743 282.629 55.0588C282.244 55.2432 281.776 55.3354 281.225 55.3354C280.711 55.3354 280.267 55.2526 279.891 55.0868C279.517 54.921 279.223 54.6899 279.008 54.3934C278.796 54.0969 278.675 53.7525 278.647 53.3603H279.544C279.567 53.6311 279.658 53.8553 279.817 54.0327C279.978 54.2078 280.181 54.3385 280.426 54.4249C280.674 54.509 280.94 54.551 281.225 54.551C281.556 54.551 281.854 54.4973 282.118 54.3899C282.382 54.2802 282.591 54.1284 282.745 53.9346C282.899 53.7385 282.976 53.5097 282.976 53.2483C282.976 53.0101 282.909 52.8163 282.776 52.6669C282.643 52.5175 282.468 52.3961 282.251 52.3027C282.034 52.2093 281.799 52.1276 281.547 52.0576L280.665 51.8054C280.104 51.6443 279.661 51.4144 279.334 51.1155C279.007 50.8167 278.844 50.4257 278.844 49.9424C278.844 49.5408 278.952 49.1906 279.169 48.8918C279.389 48.5906 279.683 48.3571 280.052 48.1914C280.423 48.0233 280.837 47.9392 281.295 47.9392C281.757 47.9392 282.168 48.0221 282.528 48.1879C282.887 48.3513 283.172 48.5754 283.382 48.8603C283.595 49.1451 283.707 49.4684 283.718 49.8303H282.878Z" fill="#6C7072"/>
<rect x="8.80518" y="74.1505" width="32.872" height="32.872" rx="16.436" fill="white"/>
<rect x="51.5387" y="74.1505" width="32.872" height="32.872" rx="16.436" fill="white"/>
<rect x="94.2722" y="74.1505" width="32.872" height="32.872" rx="16.436" fill="white"/>
<rect x="137.006" y="74.1505" width="32.872" height="32.872" rx="16.436" fill="white"/>
<rect x="179.739" y="74.1505" width="32.872" height="32.872" rx="16.436" fill="white"/>
<path d="M196.873 85.0305V93.3979H195.86V86.0928H195.811L193.768 87.4492V86.4197L195.86 85.0305H196.873Z" fill="black"/>
<rect x="222.473" y="74.1505" width="32.872" height="32.872" rx="16.436" fill="white"/>
<path d="M235.856 93.3979V92.6625L238.618 89.6392C238.942 89.2851 239.209 88.9773 239.419 88.7158C239.628 88.4516 239.784 88.2037 239.884 87.9722C239.988 87.738 240.04 87.4928 240.04 87.2368C240.04 86.9426 239.969 86.688 239.827 86.4728C239.688 86.2576 239.498 86.0914 239.255 85.9743C239.013 85.8572 238.74 85.7986 238.438 85.7986C238.117 85.7986 237.836 85.8654 237.596 85.9988C237.36 86.1296 237.176 86.3134 237.045 86.5504C236.917 86.7874 236.853 87.0652 236.853 87.3839H235.889C235.889 86.8936 236.002 86.4632 236.228 86.0928C236.454 85.7224 236.762 85.4337 237.151 85.2267C237.543 85.0196 237.983 84.9161 238.471 84.9161C238.961 84.9161 239.396 85.0196 239.774 85.2267C240.153 85.4337 240.45 85.7128 240.665 86.0642C240.88 86.4156 240.988 86.8064 240.988 87.2368C240.988 87.5446 240.932 87.8456 240.82 88.1397C240.711 88.4312 240.52 88.7567 240.248 89.1162C239.978 89.473 239.604 89.9088 239.125 90.4236L237.245 92.4337V92.4991H241.135V93.3979H235.856Z" fill="black"/>
<rect x="265.206" y="74.1505" width="32.872" height="32.872" rx="16.436" fill="white"/>
<path d="M281.237 93.5123C280.698 93.5123 280.217 93.4197 279.795 93.2345C279.375 93.0493 279.042 92.7919 278.794 92.4623C278.549 92.13 278.415 91.7446 278.393 91.3061H279.423C279.445 91.5757 279.537 91.8086 279.701 92.0047C279.864 92.1981 280.078 92.3479 280.342 92.4542C280.606 92.5604 280.899 92.6135 281.221 92.6135C281.58 92.6135 281.899 92.5509 282.177 92.4256C282.455 92.3003 282.672 92.126 282.83 91.9026C282.988 91.6793 283.067 91.4205 283.067 91.1263C283.067 90.8185 282.991 90.5475 282.839 90.3133C282.686 90.0763 282.463 89.8911 282.169 89.7576C281.874 89.6242 281.515 89.5574 281.09 89.5574H280.42V88.6586H281.09C281.422 88.6586 281.714 88.5987 281.964 88.4788C282.218 88.359 282.415 88.1901 282.557 87.9722C282.701 87.7543 282.773 87.4983 282.773 87.2041C282.773 86.9208 282.711 86.6743 282.585 86.4646C282.46 86.2549 282.283 86.0914 282.054 85.9743C281.828 85.8572 281.561 85.7986 281.253 85.7986C280.965 85.7986 280.692 85.8518 280.436 85.958C280.183 86.0615 279.976 86.2127 279.815 86.4115C279.655 86.6076 279.567 86.8446 279.554 87.1224H278.573C278.59 86.6839 278.722 86.2998 278.969 85.9702C279.217 85.6379 279.541 85.3792 279.942 85.194C280.345 85.0088 280.788 84.9161 281.27 84.9161C281.787 84.9161 282.231 85.021 282.602 85.2307C282.972 85.4377 283.257 85.7115 283.456 86.052C283.654 86.3924 283.754 86.7601 283.754 87.1551C283.754 87.6263 283.63 88.028 283.382 88.3603C283.137 88.6926 282.803 88.9228 282.381 89.0508V89.1162C282.909 89.2034 283.322 89.4281 283.619 89.7903C283.916 90.1499 284.064 90.5952 284.064 91.1263C284.064 91.5812 283.94 91.9898 283.692 92.352C283.447 92.7116 283.112 92.9948 282.687 93.2018C282.263 93.4088 281.779 93.5123 281.237 93.5123Z" fill="black"/>
<rect x="8.80518" y="113.597" width="32.872" height="32.872" rx="16.436" fill="white"/>
<path d="M21.7843 131.128V130.295L25.4614 124.477H26.0661V125.768H25.6575L22.8792 130.164V130.229H27.8311V131.128H21.7843ZM25.7229 132.844V130.875V130.487V124.477H26.6871V132.844H25.7229Z" fill="black"/>
<rect x="51.5387" y="113.597" width="32.872" height="32.872" rx="16.436" fill="white"/>
<path d="M67.5197 132.959C67.0404 132.959 66.6086 132.863 66.2246 132.673C65.8405 132.482 65.5328 132.221 65.3012 131.888C65.0697 131.556 64.9431 131.177 64.9213 130.752H65.9018C65.94 131.131 66.1116 131.444 66.4166 131.692C66.7244 131.937 67.0921 132.06 67.5197 132.06C67.8629 132.06 68.168 131.979 68.4349 131.819C68.7046 131.658 68.9157 131.437 69.0682 131.157C69.2235 130.874 69.3011 130.554 69.3011 130.197C69.3011 129.832 69.2207 129.506 69.06 129.22C68.9021 128.932 68.6842 128.704 68.4063 128.538C68.1285 128.372 67.8112 128.287 67.4544 128.285C67.1983 128.282 66.9355 128.321 66.6658 128.403C66.3962 128.482 66.1742 128.584 65.9999 128.71L65.052 128.595L65.5586 124.477H69.9058V125.376H66.4084L66.1143 127.843H66.1633C66.3349 127.707 66.5501 127.594 66.8088 127.504C67.0676 127.414 67.3373 127.37 67.6178 127.37C68.1299 127.37 68.5861 127.492 68.9865 127.737C69.3896 127.98 69.7056 128.312 69.9344 128.734C70.1659 129.156 70.2816 129.638 70.2816 130.18C70.2816 130.714 70.1618 131.191 69.9221 131.61C69.6851 132.027 69.3583 132.357 68.9416 132.599C68.5248 132.839 68.0509 132.959 67.5197 132.959Z" fill="black"/>
<rect x="94.2722" y="113.597" width="32.872" height="32.872" rx="16.436" fill="white"/>
<path d="M110.327 132.959C109.984 132.953 109.64 132.888 109.297 132.763C108.954 132.637 108.641 132.426 108.358 132.129C108.074 131.83 107.847 131.425 107.675 130.916C107.504 130.404 107.418 129.761 107.418 128.987C107.418 128.247 107.487 127.59 107.626 127.018C107.765 126.443 107.967 125.96 108.231 125.568C108.495 125.173 108.814 124.873 109.187 124.669C109.563 124.465 109.986 124.362 110.458 124.362C110.926 124.362 111.343 124.456 111.708 124.644C112.075 124.83 112.375 125.088 112.607 125.421C112.838 125.753 112.988 126.136 113.056 126.569H112.059C111.967 126.193 111.787 125.881 111.52 125.633C111.253 125.385 110.899 125.261 110.458 125.261C109.809 125.261 109.299 125.543 108.925 126.107C108.555 126.671 108.368 127.462 108.366 128.481H108.431C108.584 128.249 108.765 128.052 108.974 127.888C109.187 127.722 109.421 127.594 109.677 127.504C109.933 127.414 110.204 127.37 110.49 127.37C110.97 127.37 111.408 127.489 111.806 127.729C112.203 127.966 112.522 128.294 112.762 128.714C113.002 129.13 113.121 129.608 113.121 130.148C113.121 130.665 113.006 131.139 112.774 131.57C112.543 131.997 112.217 132.338 111.798 132.591C111.381 132.842 110.891 132.964 110.327 132.959ZM110.327 132.06C110.67 132.06 110.978 131.974 111.25 131.802C111.525 131.631 111.742 131.401 111.9 131.112C112.06 130.823 112.141 130.502 112.141 130.148C112.141 129.802 112.063 129.487 111.908 129.204C111.755 128.918 111.544 128.691 111.275 128.522C111.008 128.353 110.703 128.268 110.359 128.268C110.101 128.268 109.86 128.32 109.636 128.424C109.413 128.524 109.217 128.663 109.048 128.84C108.882 129.017 108.751 129.22 108.656 129.449C108.56 129.675 108.513 129.914 108.513 130.164C108.513 130.496 108.59 130.807 108.746 131.096C108.904 131.384 109.119 131.617 109.391 131.794C109.666 131.971 109.978 132.06 110.327 132.06Z" fill="black"/>
<rect x="137.006" y="113.597" width="32.872" height="32.872" rx="16.436" fill="white"/>
<path d="M150.847 132.844L154.59 125.441V125.376H150.275V124.477H155.635V125.425L151.909 132.844H150.847Z" fill="black"/>
<rect x="179.739" y="113.597" width="32.872" height="32.872" rx="16.436" fill="white"/>
<path d="M195.741 132.959C195.18 132.959 194.684 132.859 194.254 132.66C193.826 132.459 193.492 132.182 193.253 131.831C193.013 131.477 192.895 131.074 192.897 130.622C192.895 130.268 192.964 129.941 193.106 129.641C193.247 129.339 193.441 129.087 193.686 128.885C193.934 128.681 194.21 128.552 194.515 128.497V128.448C194.115 128.345 193.796 128.12 193.559 127.774C193.322 127.425 193.205 127.029 193.208 126.585C193.205 126.16 193.313 125.78 193.531 125.445C193.748 125.11 194.048 124.846 194.429 124.653C194.813 124.459 195.251 124.362 195.741 124.362C196.226 124.362 196.659 124.459 197.04 124.653C197.421 124.846 197.721 125.11 197.939 125.445C198.16 125.78 198.271 126.16 198.274 126.585C198.271 127.029 198.15 127.425 197.91 127.774C197.673 128.12 197.359 128.345 196.967 128.448V128.497C197.269 128.552 197.541 128.681 197.784 128.885C198.026 129.087 198.219 129.339 198.364 129.641C198.508 129.941 198.582 130.268 198.584 130.622C198.582 131.074 198.459 131.477 198.217 131.831C197.977 132.182 197.643 132.459 197.216 132.66C196.791 132.859 196.299 132.959 195.741 132.959ZM195.741 132.06C196.119 132.06 196.446 131.999 196.721 131.876C196.997 131.753 197.209 131.58 197.359 131.357C197.509 131.134 197.585 130.872 197.588 130.573C197.585 130.257 197.503 129.978 197.342 129.735C197.182 129.493 196.962 129.302 196.685 129.163C196.41 129.024 196.095 128.955 195.741 128.955C195.384 128.955 195.065 129.024 194.785 129.163C194.507 129.302 194.288 129.493 194.127 129.735C193.969 129.978 193.891 130.257 193.894 130.573C193.891 130.872 193.964 131.134 194.111 131.357C194.26 131.58 194.474 131.753 194.752 131.876C195.03 131.999 195.36 132.06 195.741 132.06ZM195.741 128.089C196.04 128.089 196.306 128.029 196.538 127.909C196.772 127.789 196.956 127.621 197.089 127.406C197.223 127.191 197.291 126.939 197.293 126.65C197.291 126.367 197.224 126.121 197.093 125.911C196.962 125.698 196.781 125.535 196.55 125.421C196.318 125.304 196.049 125.245 195.741 125.245C195.428 125.245 195.154 125.304 194.92 125.421C194.685 125.535 194.504 125.698 194.376 125.911C194.248 126.121 194.186 126.367 194.188 126.65C194.186 126.939 194.25 127.191 194.38 127.406C194.514 127.621 194.698 127.789 194.932 127.909C195.166 128.029 195.436 128.089 195.741 128.089Z" fill="black"/>
<rect x="222.473" y="113.597" width="32.872" height="32.872" rx="16.436" fill="#FF0404"/>
<path d="M238.413 124.362C238.756 124.365 239.099 124.431 239.443 124.559C239.786 124.687 240.099 124.899 240.382 125.196C240.666 125.49 240.893 125.892 241.065 126.401C241.236 126.911 241.322 127.549 241.322 128.317C241.322 129.061 241.251 129.721 241.11 130.299C240.971 130.874 240.769 131.358 240.505 131.753C240.243 132.148 239.925 132.448 239.549 132.652C239.176 132.857 238.754 132.959 238.282 132.959C237.814 132.959 237.396 132.866 237.028 132.681C236.663 132.493 236.363 132.233 236.129 131.9C235.898 131.565 235.749 131.177 235.684 130.736H236.681C236.771 131.12 236.949 131.437 237.216 131.688C237.486 131.936 237.841 132.06 238.282 132.06C238.928 132.06 239.437 131.778 239.81 131.214C240.186 130.65 240.374 129.854 240.374 128.824H240.309C240.156 129.053 239.975 129.25 239.765 129.416C239.556 129.583 239.323 129.711 239.067 129.8C238.811 129.89 238.538 129.935 238.25 129.935C237.77 129.935 237.33 129.817 236.93 129.58C236.532 129.34 236.214 129.012 235.974 128.595C235.737 128.176 235.619 127.696 235.619 127.157C235.619 126.645 235.733 126.177 235.962 125.752C236.193 125.324 236.517 124.983 236.934 124.73C237.354 124.477 237.847 124.354 238.413 124.362ZM238.413 125.261C238.07 125.261 237.761 125.347 237.486 125.519C237.213 125.688 236.997 125.916 236.836 126.205C236.678 126.491 236.599 126.808 236.599 127.157C236.599 127.506 236.675 127.823 236.828 128.109C236.983 128.392 237.194 128.618 237.461 128.787C237.731 128.953 238.037 129.036 238.38 129.036C238.639 129.036 238.88 128.986 239.104 128.885C239.327 128.782 239.522 128.642 239.688 128.464C239.857 128.285 239.989 128.082 240.084 127.856C240.179 127.627 240.227 127.389 240.227 127.141C240.227 126.814 240.148 126.507 239.99 126.221C239.835 125.935 239.62 125.704 239.345 125.527C239.072 125.35 238.762 125.261 238.413 125.261Z" fill="white"/>
<rect x="265.206" y="113.597" width="32.872" height="32.872" rx="16.436" fill="white"/>
<path d="M278.745 124.477V132.844H277.732V125.539H277.682L275.64 126.896V125.866L277.732 124.477H278.745ZM283.88 132.959C283.265 132.959 282.741 132.791 282.307 132.456C281.874 132.118 281.543 131.629 281.315 130.989C281.086 130.347 280.971 129.57 280.971 128.661C280.971 127.756 281.086 126.984 281.315 126.344C281.546 125.701 281.878 125.211 282.312 124.873C282.747 124.533 283.27 124.362 283.88 124.362C284.491 124.362 285.012 124.533 285.445 124.873C285.881 125.211 286.213 125.701 286.442 126.344C286.674 126.984 286.789 127.756 286.789 128.661C286.789 129.57 286.675 130.347 286.446 130.989C286.217 131.629 285.886 132.118 285.453 132.456C285.02 132.791 284.496 132.959 283.88 132.959ZM283.88 132.06C284.491 132.06 284.964 131.766 285.302 131.177C285.64 130.589 285.809 129.75 285.809 128.661C285.809 127.936 285.731 127.319 285.576 126.81C285.423 126.3 285.203 125.912 284.914 125.645C284.628 125.378 284.284 125.245 283.88 125.245C283.276 125.245 282.803 125.543 282.463 126.14C282.122 126.734 281.952 127.574 281.952 128.661C281.952 129.385 282.028 130.001 282.181 130.507C282.333 131.014 282.553 131.399 282.839 131.664C283.127 131.928 283.475 132.06 283.88 132.06Z" fill="black"/>
<rect x="8.80518" y="153.043" width="32.872" height="32.872" rx="16.436" fill="white"/>
<path d="M23.2648 163.923V172.291H22.2516V164.985H22.2026L20.1597 166.342V165.312L22.2516 163.923H23.2648ZM28.6129 163.923V172.291H27.5997V164.985H27.5507L25.5079 166.342V165.312L27.5997 163.923H28.6129Z" fill="black"/>
<rect x="51.5387" y="153.043" width="32.872" height="32.872" rx="16.436" fill="white"/>
<path d="M65.1894 163.923V172.291H64.1762V164.985H64.1271L62.0843 166.342V165.312L64.1762 163.923H65.1894ZM67.5958 172.291V171.555L70.3577 168.532C70.6819 168.178 70.9488 167.87 71.1585 167.608C71.3683 167.344 71.5235 167.096 71.6243 166.865C71.7278 166.631 71.7795 166.386 71.7795 166.129C71.7795 165.835 71.7087 165.581 71.5671 165.365C71.4282 165.15 71.2375 164.984 70.9951 164.867C70.7527 164.75 70.4803 164.691 70.178 164.691C69.8566 164.691 69.576 164.758 69.3363 164.892C69.0994 165.022 68.9155 165.206 68.7848 165.443C68.6567 165.68 68.5927 165.958 68.5927 166.277H67.6285C67.6285 165.786 67.7416 165.356 67.9676 164.985C68.1937 164.615 68.5015 164.326 68.891 164.119C69.2832 163.912 69.7231 163.809 70.2107 163.809C70.7009 163.809 71.1354 163.912 71.514 164.119C71.8926 164.326 72.1895 164.606 72.4046 164.957C72.6198 165.308 72.7274 165.699 72.7274 166.129C72.7274 166.437 72.6716 166.738 72.5599 167.032C72.451 167.324 72.2603 167.649 71.9879 168.009C71.7183 168.366 71.3437 168.801 70.8644 169.316L68.985 171.326V171.392H72.8745V172.291H67.5958Z" fill="black"/>
<rect x="94.2722" y="153.043" width="32.872" height="32.872" rx="16.436" fill="#FF0404"/>
<path d="M107.743 163.923V172.291H106.73V164.985H106.681L104.638 166.342V165.312L106.73 163.923H107.743ZM112.977 172.405C112.438 172.405 111.957 172.312 111.535 172.127C111.115 171.942 110.782 171.685 110.534 171.355C110.289 171.023 110.155 170.637 110.133 170.199H111.163C111.185 170.468 111.277 170.701 111.441 170.897C111.604 171.091 111.818 171.241 112.082 171.347C112.346 171.453 112.639 171.506 112.961 171.506C113.32 171.506 113.639 171.444 113.917 171.318C114.194 171.193 114.412 171.019 114.57 170.795C114.728 170.572 114.807 170.313 114.807 170.019C114.807 169.711 114.731 169.44 114.578 169.206C114.426 168.969 114.203 168.784 113.908 168.65C113.614 168.517 113.255 168.45 112.83 168.45H112.16V167.551H112.83C113.162 167.551 113.454 167.491 113.704 167.372C113.957 167.252 114.155 167.083 114.297 166.865C114.441 166.647 114.513 166.391 114.513 166.097C114.513 165.814 114.45 165.567 114.325 165.357C114.2 165.148 114.023 164.984 113.794 164.867C113.568 164.75 113.301 164.691 112.993 164.691C112.704 164.691 112.432 164.744 112.176 164.851C111.923 164.954 111.716 165.105 111.555 165.304C111.394 165.5 111.307 165.737 111.294 166.015H110.313C110.329 165.577 110.461 165.193 110.709 164.863C110.957 164.531 111.281 164.272 111.682 164.087C112.085 163.901 112.527 163.809 113.01 163.809C113.527 163.809 113.971 163.914 114.341 164.123C114.712 164.33 114.997 164.604 115.195 164.945C115.394 165.285 115.494 165.653 115.494 166.048C115.494 166.519 115.37 166.921 115.122 167.253C114.877 167.585 114.543 167.815 114.121 167.944V168.009C114.649 168.096 115.062 168.321 115.359 168.683C115.656 169.043 115.804 169.488 115.804 170.019C115.804 170.474 115.68 170.882 115.432 171.245C115.187 171.604 114.852 171.888 114.427 172.095C114.002 172.302 113.519 172.405 112.977 172.405Z" fill="white"/>
<rect x="137.006" y="153.043" width="32.872" height="32.872" rx="16.436" fill="white"/>
<path d="M150.449 163.923V172.291H149.435V164.985H149.386L147.344 166.342V165.312L149.435 163.923H150.449ZM152.659 170.575V169.741L156.336 163.923H156.941V165.214H156.532L153.754 169.61V169.676H158.706V170.575H152.659ZM156.598 172.291V170.321V169.933V163.923H157.562V172.291H156.598Z" fill="black"/>
<rect x="179.739" y="153.043" width="32.872" height="32.872" rx="16.436" fill="white"/>
<path d="M193.373 163.923V172.291H192.36V164.985H192.311L190.268 166.342V165.312L192.36 163.923H193.373ZM198.394 172.405C197.915 172.405 197.483 172.31 197.099 172.119C196.715 171.928 196.407 171.667 196.176 171.335C195.944 171.002 195.818 170.624 195.796 170.199H196.777C196.815 170.577 196.986 170.891 197.291 171.138C197.599 171.384 197.967 171.506 198.394 171.506C198.738 171.506 199.043 171.426 199.31 171.265C199.579 171.104 199.79 170.884 199.943 170.603C200.098 170.32 200.176 170 200.176 169.643C200.176 169.278 200.095 168.953 199.935 168.667C199.777 168.378 199.559 168.151 199.281 167.984C199.003 167.818 198.686 167.734 198.329 167.731C198.073 167.728 197.81 167.768 197.541 167.85C197.271 167.929 197.049 168.031 196.875 168.156L195.927 168.042L196.433 163.923H200.781V164.822H197.283L196.989 167.29H197.038C197.21 167.154 197.425 167.041 197.684 166.951C197.942 166.861 198.212 166.816 198.493 166.816C199.005 166.816 199.461 166.938 199.861 167.184C200.264 167.426 200.58 167.758 200.809 168.18C201.041 168.603 201.156 169.085 201.156 169.627C201.156 170.161 201.037 170.637 200.797 171.057C200.56 171.474 200.233 171.803 199.816 172.045C199.4 172.285 198.926 172.405 198.394 172.405Z" fill="black"/>
<rect x="222.473" y="153.043" width="32.872" height="32.872" rx="16.436" fill="white"/>
<path d="M236.017 163.923V172.291H235.004V164.985H234.955L232.912 166.342V165.312L235.004 163.923H236.017ZM241.202 172.405C240.858 172.4 240.515 172.334 240.172 172.209C239.829 172.084 239.516 171.873 239.232 171.576C238.949 171.276 238.722 170.872 238.55 170.362C238.378 169.85 238.293 169.207 238.293 168.434C238.293 167.693 238.362 167.036 238.501 166.464C238.64 165.89 238.841 165.406 239.106 165.014C239.37 164.619 239.688 164.32 240.062 164.115C240.438 163.911 240.861 163.809 241.332 163.809C241.801 163.809 242.218 163.903 242.582 164.091C242.95 164.276 243.25 164.535 243.481 164.867C243.713 165.199 243.863 165.582 243.931 166.015H242.934C242.841 165.639 242.661 165.327 242.395 165.079C242.128 164.832 241.774 164.708 241.332 164.708C240.684 164.708 240.173 164.99 239.8 165.553C239.43 166.117 239.243 166.908 239.24 167.927H239.306C239.458 167.696 239.639 167.498 239.849 167.335C240.062 167.169 240.296 167.041 240.552 166.951C240.808 166.861 241.079 166.816 241.365 166.816C241.844 166.816 242.283 166.936 242.681 167.175C243.078 167.412 243.397 167.741 243.637 168.16C243.876 168.577 243.996 169.055 243.996 169.594C243.996 170.112 243.88 170.586 243.649 171.016C243.417 171.444 243.092 171.784 242.672 172.037C242.256 172.288 241.765 172.41 241.202 172.405ZM241.202 171.506C241.545 171.506 241.853 171.42 242.125 171.249C242.4 171.077 242.617 170.847 242.775 170.558C242.935 170.27 243.016 169.948 243.016 169.594C243.016 169.248 242.938 168.934 242.783 168.65C242.63 168.364 242.419 168.137 242.149 167.968C241.882 167.799 241.577 167.715 241.234 167.715C240.975 167.715 240.734 167.766 240.511 167.87C240.288 167.971 240.092 168.11 239.923 168.287C239.757 168.464 239.626 168.667 239.531 168.895C239.435 169.122 239.388 169.36 239.388 169.61C239.388 169.943 239.465 170.253 239.62 170.542C239.778 170.831 239.994 171.064 240.266 171.241C240.541 171.418 240.853 171.506 241.202 171.506Z" fill="black"/>
<rect x="265.206" y="153.043" width="32.872" height="32.872" rx="16.436" fill="white"/>
<path d="M279.054 163.923V172.291H278.04V164.985H277.991L275.949 166.342V165.312L278.04 163.923H279.054ZM281.722 172.291L285.464 164.887V164.822H281.15V163.923H286.51V164.871L282.784 172.291H281.722Z" fill="black"/>
<rect x="8.80518" y="192.49" width="32.872" height="32.872" rx="16.436" fill="white"/>
<path d="M22.3941 203.37V211.737H21.3808V204.432H21.3318L19.289 205.788V204.759L21.3808 203.37H22.3941ZM27.4807 211.851C26.9196 211.851 26.4239 211.752 25.9935 211.553C25.5659 211.352 25.2322 211.075 24.9925 210.724C24.7529 210.37 24.6344 209.967 24.6371 209.514C24.6344 209.16 24.7038 208.833 24.8455 208.534C24.9871 208.232 25.1805 207.98 25.4256 207.778C25.6735 207.574 25.95 207.444 26.255 207.39V207.341C25.8546 207.237 25.5359 207.013 25.299 206.667C25.062 206.318 24.9449 205.922 24.9476 205.478C24.9449 205.053 25.0525 204.673 25.2704 204.338C25.4883 204.003 25.7879 203.739 26.1692 203.545C26.5533 203.352 26.9904 203.255 27.4807 203.255C27.9655 203.255 28.3986 203.352 28.7799 203.545C29.1613 203.739 29.4609 204.003 29.6788 204.338C29.8994 204.673 30.0111 205.053 30.0138 205.478C30.0111 205.922 29.8899 206.318 29.6502 206.667C29.4132 207.013 29.0986 207.237 28.7064 207.341V207.39C29.0087 207.444 29.2811 207.574 29.5235 207.778C29.7659 207.98 29.9593 208.232 30.1037 208.534C30.2481 208.833 30.3216 209.16 30.3243 209.514C30.3216 209.967 30.199 210.37 29.9566 210.724C29.7169 211.075 29.3833 211.352 28.9556 211.553C28.5307 211.752 28.0391 211.851 27.4807 211.851ZM27.4807 210.953C27.8593 210.953 28.1862 210.891 28.4613 210.769C28.7364 210.646 28.9488 210.473 29.0986 210.25C29.2484 210.026 29.3247 209.765 29.3274 209.465C29.3247 209.149 29.243 208.87 29.0823 208.628C28.9216 208.385 28.7023 208.195 28.4245 208.056C28.1494 207.917 27.8348 207.847 27.4807 207.847C27.1239 207.847 26.8052 207.917 26.5247 208.056C26.2468 208.195 26.0276 208.385 25.8669 208.628C25.7089 208.87 25.6313 209.149 25.634 209.465C25.6313 209.765 25.7035 210.026 25.8505 210.25C26.0003 210.473 26.2142 210.646 26.492 210.769C26.7698 210.891 27.0994 210.953 27.4807 210.953ZM27.4807 206.981C27.7803 206.981 28.0459 206.921 28.2774 206.802C28.5117 206.682 28.6955 206.514 28.829 206.299C28.9624 206.084 29.0305 205.832 29.0333 205.543C29.0305 205.26 28.9638 205.013 28.8331 204.804C28.7023 204.591 28.5212 204.428 28.2897 204.313C28.0581 204.196 27.7885 204.138 27.4807 204.138C27.1675 204.138 26.8937 204.196 26.6595 204.313C26.4252 204.428 26.2441 204.591 26.1161 204.804C25.9881 205.013 25.9254 205.26 25.9282 205.543C25.9254 205.832 25.9894 206.084 26.1202 206.299C26.2537 206.514 26.4375 206.682 26.6718 206.802C26.906 206.921 27.1756 206.981 27.4807 206.981Z" fill="black"/>
<rect x="51.5387" y="192.49" width="32.872" height="32.872" rx="16.436" fill="white"/>
<path d="M65.0827 203.37V211.737H64.0694V204.432H64.0204L61.9776 205.788V204.759L64.0694 203.37H65.0827ZM70.1529 203.255C70.4961 203.258 70.8393 203.323 71.1825 203.451C71.5257 203.579 71.839 203.792 72.1222 204.089C72.4055 204.383 72.6329 204.785 72.8045 205.294C72.9761 205.803 73.0619 206.442 73.0619 207.21C73.0619 207.954 72.9911 208.614 72.8495 209.192C72.7106 209.766 72.509 210.251 72.2448 210.646C71.9833 211.041 71.6646 211.341 71.2888 211.545C70.9156 211.749 70.4934 211.851 70.0222 211.851C69.5537 211.851 69.1356 211.759 68.7679 211.574C68.4029 211.386 68.1033 211.126 67.8691 210.793C67.6375 210.458 67.4891 210.07 67.4237 209.629H68.4206C68.5105 210.013 68.6889 210.33 68.9559 210.581C69.2255 210.829 69.581 210.953 70.0222 210.953C70.6677 210.953 71.1771 210.671 71.5502 210.107C71.9261 209.543 72.1141 208.746 72.1141 207.717H72.0487C71.8962 207.946 71.715 208.143 71.5053 208.309C71.2956 208.475 71.0627 208.603 70.8066 208.693C70.5506 208.783 70.2782 208.828 69.9895 208.828C69.5101 208.828 69.0702 208.71 68.6699 208.473C68.2722 208.233 67.9535 207.905 67.7138 207.488C67.4768 207.068 67.3584 206.589 67.3584 206.05C67.3584 205.538 67.4728 205.069 67.7016 204.644C67.9331 204.217 68.2572 203.876 68.6739 203.623C69.0934 203.37 69.5864 203.247 70.1529 203.255ZM70.1529 204.154C69.8098 204.154 69.5006 204.24 69.2255 204.411C68.9531 204.58 68.7366 204.809 68.5759 205.098C68.4179 205.384 68.3389 205.701 68.3389 206.05C68.3389 206.398 68.4152 206.716 68.5677 207.002C68.723 207.285 68.9341 207.511 69.201 207.68C69.4706 207.846 69.7771 207.929 70.1203 207.929C70.379 207.929 70.6201 207.879 70.8434 207.778C71.0668 207.675 71.2615 207.534 71.4277 207.357C71.5965 207.177 71.7286 206.974 71.824 206.748C71.9193 206.52 71.967 206.281 71.967 206.033C71.967 205.707 71.888 205.4 71.73 205.114C71.5748 204.828 71.3596 204.597 71.0845 204.42C70.8121 204.243 70.5016 204.154 70.1529 204.154Z" fill="black"/>
<rect x="94.2722" y="192.49" width="32.872" height="32.872" rx="16.436" fill="white"/>
<path d="M104.06 211.737V211.002L106.822 207.978C107.146 207.624 107.413 207.316 107.623 207.055C107.832 206.791 107.988 206.543 108.088 206.311C108.192 206.077 108.244 205.832 108.244 205.576C108.244 205.282 108.173 205.027 108.031 204.812C107.892 204.597 107.702 204.43 107.459 204.313C107.217 204.196 106.944 204.138 106.642 204.138C106.321 204.138 106.04 204.204 105.8 204.338C105.563 204.469 105.38 204.652 105.249 204.889C105.121 205.126 105.057 205.404 105.057 205.723H104.093C104.093 205.233 104.206 204.802 104.432 204.432C104.658 204.061 104.966 203.773 105.355 203.566C105.747 203.359 106.187 203.255 106.675 203.255C107.165 203.255 107.599 203.359 107.978 203.566C108.357 203.773 108.654 204.052 108.869 204.403C109.084 204.755 109.192 205.145 109.192 205.576C109.192 205.884 109.136 206.185 109.024 206.479C108.915 206.77 108.724 207.096 108.452 207.455C108.182 207.812 107.808 208.248 107.328 208.763L105.449 210.773V210.838H109.339V211.737H104.06ZM113.755 211.851C113.14 211.851 112.615 211.684 112.182 211.349C111.749 211.011 111.418 210.522 111.189 209.882C110.961 209.239 110.846 208.463 110.846 207.553C110.846 206.649 110.961 205.877 111.189 205.237C111.421 204.594 111.753 204.104 112.186 203.766C112.622 203.425 113.145 203.255 113.755 203.255C114.365 203.255 114.887 203.425 115.32 203.766C115.756 204.104 116.088 204.594 116.317 205.237C116.548 205.877 116.664 206.649 116.664 207.553C116.664 208.463 116.55 209.239 116.321 209.882C116.092 210.522 115.761 211.011 115.328 211.349C114.895 211.684 114.371 211.851 113.755 211.851ZM113.755 210.953C114.365 210.953 114.839 210.658 115.177 210.07C115.515 209.482 115.684 208.643 115.684 207.553C115.684 206.829 115.606 206.212 115.451 205.702C115.298 205.193 115.078 204.805 114.789 204.538C114.503 204.271 114.158 204.138 113.755 204.138C113.151 204.138 112.678 204.436 112.337 205.032C111.997 205.626 111.827 206.467 111.827 207.553C111.827 208.278 111.903 208.893 112.056 209.4C112.208 209.907 112.427 210.292 112.713 210.556C113.002 210.82 113.349 210.953 113.755 210.953Z" fill="black"/>
<rect x="137.006" y="192.49" width="32.872" height="32.872" rx="16.436" fill="white"/>
<path d="M147.715 211.737V211.002L150.477 207.978C150.801 207.624 151.068 207.316 151.278 207.055C151.487 206.791 151.643 206.543 151.743 206.311C151.847 206.077 151.899 205.832 151.899 205.576C151.899 205.282 151.828 205.027 151.686 204.812C151.547 204.597 151.357 204.43 151.114 204.313C150.872 204.196 150.599 204.138 150.297 204.138C149.976 204.138 149.695 204.204 149.455 204.338C149.218 204.469 149.035 204.652 148.904 204.889C148.776 205.126 148.712 205.404 148.712 205.723H147.748C147.748 205.233 147.861 204.802 148.087 204.432C148.313 204.061 148.621 203.773 149.01 203.566C149.402 203.359 149.842 203.255 150.33 203.255C150.82 203.255 151.254 203.359 151.633 203.566C152.012 203.773 152.309 204.052 152.524 204.403C152.739 204.755 152.846 205.145 152.846 205.576C152.846 205.884 152.791 206.185 152.679 206.479C152.57 206.77 152.379 207.096 152.107 207.455C151.837 207.812 151.463 208.248 150.983 208.763L149.104 210.773V210.838H152.994V211.737H147.715ZM157.623 203.37V211.737H156.609V204.432H156.56L154.517 205.788V204.759L156.609 203.37H157.623Z" fill="black"/>
<rect x="179.739" y="192.49" width="32.872" height="32.872" rx="16.436" fill="#4D29EF"/>
<path d="M189.639 211.737V211.002L192.401 207.978C192.725 207.624 192.992 207.316 193.202 207.055C193.412 206.791 193.567 206.543 193.668 206.311C193.771 206.077 193.823 205.832 193.823 205.576C193.823 205.282 193.752 205.027 193.611 204.812C193.472 204.597 193.281 204.43 193.039 204.313C192.796 204.196 192.524 204.138 192.222 204.138C191.9 204.138 191.62 204.204 191.38 204.338C191.143 204.469 190.959 204.652 190.828 204.889C190.7 205.126 190.636 205.404 190.636 205.723H189.672C189.672 205.233 189.785 204.802 190.011 204.432C190.237 204.061 190.545 203.773 190.935 203.566C191.327 203.359 191.767 203.255 192.254 203.255C192.745 203.255 193.179 203.359 193.558 203.566C193.936 203.773 194.233 204.052 194.448 204.403C194.663 204.755 194.771 205.145 194.771 205.576C194.771 205.884 194.715 206.185 194.604 206.479C194.495 206.77 194.304 207.096 194.032 207.455C193.762 207.812 193.387 208.248 192.908 208.763L191.029 210.773V210.838H194.918V211.737H189.639ZM196.605 211.737V211.002L199.367 207.978C199.692 207.624 199.958 207.316 200.168 207.055C200.378 206.791 200.533 206.543 200.634 206.311C200.737 206.077 200.789 205.832 200.789 205.576C200.789 205.282 200.718 205.027 200.577 204.812C200.438 204.597 200.247 204.43 200.005 204.313C199.762 204.196 199.49 204.138 199.188 204.138C198.866 204.138 198.586 204.204 198.346 204.338C198.109 204.469 197.925 204.652 197.794 204.889C197.666 205.126 197.602 205.404 197.602 205.723H196.638C196.638 205.233 196.751 204.802 196.977 204.432C197.203 204.061 197.511 203.773 197.901 203.566C198.293 203.359 198.733 203.255 199.22 203.255C199.711 203.255 200.145 203.359 200.524 203.566C200.902 203.773 201.199 204.052 201.414 204.403C201.629 204.755 201.737 205.145 201.737 205.576C201.737 205.884 201.681 206.185 201.57 206.479C201.461 206.77 201.27 207.096 200.998 207.455C200.728 207.812 200.353 208.248 199.874 208.763L197.995 210.773V210.838H201.884V211.737H196.605Z" fill="white"/>
<rect x="222.473" y="192.49" width="32.872" height="32.872" rx="16.436" fill="white"/>
<path d="M232.193 211.737V211.002L234.955 207.978C235.279 207.624 235.546 207.316 235.756 207.055C235.966 206.791 236.121 206.543 236.222 206.311C236.325 206.077 236.377 205.832 236.377 205.576C236.377 205.282 236.306 205.027 236.164 204.812C236.026 204.597 235.835 204.43 235.592 204.313C235.35 204.196 235.078 204.138 234.775 204.138C234.454 204.138 234.173 204.204 233.934 204.338C233.697 204.469 233.513 204.652 233.382 204.889C233.254 205.126 233.19 205.404 233.19 205.723H232.226C232.226 205.233 232.339 204.802 232.565 204.432C232.791 204.061 233.099 203.773 233.488 203.566C233.881 203.359 234.32 203.255 234.808 203.255C235.298 203.255 235.733 203.359 236.111 203.566C236.49 203.773 236.787 204.052 237.002 204.403C237.217 204.755 237.325 205.145 237.325 205.576C237.325 205.884 237.269 206.185 237.157 206.479C237.048 206.77 236.858 207.096 236.585 207.455C236.316 207.812 235.941 208.248 235.462 208.763L233.582 210.773V210.838H237.472V211.737H232.193ZM241.987 211.851C241.447 211.851 240.966 211.759 240.544 211.574C240.125 211.388 239.791 211.131 239.543 210.801C239.298 210.469 239.165 210.084 239.143 209.645H240.172C240.194 209.915 240.287 210.148 240.45 210.344C240.614 210.537 240.828 210.687 241.092 210.793C241.356 210.899 241.649 210.953 241.97 210.953C242.33 210.953 242.648 210.89 242.926 210.765C243.204 210.639 243.422 210.465 243.58 210.242C243.738 210.018 243.817 209.76 243.817 209.465C243.817 209.158 243.741 208.887 243.588 208.652C243.436 208.415 243.212 208.23 242.918 208.097C242.624 207.963 242.264 207.896 241.839 207.896H241.169V206.998H241.839C242.172 206.998 242.463 206.938 242.714 206.818C242.967 206.698 243.165 206.529 243.306 206.311C243.451 206.093 243.523 205.837 243.523 205.543C243.523 205.26 243.46 205.013 243.335 204.804C243.209 204.594 243.032 204.43 242.804 204.313C242.578 204.196 242.311 204.138 242.003 204.138C241.714 204.138 241.442 204.191 241.186 204.297C240.932 204.401 240.725 204.552 240.565 204.751C240.404 204.947 240.317 205.184 240.303 205.461H239.323C239.339 205.023 239.471 204.639 239.719 204.309C239.967 203.977 240.291 203.718 240.691 203.533C241.094 203.348 241.537 203.255 242.019 203.255C242.537 203.255 242.981 203.36 243.351 203.57C243.722 203.777 244.006 204.051 244.205 204.391C244.404 204.731 244.503 205.099 244.503 205.494C244.503 205.965 244.379 206.367 244.131 206.699C243.886 207.032 243.553 207.262 243.13 207.39V207.455C243.659 207.542 244.072 207.767 244.368 208.129C244.665 208.489 244.814 208.934 244.814 209.465C244.814 209.92 244.69 210.329 244.442 210.691C244.197 211.051 243.862 211.334 243.437 211.541C243.012 211.748 242.529 211.851 241.987 211.851Z" fill="black"/>
<rect x="265.206" y="192.49" width="32.872" height="32.872" rx="16.436" fill="white"/>
<path d="M274.989 211.737V211.002L277.75 207.978C278.075 207.624 278.341 207.316 278.551 207.055C278.761 206.791 278.916 206.543 279.017 206.311C279.12 206.077 279.172 205.832 279.172 205.576C279.172 205.282 279.101 205.027 278.96 204.812C278.821 204.597 278.63 204.43 278.388 204.313C278.145 204.196 277.873 204.138 277.571 204.138C277.249 204.138 276.969 204.204 276.729 204.338C276.492 204.469 276.308 204.652 276.177 204.889C276.049 205.126 275.985 205.404 275.985 205.723H275.021C275.021 205.233 275.134 204.802 275.36 204.432C275.586 204.061 275.894 203.773 276.284 203.566C276.676 203.359 277.116 203.255 277.603 203.255C278.094 203.255 278.528 203.359 278.907 203.566C279.285 203.773 279.582 204.052 279.797 204.403C280.013 204.755 280.12 205.145 280.12 205.576C280.12 205.884 280.064 206.185 279.953 206.479C279.844 206.77 279.653 207.096 279.381 207.455C279.111 207.812 278.736 208.248 278.257 208.763L276.378 210.773V210.838H280.267V211.737H274.989ZM281.579 210.021V209.188L285.256 203.37H285.86V204.661H285.452L282.674 209.057V209.122H287.625V210.021H281.579ZM285.517 211.737V209.768V209.38V203.37H286.481V211.737H285.517Z" fill="black"/>
<rect x="8.80518" y="229.294" width="32.872" height="32.872" rx="16.436" fill="white"/>
<path d="M18.6884 248.542V247.806L21.4503 244.783C21.7744 244.429 22.0414 244.121 22.2511 243.86C22.4608 243.595 22.6161 243.348 22.7168 243.116C22.8203 242.882 22.8721 242.637 22.8721 242.381C22.8721 242.087 22.8013 241.832 22.6596 241.617C22.5207 241.402 22.3301 241.235 22.0877 241.118C21.8452 241.001 21.5729 240.943 21.2705 240.943C20.9491 240.943 20.6686 241.009 20.4289 241.143C20.1919 241.273 20.0081 241.457 19.8773 241.694C19.7493 241.931 19.6853 242.209 19.6853 242.528H18.7211C18.7211 242.038 18.8341 241.607 19.0602 241.237C19.2863 240.866 19.594 240.578 19.9835 240.371C20.3758 240.164 20.8157 240.06 21.3032 240.06C21.7935 240.06 22.2279 240.164 22.6065 240.371C22.9851 240.578 23.282 240.857 23.4972 241.208C23.7124 241.559 23.82 241.95 23.82 242.381C23.82 242.688 23.7641 242.989 23.6525 243.284C23.5435 243.575 23.3528 243.901 23.0805 244.26C22.8108 244.617 22.4363 245.053 21.9569 245.568L20.0775 247.578V247.643H23.9671V248.542H18.6884ZM28.2692 248.656C27.7899 248.656 27.3581 248.561 26.9741 248.37C26.59 248.18 26.2823 247.918 26.0507 247.586C25.8192 247.254 25.6926 246.875 25.6708 246.45H26.6513C26.6895 246.829 26.8611 247.142 27.1661 247.39C27.4739 247.635 27.8416 247.757 28.2692 247.757C28.6124 247.757 28.9175 247.677 29.1844 247.516C29.4541 247.356 29.6652 247.135 29.8177 246.854C29.973 246.571 30.0506 246.251 30.0506 245.894C30.0506 245.529 29.9702 245.204 29.8095 244.918C29.6516 244.629 29.4336 244.402 29.1558 244.236C28.878 244.069 28.5607 243.985 28.2039 243.982C27.9478 243.98 27.685 244.019 27.4153 244.101C27.1457 244.18 26.9237 244.282 26.7494 244.407L25.8015 244.293L26.3081 240.174H30.6553V241.073H27.1579L26.8638 243.541H26.9128C27.0844 243.405 27.2996 243.292 27.5583 243.202C27.8171 243.112 28.0867 243.067 28.3673 243.067C28.8794 243.067 29.3356 243.19 29.736 243.435C30.1391 243.677 30.4551 244.01 30.6839 244.432C30.9154 244.854 31.0311 245.336 31.0311 245.878C31.0311 246.412 30.9113 246.889 30.6716 247.308C30.4346 247.725 30.1078 248.054 29.691 248.297C29.2743 248.536 28.8004 248.656 28.2692 248.656Z" fill="black"/>
<rect x="51.5387" y="229.294" width="32.872" height="32.872" rx="16.436" fill="white"/>
<path d="M61.332 248.542V247.806L64.0939 244.783C64.4181 244.429 64.685 244.121 64.8947 243.86C65.1044 243.595 65.2597 243.348 65.3605 243.116C65.464 242.882 65.5157 242.637 65.5157 242.381C65.5157 242.087 65.4449 241.832 65.3033 241.617C65.1644 241.402 64.9737 241.235 64.7313 241.118C64.4889 241.001 64.2165 240.943 63.9142 240.943C63.5928 240.943 63.3122 241.009 63.0725 241.143C62.8355 241.273 62.6517 241.457 62.521 241.694C62.3929 241.931 62.3289 242.209 62.3289 242.528H61.3647C61.3647 242.038 61.4778 241.607 61.7038 241.237C61.9299 240.866 62.2377 240.578 62.6272 240.371C63.0194 240.164 63.4593 240.06 63.9468 240.06C64.4371 240.06 64.8716 240.164 65.2502 240.371C65.6288 240.578 65.9257 240.857 66.1408 241.208C66.356 241.559 66.4636 241.95 66.4636 242.381C66.4636 242.688 66.4078 242.989 66.2961 243.284C66.1871 243.575 65.9965 243.901 65.7241 244.26C65.4544 244.617 65.0799 245.053 64.6005 245.568L62.7212 247.578V247.643H66.6107V248.542H61.332ZM71.0763 248.656C70.7331 248.651 70.3899 248.585 70.0467 248.46C69.7035 248.335 69.3903 248.124 69.107 247.827C68.8237 247.527 68.5963 247.123 68.4247 246.613C68.2531 246.101 68.1673 245.459 68.1673 244.685C68.1673 243.944 68.2368 243.288 68.3757 242.716C68.5146 242.141 68.7162 241.658 68.9804 241.265C69.2446 240.87 69.5633 240.571 69.9364 240.366C70.3123 240.162 70.7358 240.06 71.207 240.06C71.6755 240.06 72.0923 240.154 72.4573 240.342C72.825 240.527 73.1246 240.786 73.3561 241.118C73.5876 241.451 73.7374 241.833 73.8055 242.266H72.8086C72.716 241.89 72.5362 241.579 72.2693 241.331C72.0024 241.083 71.6483 240.959 71.207 240.959C70.5588 240.959 70.0481 241.241 69.6749 241.805C69.3045 242.368 69.1179 243.16 69.1152 244.178H69.1806C69.3331 243.947 69.5142 243.749 69.724 243.586C69.9364 243.42 70.1707 243.292 70.4267 243.202C70.6827 243.112 70.9537 243.067 71.2397 243.067C71.7191 243.067 72.1576 243.187 72.5553 243.427C72.953 243.664 73.2717 243.992 73.5113 244.411C73.751 244.828 73.8709 245.306 73.8709 245.845C73.8709 246.363 73.7551 246.837 73.5236 247.267C73.2921 247.695 72.9666 248.035 72.5471 248.289C72.1304 248.539 71.6401 248.662 71.0763 248.656ZM71.0763 247.757C71.4195 247.757 71.7273 247.672 71.9997 247.5C72.2748 247.328 72.4913 247.098 72.6493 246.81C72.81 246.521 72.8903 246.199 72.8903 245.845C72.8903 245.499 72.8127 245.185 72.6574 244.902C72.5049 244.616 72.2938 244.388 72.0242 244.219C71.7572 244.05 71.4522 243.966 71.109 243.966C70.8502 243.966 70.6092 244.018 70.3858 244.121C70.1625 244.222 69.9664 244.361 69.7975 244.538C69.6313 244.715 69.5006 244.918 69.4053 245.147C69.3099 245.373 69.2623 245.611 69.2623 245.862C69.2623 246.194 69.3399 246.504 69.4952 246.793C69.6531 247.082 69.8683 247.315 70.1407 247.492C70.4158 247.669 70.7277 247.757 71.0763 247.757Z" fill="black"/>
<rect x="94.2722" y="229.294" width="32.872" height="32.872" rx="16.436" fill="white"/>
<path d="M104.369 248.542V247.806L107.131 244.783C107.455 244.429 107.722 244.121 107.932 243.86C108.141 243.595 108.297 243.348 108.397 243.116C108.501 242.882 108.553 242.637 108.553 242.381C108.553 242.087 108.482 241.832 108.34 241.617C108.201 241.402 108.011 241.235 107.768 241.118C107.526 241.001 107.253 240.943 106.951 240.943C106.63 240.943 106.349 241.009 106.109 241.143C105.872 241.273 105.689 241.457 105.558 241.694C105.43 241.931 105.366 242.209 105.366 242.528H104.402C104.402 242.038 104.515 241.607 104.741 241.237C104.967 240.866 105.275 240.578 105.664 240.371C106.056 240.164 106.496 240.06 106.984 240.06C107.474 240.06 107.908 240.164 108.287 240.371C108.666 240.578 108.963 240.857 109.178 241.208C109.393 241.559 109.5 241.95 109.5 242.381C109.5 242.688 109.445 242.989 109.333 243.284C109.224 243.575 109.033 243.901 108.761 244.26C108.491 244.617 108.117 245.053 107.637 245.568L105.758 247.578V247.643H109.648V248.542H104.369ZM111.596 248.542L115.339 241.139V241.073H111.024V240.174H116.385V241.122L112.659 248.542H111.596Z" fill="black"/>
<rect x="137.006" y="229.294" width="32.872" height="32.872" rx="16.436" fill="white"/>
<path d="M146.844 248.542V247.806L149.606 244.783C149.93 244.429 150.197 244.121 150.407 243.86C150.617 243.595 150.772 243.348 150.873 243.116C150.976 242.882 151.028 242.637 151.028 242.381C151.028 242.087 150.957 241.832 150.815 241.617C150.676 241.402 150.486 241.235 150.243 241.118C150.001 241.001 149.729 240.943 149.426 240.943C149.105 240.943 148.824 241.009 148.585 241.143C148.348 241.273 148.164 241.457 148.033 241.694C147.905 241.931 147.841 242.209 147.841 242.528H146.877C146.877 242.038 146.99 241.607 147.216 241.237C147.442 240.866 147.75 240.578 148.139 240.371C148.532 240.164 148.971 240.06 149.459 240.06C149.949 240.06 150.384 240.164 150.762 240.371C151.141 240.578 151.438 240.857 151.653 241.208C151.868 241.559 151.976 241.95 151.976 242.381C151.976 242.688 151.92 242.989 151.808 243.284C151.699 243.575 151.509 243.901 151.236 244.26C150.967 244.617 150.592 245.053 150.113 245.568L148.233 247.578V247.643H152.123V248.542H146.844ZM156.49 248.656C155.929 248.656 155.434 248.557 155.003 248.358C154.576 248.156 154.242 247.88 154.002 247.529C153.762 247.175 153.644 246.771 153.647 246.319C153.644 245.965 153.713 245.638 153.855 245.339C153.997 245.036 154.19 244.784 154.435 244.583C154.683 244.379 154.96 244.249 155.265 244.195V244.146C154.864 244.042 154.546 243.817 154.309 243.472C154.072 243.123 153.955 242.727 153.957 242.283C153.955 241.858 154.062 241.478 154.28 241.143C154.498 240.808 154.798 240.544 155.179 240.35C155.563 240.157 156 240.06 156.49 240.06C156.975 240.06 157.408 240.157 157.79 240.35C158.171 240.544 158.471 240.808 158.688 241.143C158.909 241.478 159.021 241.858 159.023 242.283C159.021 242.727 158.9 243.123 158.66 243.472C158.423 243.817 158.108 244.042 157.716 244.146V244.195C158.018 244.249 158.291 244.379 158.533 244.583C158.776 244.784 158.969 245.036 159.113 245.339C159.258 245.638 159.331 245.965 159.334 246.319C159.331 246.771 159.209 247.175 158.966 247.529C158.727 247.88 158.393 248.156 157.965 248.358C157.54 248.557 157.049 248.656 156.49 248.656ZM156.49 247.757C156.869 247.757 157.196 247.696 157.471 247.574C157.746 247.451 157.958 247.278 158.108 247.055C158.258 246.831 158.334 246.57 158.337 246.27C158.334 245.954 158.253 245.675 158.092 245.433C157.931 245.19 157.712 245 157.434 244.861C157.159 244.722 156.844 244.652 156.49 244.652C156.134 244.652 155.815 244.722 155.534 244.861C155.256 245 155.037 245.19 154.877 245.433C154.719 245.675 154.641 245.954 154.644 246.27C154.641 246.57 154.713 246.831 154.86 247.055C155.01 247.278 155.224 247.451 155.502 247.574C155.779 247.696 156.109 247.757 156.49 247.757ZM156.49 243.786C156.79 243.786 157.056 243.726 157.287 243.606C157.521 243.487 157.705 243.319 157.839 243.104C157.972 242.889 158.04 242.637 158.043 242.348C158.04 242.065 157.973 241.818 157.843 241.609C157.712 241.396 157.531 241.233 157.299 241.118C157.068 241.001 156.798 240.943 156.49 240.943C156.177 240.943 155.903 241.001 155.669 241.118C155.435 241.233 155.254 241.396 155.126 241.609C154.998 241.818 154.935 242.065 154.938 242.348C154.935 242.637 154.999 242.889 155.13 243.104C155.263 243.319 155.447 243.487 155.681 243.606C155.916 243.726 156.185 243.786 156.49 243.786Z" fill="black"/>
<rect x="179.739" y="229.294" width="32.872" height="32.872" rx="16.436" fill="white"/>
<path d="M189.533 248.542V247.806L192.295 244.783C192.619 244.429 192.886 244.121 193.095 243.86C193.305 243.595 193.46 243.348 193.561 243.116C193.665 242.882 193.716 242.637 193.716 242.381C193.716 242.087 193.646 241.832 193.504 241.617C193.365 241.402 193.174 241.235 192.932 241.118C192.69 241.001 192.417 240.943 192.115 240.943C191.793 240.943 191.513 241.009 191.273 241.143C191.036 241.273 190.852 241.457 190.722 241.694C190.594 241.931 190.53 242.209 190.53 242.528H189.565C189.565 242.038 189.678 241.607 189.905 241.237C190.131 240.866 190.438 240.578 190.828 240.371C191.22 240.164 191.66 240.06 192.148 240.06C192.638 240.06 193.072 240.164 193.451 240.371C193.829 240.578 194.126 240.857 194.342 241.208C194.557 241.559 194.664 241.95 194.664 242.381C194.664 242.688 194.608 242.989 194.497 243.284C194.388 243.575 194.197 243.901 193.925 244.26C193.655 244.617 193.281 245.053 192.801 245.568L190.922 247.578V247.643H194.811V248.542H189.533ZM199.163 240.06C199.506 240.063 199.849 240.128 200.192 240.256C200.535 240.384 200.849 240.597 201.132 240.894C201.415 241.188 201.643 241.589 201.814 242.099C201.986 242.608 202.072 243.247 202.072 244.015C202.072 244.759 202.001 245.419 201.859 245.996C201.72 246.571 201.519 247.056 201.254 247.451C200.993 247.846 200.674 248.146 200.298 248.35C199.925 248.554 199.503 248.656 199.032 248.656C198.563 248.656 198.145 248.564 197.778 248.378C197.413 248.19 197.113 247.93 196.879 247.598C196.647 247.263 196.499 246.875 196.433 246.434H197.43C197.52 246.818 197.699 247.135 197.965 247.386C198.235 247.633 198.591 247.757 199.032 247.757C199.677 247.757 200.187 247.476 200.56 246.912C200.936 246.348 201.124 245.551 201.124 244.522H201.058C200.906 244.75 200.725 244.948 200.515 245.114C200.305 245.28 200.072 245.408 199.816 245.498C199.56 245.588 199.288 245.633 198.999 245.633C198.52 245.633 198.08 245.514 197.679 245.277C197.282 245.038 196.963 244.71 196.723 244.293C196.486 243.873 196.368 243.394 196.368 242.855C196.368 242.343 196.482 241.874 196.711 241.449C196.943 241.022 197.267 240.681 197.684 240.428C198.103 240.174 198.596 240.052 199.163 240.06ZM199.163 240.959C198.819 240.959 198.51 241.045 198.235 241.216C197.963 241.385 197.746 241.614 197.586 241.903C197.428 242.189 197.349 242.506 197.349 242.855C197.349 243.203 197.425 243.521 197.577 243.807C197.733 244.09 197.944 244.316 198.211 244.485C198.48 244.651 198.787 244.734 199.13 244.734C199.389 244.734 199.63 244.684 199.853 244.583C200.076 244.479 200.271 244.339 200.437 244.162C200.606 243.982 200.738 243.779 200.834 243.553C200.929 243.324 200.977 243.086 200.977 242.838C200.977 242.511 200.898 242.205 200.74 241.919C200.584 241.633 200.369 241.402 200.094 241.224C199.822 241.047 199.511 240.959 199.163 240.959Z" fill="black"/>
<rect x="222.473" y="229.294" width="32.872" height="32.872" rx="16.436" fill="white"/>
<path d="M234.908 248.656C234.369 248.656 233.888 248.564 233.466 248.378C233.046 248.193 232.713 247.936 232.465 247.606C232.22 247.274 232.086 246.889 232.065 246.45H233.094C233.116 246.72 233.208 246.953 233.372 247.149C233.535 247.342 233.749 247.492 234.013 247.598C234.278 247.704 234.57 247.757 234.892 247.757C235.251 247.757 235.57 247.695 235.848 247.569C236.126 247.444 236.344 247.27 236.502 247.047C236.659 246.823 236.738 246.564 236.738 246.27C236.738 245.962 236.662 245.691 236.51 245.457C236.357 245.22 236.134 245.035 235.84 244.902C235.545 244.768 235.186 244.701 234.761 244.701H234.091V243.803H234.761C235.093 243.803 235.385 243.743 235.635 243.623C235.889 243.503 236.086 243.334 236.228 243.116C236.372 242.898 236.444 242.642 236.444 242.348C236.444 242.065 236.382 241.818 236.256 241.609C236.131 241.399 235.954 241.235 235.725 241.118C235.499 241.001 235.232 240.943 234.924 240.943C234.636 240.943 234.363 240.996 234.107 241.102C233.854 241.205 233.647 241.357 233.486 241.555C233.326 241.752 233.238 241.988 233.225 242.266H232.244C232.261 241.828 232.393 241.444 232.641 241.114C232.888 240.782 233.213 240.523 233.613 240.338C234.016 240.153 234.459 240.06 234.941 240.06C235.458 240.06 235.902 240.165 236.273 240.375C236.643 240.582 236.928 240.855 237.127 241.196C237.325 241.536 237.425 241.904 237.425 242.299C237.425 242.77 237.301 243.172 237.053 243.504C236.808 243.837 236.474 244.067 236.052 244.195V244.26C236.581 244.347 236.993 244.572 237.29 244.934C237.587 245.294 237.735 245.739 237.735 246.27C237.735 246.725 237.611 247.134 237.364 247.496C237.118 247.855 236.783 248.139 236.359 248.346C235.934 248.553 235.45 248.656 234.908 248.656ZM242.136 248.656C241.52 248.656 240.996 248.489 240.563 248.154C240.13 247.816 239.799 247.327 239.57 246.687C239.341 246.044 239.227 245.268 239.227 244.358C239.227 243.454 239.341 242.682 239.57 242.042C239.801 241.399 240.134 240.909 240.567 240.571C241.003 240.23 241.526 240.06 242.136 240.06C242.746 240.06 243.267 240.23 243.7 240.571C244.136 240.909 244.469 241.399 244.697 242.042C244.929 242.682 245.045 243.454 245.045 244.358C245.045 245.268 244.93 246.044 244.701 246.687C244.473 247.327 244.142 247.816 243.709 248.154C243.276 248.489 242.751 248.656 242.136 248.656ZM242.136 247.757C242.746 247.757 243.22 247.463 243.557 246.875C243.895 246.287 244.064 245.448 244.064 244.358C244.064 243.634 243.986 243.017 243.831 242.507C243.679 241.998 243.458 241.61 243.169 241.343C242.883 241.076 242.539 240.943 242.136 240.943C241.531 240.943 241.058 241.241 240.718 241.837C240.377 242.431 240.207 243.271 240.207 244.358C240.207 245.083 240.283 245.698 240.436 246.205C240.589 246.711 240.808 247.097 241.094 247.361C241.383 247.625 241.73 247.757 242.136 247.757Z" fill="black"/>
<rect x="265.206" y="229.294" width="32.872" height="32.872" rx="16.436" fill="white"/>
</svg>
