<svg width="761" height="325" viewBox="0 0 761 325" fill="none" xmlns="http://www.w3.org/2000/svg">
<g clip-path="url(#clip0_18_5009)">
<rect y="0.807953" width="761" height="324" rx="20" fill="#F9F7FF"/>
<rect x="708" y="22.808" width="30" height="30" rx="7" fill="#F4F7FE"/>
<path d="M87.0201 219.886C68.4862 228.286 43.7744 221.052 33.7352 216.386L-26.5 350.886L766.982 365.886C772.002 304.719 775.554 180.086 749.607 170.886C717.173 159.386 700.955 180.886 695.164 187.386C689.372 193.886 669.68 198.886 653.462 196.886C637.245 194.886 602.494 219.886 578.168 225.886C553.843 231.886 520.25 198.886 505.191 193.386C490.132 187.886 477.39 199.886 471.598 198.886C465.807 197.886 441.481 166.386 424.105 166.886C406.73 167.386 391.671 196.886 378.929 193.386C366.187 189.886 352.287 216.386 309.427 233.886C266.567 251.386 249.192 167.386 226.024 163.386C202.857 159.386 195.907 176.886 172.739 193.386C149.572 209.886 139.147 197.386 132.197 193.386C125.246 189.386 110.188 209.386 87.0201 219.886Z" fill="url(#paint0_linear_18_5009)" stroke="#4D29EF" stroke-width="4" stroke-linecap="round" stroke-linejoin="round"/>
<path d="M87.0201 219.886C68.4862 228.286 43.7744 221.052 33.7352 216.386L-26.5 350.886L766.982 365.886C772.002 304.719 775.554 180.086 749.607 170.886C717.173 159.386 700.955 180.886 695.164 187.386C689.372 193.886 669.679 198.886 653.462 196.886C637.245 194.886 602.494 219.886 578.168 225.886C553.843 231.886 520.25 198.886 505.191 193.386C490.132 187.886 477.39 199.886 471.598 198.886C465.807 197.886 441.481 166.386 424.105 166.886C406.73 167.386 391.671 196.886 378.929 193.386C366.187 189.886 352.286 216.386 309.427 233.886C266.567 251.386 249.192 167.386 226.024 163.386C202.857 159.386 195.907 176.886 172.739 193.386C149.572 209.886 139.147 197.386 132.196 193.386C125.246 189.386 110.187 209.386 87.0201 219.886Z" stroke="#4D29EF" stroke-width="4" stroke-linecap="round" stroke-linejoin="round"/>
<path d="M28.6882 24.3001H25.8885C25.8374 23.9379 25.733 23.6162 25.5753 23.3349C25.4176 23.0494 25.2152 22.8065 24.968 22.6062C24.7209 22.406 24.4354 22.2526 24.1115 22.146C23.7919 22.0395 23.4446 21.9862 23.0696 21.9862C22.392 21.9862 21.8018 22.1545 21.299 22.4912C20.7962 22.8236 20.4063 23.3094 20.1293 23.9486C19.8523 24.5835 19.7138 25.3548 19.7138 26.2625C19.7138 27.1957 19.8523 27.9798 20.1293 28.6148C20.4105 29.2497 20.8026 29.7291 21.3054 30.053C21.8082 30.3768 22.3899 30.5388 23.0504 30.5388C23.4212 30.5388 23.7642 30.4898 24.0795 30.3918C24.3991 30.2937 24.6825 30.151 24.9297 29.9635C25.1768 29.7717 25.3814 29.5395 25.5433 29.2668C25.7095 28.994 25.8246 28.683 25.8885 28.3335L28.6882 28.3463C28.6158 28.9472 28.4347 29.5267 28.1449 30.0849C27.8594 30.6389 27.4737 31.1354 26.9879 31.5743C26.5064 32.0089 25.9311 32.3541 25.2621 32.6098C24.5973 32.8612 23.8452 32.9869 23.0057 32.9869C21.8381 32.9869 20.794 32.7227 19.8736 32.1943C18.9574 31.6659 18.233 30.901 17.7003 29.8996C17.1719 28.8982 16.9077 27.6858 16.9077 26.2625C16.9077 24.8349 17.1761 23.6205 17.7131 22.619C18.25 21.6176 18.9787 20.8548 19.8991 20.3307C20.8196 19.8023 21.8551 19.5381 23.0057 19.5381C23.7642 19.5381 24.4673 19.6446 25.1151 19.8577C25.767 20.0707 26.3445 20.3818 26.8473 20.7909C27.3501 21.1957 27.7592 21.6922 28.0746 22.2803C28.3942 22.8683 28.5987 23.5416 28.6882 24.3001ZM39.3533 23.9486C39.2638 23.6375 39.1381 23.3626 38.9762 23.124C38.8143 22.8811 38.6161 22.6766 38.3817 22.5104C38.1516 22.3399 37.8874 22.2099 37.5891 22.1205C37.2951 22.031 36.9691 21.9862 36.6112 21.9862C35.9421 21.9862 35.354 22.1524 34.8469 22.4848C34.3441 22.8172 33.9521 23.3009 33.6708 23.9358C33.3896 24.5665 33.2489 25.3378 33.2489 26.2497C33.2489 27.1616 33.3874 27.9372 33.6644 28.5764C33.9414 29.2156 34.3335 29.7035 34.8406 30.0402C35.3477 30.3726 35.9464 30.5388 36.6367 30.5388C37.2631 30.5388 37.7979 30.428 38.2411 30.2064C38.6886 29.9805 39.0295 29.6631 39.2639 29.254C39.5025 28.8449 39.6218 28.3612 39.6218 27.803L40.1843 27.8861H36.8093V25.8023H42.2873V27.4514C42.2873 28.602 42.0444 29.5906 41.5586 30.4173C41.0728 31.2398 40.4038 31.8747 39.5515 32.3222C38.6992 32.7653 37.7234 32.9869 36.6239 32.9869C35.3967 32.9869 34.3185 32.7163 33.3896 32.1751C32.4606 31.6297 31.7362 30.8562 31.2163 29.8548C30.7006 28.8491 30.4428 27.656 30.4428 26.2753C30.4428 25.2142 30.5962 24.2682 30.9031 23.4372C31.2141 22.602 31.6488 21.8946 32.207 21.3151C32.7653 20.7355 33.4151 20.2945 34.1566 19.9919C34.8981 19.6893 35.7013 19.5381 36.5664 19.5381C37.3079 19.5381 37.9982 19.6467 38.6374 19.8641C39.2766 20.0771 39.8434 20.3797 40.3377 20.7717C40.8363 21.1638 41.2433 21.6304 41.5586 22.1716C41.8739 22.7085 42.0763 23.3009 42.1658 23.9486H39.3533ZM44.3663 32.808V19.717H49.5311C50.524 19.717 51.3699 19.9067 52.0687 20.2859C52.7676 20.6609 53.3002 21.183 53.6667 21.852C54.0375 22.5168 54.2228 23.2838 54.2228 24.1531C54.2228 25.0224 54.0353 25.7895 53.6603 26.4543C53.2853 27.119 52.742 27.6368 52.0304 28.0075C51.323 28.3783 50.4664 28.5636 49.4608 28.5636H46.1689V26.3456H49.0133C49.546 26.3456 49.9849 26.254 50.3301 26.0707C50.6795 25.8832 50.9395 25.6254 51.1099 25.2973C51.2846 24.9649 51.372 24.5835 51.372 24.1531C51.372 23.7185 51.2846 23.3392 51.1099 23.0153C50.9395 22.6872 50.6795 22.4337 50.3301 22.2547C49.9806 22.0714 49.5375 21.9798 49.0005 21.9798H47.1341V32.808H44.3663ZM56.7653 32.808H53.7994L58.3185 19.717H61.8853L66.3981 32.808H63.4322L60.1531 22.7085H60.0508L56.7653 32.808ZM56.5799 27.6624H63.5856V29.8229H56.5799V27.6624ZM80.8201 23.9486C80.7306 23.6375 80.6049 23.3626 80.443 23.124C80.2811 22.8811 80.0829 22.6766 79.8485 22.5104C79.6184 22.3399 79.3542 22.2099 79.0559 22.1205C78.7619 22.031 78.4359 21.9862 78.0779 21.9862C77.4089 21.9862 76.8208 22.1524 76.3137 22.4848C75.8109 22.8172 75.4189 23.3009 75.1376 23.9358C74.8564 24.5665 74.7157 25.3378 74.7157 26.2497C74.7157 27.1616 74.8542 27.9372 75.1312 28.5764C75.4082 29.2156 75.8002 29.7035 76.3074 30.0402C76.8145 30.3726 77.4132 30.5388 78.1035 30.5388C78.7299 30.5388 79.2647 30.428 79.7079 30.2064C80.1554 29.9805 80.4963 29.6631 80.7306 29.254C80.9693 28.8449 81.0886 28.3612 81.0886 27.803L81.6511 27.8861H78.2761V25.8023H83.7541V27.4514C83.7541 28.602 83.5112 29.5906 83.0254 30.4173C82.5396 31.2398 81.8706 31.8747 81.0183 32.3222C80.166 32.7653 79.1902 32.9869 78.0907 32.9869C76.8635 32.9869 75.7853 32.7163 74.8564 32.1751C73.9274 31.6297 73.2029 30.8562 72.6831 29.8548C72.1674 28.8491 71.9096 27.656 71.9096 26.2753C71.9096 25.2142 72.063 24.2682 72.3699 23.4372C72.6809 22.602 73.1156 21.8946 73.6738 21.3151C74.2321 20.7355 74.8819 20.2945 75.6234 19.9919C76.3649 19.6893 77.1681 19.5381 78.0332 19.5381C78.7747 19.5381 79.465 19.6467 80.1042 19.8641C80.7434 20.0771 81.3102 20.3797 81.8045 20.7717C82.3031 21.1638 82.7101 21.6304 83.0254 22.1716C83.3407 22.7085 83.5431 23.3009 83.6326 23.9486H80.8201ZM85.782 32.808V22.9898H88.4219V24.7028H88.5241C88.7031 24.0935 89.0036 23.6332 89.4254 23.3222C89.8473 23.0068 90.3331 22.8491 90.8828 22.8491C91.0192 22.8491 91.1662 22.8577 91.3239 22.8747C91.4815 22.8918 91.62 22.9152 91.7393 22.945V25.3612C91.6115 25.3229 91.4347 25.2888 91.2088 25.2589C90.983 25.2291 90.7763 25.2142 90.5888 25.2142C90.1882 25.2142 89.8303 25.3016 89.5149 25.4763C89.2038 25.6467 88.9567 25.8854 88.7734 26.1922C88.5945 26.499 88.505 26.8527 88.505 27.2533V32.808H85.782ZM95.6657 32.9933C95.0392 32.9933 94.481 32.8847 93.9909 32.6673C93.5009 32.4457 93.1131 32.1197 92.8276 31.6893C92.5463 31.2547 92.4057 30.7135 92.4057 30.0658C92.4057 29.5203 92.5059 29.0622 92.7061 28.6915C92.9064 28.3207 93.1792 28.0224 93.5243 27.7966C93.8695 27.5707 94.2615 27.4003 94.7005 27.2852C95.1436 27.1702 95.6081 27.0892 96.0939 27.0423C96.665 26.9827 97.1252 26.9273 97.4746 26.8761C97.824 26.8207 98.0776 26.7398 98.2353 26.6332C98.3929 26.5267 98.4718 26.369 98.4718 26.1602V26.1219C98.4718 25.717 98.3439 25.4038 98.0882 25.1822C97.8368 24.9607 97.4789 24.8499 97.0144 24.8499C96.5243 24.8499 96.1344 24.9585 95.8446 25.1759C95.5549 25.3889 95.3631 25.6574 95.2694 25.9812L92.7509 25.7767C92.8787 25.1801 93.1301 24.6645 93.5051 24.2298C93.8801 23.7909 94.3638 23.4543 94.9561 23.2199C95.5527 22.9812 96.2431 22.8619 97.0272 22.8619C97.5726 22.8619 98.0946 22.9259 98.5932 23.0537C99.0961 23.1815 99.5414 23.3797 99.9292 23.6482C100.321 23.9166 100.63 24.2618 100.856 24.6837C101.082 25.1013 101.195 25.602 101.195 26.1858V32.808H98.6124V31.4464H98.5357C98.378 31.7533 98.1671 32.0239 97.9029 32.2582C97.6387 32.4884 97.3212 32.6695 96.9505 32.8016C96.5797 32.9294 96.1515 32.9933 95.6657 32.9933ZM96.4455 31.1141C96.8461 31.1141 97.1998 31.0352 97.5066 30.8776C97.8134 30.7156 98.0542 30.4983 98.2289 30.2256C98.4036 29.9528 98.4909 29.6439 98.4909 29.2987V28.2568C98.4057 28.3122 98.2885 28.3634 98.1394 28.4102C97.9945 28.4528 97.8304 28.4933 97.6472 28.5317C97.464 28.5658 97.2807 28.5977 97.0975 28.6276C96.9142 28.6531 96.748 28.6766 96.5989 28.6979C96.2793 28.7447 96.0002 28.8193 95.7615 28.9216C95.5229 29.0239 95.3375 29.1624 95.2054 29.3371C95.0733 29.5075 95.0073 29.7206 95.0073 29.9763C95.0073 30.347 95.1415 30.6304 95.41 30.8264C95.6827 31.0182 96.0279 31.1141 96.4455 31.1141ZM103.307 36.4898V22.9898H105.992V24.6389H106.113C106.233 24.3747 106.405 24.1062 106.631 23.8335C106.861 23.5565 107.16 23.3264 107.526 23.1432C107.897 22.9557 108.357 22.8619 108.907 22.8619C109.623 22.8619 110.283 23.0494 110.888 23.4244C111.493 23.7952 111.977 24.3555 112.339 25.1055C112.702 25.8513 112.883 26.7866 112.883 27.9116C112.883 29.0068 112.706 29.9315 112.352 30.6858C112.003 31.4358 111.525 32.0047 110.92 32.3925C110.319 32.776 109.646 32.9678 108.9 32.9678C108.372 32.9678 107.922 32.8804 107.552 32.7057C107.185 32.531 106.885 32.3115 106.65 32.0473C106.416 31.7788 106.237 31.5082 106.113 31.2355H106.03V36.4898H103.307ZM105.973 27.8989C105.973 28.4827 106.054 28.9919 106.216 29.4266C106.378 29.8612 106.612 30.2 106.919 30.4429C107.226 30.6815 107.599 30.8009 108.037 30.8009C108.481 30.8009 108.856 30.6794 109.162 30.4365C109.469 30.1893 109.702 29.8484 109.859 29.4138C110.021 28.9749 110.102 28.4699 110.102 27.8989C110.102 27.3321 110.023 26.8335 109.866 26.4031C109.708 25.9727 109.476 25.6361 109.169 25.3932C108.862 25.1503 108.485 25.0288 108.037 25.0288C107.594 25.0288 107.219 25.146 106.912 25.3804C106.61 25.6148 106.378 25.9472 106.216 26.3776C106.054 26.808 105.973 27.3151 105.973 27.8989ZM117.421 27.1318V32.808H114.698V19.717H117.344V24.722H117.459C117.681 24.1425 118.039 23.6886 118.533 23.3605C119.028 23.0281 119.648 22.8619 120.393 22.8619C121.075 22.8619 121.67 23.0111 122.177 23.3094C122.688 23.6034 123.084 24.0274 123.366 24.5814C123.651 25.1311 123.792 25.7895 123.787 26.5565V32.808H121.064V27.0423C121.069 26.4372 120.915 25.9663 120.604 25.6297C120.297 25.293 119.867 25.1247 119.313 25.1247C118.942 25.1247 118.614 25.2035 118.329 25.3612C118.047 25.5189 117.826 25.749 117.664 26.0516C117.506 26.3499 117.425 26.7099 117.421 27.1318Z" fill="#1B2559"/>
<path d="M40.5115 286.819C40.4433 286.244 40.1668 285.797 39.682 285.478C39.1971 285.16 38.6024 285.001 37.8979 285.001C37.3827 285.001 36.932 285.085 36.5456 285.251C36.163 285.418 35.8638 285.647 35.6479 285.939C35.4357 286.23 35.3297 286.562 35.3297 286.933C35.3297 287.244 35.4035 287.511 35.5513 287.734C35.7028 287.954 35.896 288.138 36.1308 288.285C36.3657 288.429 36.6119 288.549 36.8695 288.643C37.127 288.734 37.3638 288.808 37.5797 288.865L38.7615 289.183C39.0645 289.263 39.4016 289.372 39.7729 289.513C40.1479 289.653 40.5058 289.844 40.8467 290.086C41.1914 290.325 41.4755 290.632 41.699 291.007C41.9225 291.382 42.0342 291.842 42.0342 292.388C42.0342 293.016 41.8695 293.585 41.5399 294.092C41.2141 294.6 40.7369 295.003 40.1081 295.302C39.4831 295.602 38.7236 295.751 37.8297 295.751C36.9963 295.751 36.2748 295.617 35.6649 295.348C35.0588 295.079 34.5816 294.704 34.2331 294.223C33.8884 293.742 33.6933 293.183 33.6479 292.547H35.1024C35.1403 292.986 35.288 293.35 35.5456 293.638C35.807 293.922 36.1365 294.134 36.5342 294.274C36.9357 294.41 37.3676 294.478 37.8297 294.478C38.3676 294.478 38.8505 294.391 39.2785 294.217C39.7066 294.039 40.0456 293.793 40.2956 293.478C40.5456 293.16 40.6706 292.789 40.6706 292.365C40.6706 291.978 40.5626 291.664 40.3467 291.422C40.1308 291.179 39.8467 290.982 39.4945 290.831C39.1422 290.679 38.7615 290.547 38.3524 290.433L36.9206 290.024C36.0115 289.763 35.2918 289.389 34.7615 288.905C34.2312 288.42 33.966 287.785 33.966 287.001C33.966 286.35 34.1422 285.782 34.4945 285.297C34.8505 284.808 35.3278 284.429 35.9263 284.16C36.5285 283.888 37.2009 283.751 37.9433 283.751C38.6933 283.751 39.36 283.886 39.9433 284.155C40.5266 284.42 40.9888 284.783 41.3297 285.246C41.6744 285.708 41.8562 286.232 41.8751 286.819H40.5115ZM48.2373 283.91V295.547H46.8283V285.388H46.7601L43.9192 287.274V285.842L46.8283 283.91H48.2373Z" fill="#4D29EF"/>
<path d="M179.616 286.819C179.548 286.244 179.271 285.797 178.786 285.478C178.302 285.16 177.707 285.001 177.002 285.001C176.487 285.001 176.036 285.085 175.65 285.251C175.268 285.418 174.968 285.647 174.752 285.939C174.54 286.23 174.434 286.562 174.434 286.933C174.434 287.244 174.508 287.511 174.656 287.734C174.807 287.954 175 288.138 175.235 288.285C175.47 288.429 175.716 288.549 175.974 288.643C176.232 288.734 176.468 288.808 176.684 288.865L177.866 289.183C178.169 289.263 178.506 289.372 178.877 289.513C179.252 289.653 179.61 289.844 179.951 290.086C180.296 290.325 180.58 290.632 180.803 291.007C181.027 291.382 181.139 291.842 181.139 292.388C181.139 293.016 180.974 293.585 180.644 294.092C180.319 294.6 179.841 295.003 179.213 295.302C178.588 295.602 177.828 295.751 176.934 295.751C176.101 295.751 175.379 295.617 174.769 295.348C174.163 295.079 173.686 294.704 173.338 294.223C172.993 293.742 172.798 293.183 172.752 292.547H174.207C174.245 292.986 174.393 293.35 174.65 293.638C174.911 293.922 175.241 294.134 175.639 294.274C176.04 294.41 176.472 294.478 176.934 294.478C177.472 294.478 177.955 294.391 178.383 294.217C178.811 294.039 179.15 293.793 179.4 293.478C179.65 293.16 179.775 292.789 179.775 292.365C179.775 291.978 179.667 291.664 179.451 291.422C179.235 291.179 178.951 290.982 178.599 290.831C178.247 290.679 177.866 290.547 177.457 290.433L176.025 290.024C175.116 289.763 174.396 289.389 173.866 288.905C173.336 288.42 173.071 287.785 173.071 287.001C173.071 286.35 173.247 285.782 173.599 285.297C173.955 284.808 174.432 284.429 175.031 284.16C175.633 283.888 176.305 283.751 177.048 283.751C177.798 283.751 178.464 283.886 179.048 284.155C179.631 284.42 180.093 284.783 180.434 285.246C180.779 285.708 180.961 286.232 180.98 286.819H179.616ZM183.251 295.547V294.524L187.092 290.319C187.543 289.827 187.914 289.399 188.205 289.035C188.497 288.668 188.713 288.323 188.853 288.001C188.997 287.675 189.069 287.335 189.069 286.978C189.069 286.569 188.971 286.215 188.774 285.916C188.58 285.617 188.315 285.386 187.978 285.223C187.641 285.06 187.262 284.978 186.842 284.978C186.395 284.978 186.005 285.071 185.671 285.257C185.342 285.439 185.086 285.694 184.904 286.024C184.726 286.353 184.637 286.74 184.637 287.183H183.296C183.296 286.501 183.454 285.903 183.768 285.388C184.082 284.872 184.51 284.471 185.052 284.183C185.598 283.895 186.209 283.751 186.887 283.751C187.569 283.751 188.173 283.895 188.7 284.183C189.226 284.471 189.639 284.859 189.938 285.348C190.238 285.836 190.387 286.38 190.387 286.978C190.387 287.407 190.31 287.825 190.154 288.234C190.003 288.639 189.738 289.092 189.359 289.592C188.984 290.088 188.463 290.694 187.796 291.41L185.183 294.206V294.297H190.592V295.547H183.251Z" fill="#4D29EF"/>
<path d="M319.22 286.819C319.152 286.244 318.876 285.797 318.391 285.478C317.906 285.16 317.311 285.001 316.607 285.001C316.092 285.001 315.641 285.085 315.255 285.251C314.872 285.418 314.573 285.647 314.357 285.939C314.145 286.23 314.039 286.562 314.039 286.933C314.039 287.244 314.113 287.511 314.26 287.734C314.412 287.954 314.605 288.138 314.84 288.285C315.075 288.429 315.321 288.549 315.578 288.643C315.836 288.734 316.073 288.808 316.289 288.865L317.47 289.183C317.774 289.263 318.111 289.372 318.482 289.513C318.857 289.653 319.215 289.844 319.556 290.086C319.9 290.325 320.184 290.632 320.408 291.007C320.631 291.382 320.743 291.842 320.743 292.388C320.743 293.016 320.578 293.585 320.249 294.092C319.923 294.6 319.446 295.003 318.817 295.302C318.192 295.602 317.433 295.751 316.539 295.751C315.705 295.751 314.984 295.617 314.374 295.348C313.768 295.079 313.291 294.704 312.942 294.223C312.597 293.742 312.402 293.183 312.357 292.547H313.811C313.849 292.986 313.997 293.35 314.255 293.638C314.516 293.922 314.845 294.134 315.243 294.274C315.645 294.41 316.077 294.478 316.539 294.478C317.077 294.478 317.559 294.391 317.988 294.217C318.416 294.039 318.755 293.793 319.005 293.478C319.255 293.16 319.38 292.789 319.38 292.365C319.38 291.978 319.272 291.664 319.056 291.422C318.84 291.179 318.556 290.982 318.203 290.831C317.851 290.679 317.47 290.547 317.061 290.433L315.63 290.024C314.72 289.763 314.001 289.389 313.47 288.905C312.94 288.42 312.675 287.785 312.675 287.001C312.675 286.35 312.851 285.782 313.203 285.297C313.559 284.808 314.037 284.429 314.635 284.16C315.238 283.888 315.91 283.751 316.652 283.751C317.402 283.751 318.069 283.886 318.652 284.155C319.236 284.42 319.698 284.783 320.039 285.246C320.383 285.708 320.565 286.232 320.584 286.819H319.22ZM326.787 295.706C326.037 295.706 325.369 295.577 324.782 295.319C324.198 295.062 323.734 294.704 323.39 294.246C323.049 293.783 322.863 293.247 322.833 292.638H324.265C324.295 293.013 324.424 293.336 324.651 293.609C324.878 293.878 325.176 294.086 325.543 294.234C325.91 294.382 326.318 294.456 326.765 294.456C327.265 294.456 327.708 294.369 328.094 294.194C328.48 294.02 328.783 293.778 329.003 293.467C329.223 293.157 329.333 292.797 329.333 292.388C329.333 291.96 329.227 291.583 329.015 291.257C328.802 290.927 328.492 290.67 328.083 290.484C327.674 290.299 327.174 290.206 326.583 290.206H325.651V288.956H326.583C327.045 288.956 327.45 288.872 327.799 288.706C328.151 288.539 328.426 288.304 328.622 288.001C328.823 287.698 328.924 287.342 328.924 286.933C328.924 286.539 328.836 286.196 328.662 285.905C328.488 285.613 328.242 285.386 327.924 285.223C327.609 285.06 327.238 284.978 326.81 284.978C326.408 284.978 326.03 285.052 325.674 285.2C325.321 285.344 325.033 285.554 324.81 285.831C324.586 286.103 324.465 286.433 324.446 286.819H323.083C323.105 286.21 323.289 285.675 323.634 285.217C323.979 284.755 324.429 284.395 324.986 284.138C325.547 283.88 326.162 283.751 326.833 283.751C327.552 283.751 328.17 283.897 328.685 284.189C329.2 284.477 329.596 284.857 329.872 285.331C330.149 285.804 330.287 286.316 330.287 286.865C330.287 287.52 330.115 288.079 329.77 288.541C329.429 289.003 328.965 289.323 328.378 289.501V289.592C329.113 289.713 329.687 290.026 330.1 290.53C330.513 291.03 330.719 291.649 330.719 292.388C330.719 293.02 330.547 293.588 330.202 294.092C329.861 294.592 329.395 294.986 328.804 295.274C328.213 295.562 327.541 295.706 326.787 295.706Z" fill="#4D29EF"/>
<path d="M459.325 286.819C459.257 286.244 458.98 285.797 458.495 285.478C458.011 285.16 457.416 285.001 456.711 285.001C456.196 285.001 455.745 285.085 455.359 285.251C454.976 285.418 454.677 285.647 454.461 285.939C454.249 286.23 454.143 286.562 454.143 286.933C454.143 287.244 454.217 287.511 454.365 287.734C454.516 287.954 454.709 288.138 454.944 288.285C455.179 288.429 455.425 288.549 455.683 288.643C455.941 288.734 456.177 288.808 456.393 288.865L457.575 289.183C457.878 289.263 458.215 289.372 458.586 289.513C458.961 289.653 459.319 289.844 459.66 290.086C460.005 290.325 460.289 290.632 460.512 291.007C460.736 291.382 460.848 291.842 460.848 292.388C460.848 293.016 460.683 293.585 460.353 294.092C460.028 294.6 459.55 295.003 458.922 295.302C458.297 295.602 457.537 295.751 456.643 295.751C455.81 295.751 455.088 295.617 454.478 295.348C453.872 295.079 453.395 294.704 453.047 294.223C452.702 293.742 452.507 293.183 452.461 292.547H453.916C453.954 292.986 454.101 293.35 454.359 293.638C454.62 293.922 454.95 294.134 455.348 294.274C455.749 294.41 456.181 294.478 456.643 294.478C457.181 294.478 457.664 294.391 458.092 294.217C458.52 294.039 458.859 293.793 459.109 293.478C459.359 293.16 459.484 292.789 459.484 292.365C459.484 291.978 459.376 291.664 459.16 291.422C458.944 291.179 458.66 290.982 458.308 290.831C457.956 290.679 457.575 290.547 457.166 290.433L455.734 290.024C454.825 289.763 454.105 289.389 453.575 288.905C453.045 288.42 452.78 287.785 452.78 287.001C452.78 286.35 452.956 285.782 453.308 285.297C453.664 284.808 454.141 284.429 454.74 284.16C455.342 283.888 456.014 283.751 456.757 283.751C457.507 283.751 458.173 283.886 458.757 284.155C459.34 284.42 459.802 284.783 460.143 285.246C460.488 285.708 460.67 286.232 460.689 286.819H459.325ZM462.687 293.16V292.001L467.801 283.91H468.642V285.706H468.074L464.21 291.819V291.91H471.096V293.16H462.687ZM468.164 295.547V292.808V292.268V283.91H469.505V295.547H468.164Z" fill="#4D29EF"/>
<path d="M599.93 286.819C599.861 286.244 599.585 285.797 599.1 285.478C598.615 285.16 598.02 285.001 597.316 285.001C596.801 285.001 596.35 285.085 595.964 285.251C595.581 285.418 595.282 285.647 595.066 285.939C594.854 286.23 594.748 286.562 594.748 286.933C594.748 287.244 594.822 287.511 594.969 287.734C595.121 287.954 595.314 288.138 595.549 288.285C595.784 288.429 596.03 288.549 596.288 288.643C596.545 288.734 596.782 288.808 596.998 288.865L598.18 289.183C598.483 289.263 598.82 289.372 599.191 289.513C599.566 289.653 599.924 289.844 600.265 290.086C600.61 290.325 600.894 290.632 601.117 291.007C601.341 291.382 601.452 291.842 601.452 292.388C601.452 293.016 601.288 293.585 600.958 294.092C600.632 294.6 600.155 295.003 599.526 295.302C598.901 295.602 598.142 295.751 597.248 295.751C596.414 295.751 595.693 295.617 595.083 295.348C594.477 295.079 594 294.704 593.651 294.223C593.306 293.742 593.111 293.183 593.066 292.547H594.52C594.558 292.986 594.706 293.35 594.964 293.638C595.225 293.922 595.555 294.134 595.952 294.274C596.354 294.41 596.786 294.478 597.248 294.478C597.786 294.478 598.269 294.391 598.697 294.217C599.125 294.039 599.464 293.793 599.714 293.478C599.964 293.16 600.089 292.789 600.089 292.365C600.089 291.978 599.981 291.664 599.765 291.422C599.549 291.179 599.265 290.982 598.913 290.831C598.56 290.679 598.18 290.547 597.77 290.433L596.339 290.024C595.43 289.763 594.71 289.389 594.18 288.905C593.649 288.42 593.384 287.785 593.384 287.001C593.384 286.35 593.56 285.782 593.913 285.297C594.269 284.808 594.746 284.429 595.344 284.16C595.947 283.888 596.619 283.751 597.361 283.751C598.111 283.751 598.778 283.886 599.361 284.155C599.945 284.42 600.407 284.783 600.748 285.246C601.092 285.708 601.274 286.232 601.293 286.819H599.93ZM607.201 295.706C606.534 295.706 605.934 295.573 605.4 295.308C604.866 295.043 604.438 294.679 604.116 294.217C603.794 293.755 603.618 293.228 603.587 292.638H604.951C605.004 293.164 605.243 293.6 605.667 293.944C606.095 294.285 606.606 294.456 607.201 294.456C607.678 294.456 608.102 294.344 608.474 294.121C608.849 293.897 609.142 293.59 609.354 293.2C609.57 292.806 609.678 292.361 609.678 291.865C609.678 291.357 609.566 290.905 609.343 290.507C609.123 290.105 608.82 289.789 608.434 289.558C608.047 289.327 607.606 289.21 607.11 289.206C606.754 289.202 606.388 289.257 606.013 289.371C605.638 289.48 605.33 289.622 605.087 289.797L603.769 289.638L604.474 283.91H610.519V285.16H605.655L605.246 288.592H605.315C605.553 288.403 605.852 288.246 606.212 288.121C606.572 287.996 606.947 287.933 607.337 287.933C608.049 287.933 608.684 288.103 609.241 288.444C609.801 288.782 610.241 289.244 610.559 289.831C610.881 290.418 611.042 291.088 611.042 291.842C611.042 292.585 610.875 293.247 610.542 293.831C610.212 294.41 609.758 294.869 609.178 295.206C608.599 295.539 607.94 295.706 607.201 295.706Z" fill="#4D29EF"/>
<path d="M739.534 286.819C739.466 286.244 739.189 285.797 738.705 285.478C738.22 285.16 737.625 285.001 736.92 285.001C736.405 285.001 735.955 285.085 735.568 285.251C735.186 285.418 734.886 285.647 734.67 285.939C734.458 286.23 734.352 286.562 734.352 286.933C734.352 287.244 734.426 287.511 734.574 287.734C734.725 287.954 734.919 288.138 735.153 288.285C735.388 288.429 735.634 288.549 735.892 288.643C736.15 288.734 736.386 288.808 736.602 288.865L737.784 289.183C738.087 289.263 738.424 289.372 738.795 289.513C739.17 289.653 739.528 289.844 739.869 290.086C740.214 290.325 740.498 290.632 740.722 291.007C740.945 291.382 741.057 291.842 741.057 292.388C741.057 293.016 740.892 293.585 740.562 294.092C740.237 294.6 739.759 295.003 739.131 295.302C738.506 295.602 737.746 295.751 736.852 295.751C736.019 295.751 735.297 295.617 734.687 295.348C734.081 295.079 733.604 294.704 733.256 294.223C732.911 293.742 732.716 293.183 732.67 292.547H734.125C734.163 292.986 734.311 293.35 734.568 293.638C734.83 293.922 735.159 294.134 735.557 294.274C735.958 294.41 736.39 294.478 736.852 294.478C737.39 294.478 737.873 294.391 738.301 294.217C738.729 294.039 739.068 293.793 739.318 293.478C739.568 293.16 739.693 292.789 739.693 292.365C739.693 291.978 739.585 291.664 739.369 291.422C739.153 291.179 738.869 290.982 738.517 290.831C738.165 290.679 737.784 290.547 737.375 290.433L735.943 290.024C735.034 289.763 734.314 289.389 733.784 288.905C733.254 288.42 732.989 287.785 732.989 287.001C732.989 286.35 733.165 285.782 733.517 285.297C733.873 284.808 734.35 284.429 734.949 284.16C735.551 283.888 736.223 283.751 736.966 283.751C737.716 283.751 738.383 283.886 738.966 284.155C739.549 284.42 740.011 284.783 740.352 285.246C740.697 285.708 740.879 286.232 740.898 286.819H739.534ZM747.033 295.706C746.555 295.698 746.078 295.607 745.601 295.433C745.124 295.259 744.688 294.965 744.294 294.552C743.9 294.136 743.584 293.573 743.345 292.865C743.107 292.153 742.987 291.259 742.987 290.183C742.987 289.153 743.084 288.24 743.277 287.444C743.47 286.645 743.75 285.973 744.118 285.427C744.485 284.878 744.928 284.461 745.447 284.177C745.97 283.893 746.559 283.751 747.214 283.751C747.866 283.751 748.446 283.882 748.953 284.143C749.464 284.401 749.881 284.761 750.203 285.223C750.525 285.685 750.733 286.217 750.828 286.819H749.442C749.313 286.297 749.063 285.863 748.692 285.518C748.321 285.174 747.828 285.001 747.214 285.001C746.313 285.001 745.603 285.393 745.084 286.177C744.569 286.961 744.309 288.062 744.305 289.478H744.396C744.608 289.157 744.86 288.882 745.152 288.655C745.447 288.424 745.773 288.246 746.129 288.121C746.485 287.996 746.862 287.933 747.26 287.933C747.927 287.933 748.536 288.1 749.089 288.433C749.643 288.763 750.086 289.219 750.419 289.802C750.752 290.382 750.919 291.047 750.919 291.797C750.919 292.516 750.758 293.175 750.436 293.774C750.114 294.369 749.661 294.842 749.078 295.194C748.499 295.543 747.817 295.713 747.033 295.706ZM747.033 294.456C747.51 294.456 747.938 294.336 748.317 294.098C748.699 293.859 749 293.539 749.22 293.138C749.444 292.736 749.555 292.289 749.555 291.797C749.555 291.316 749.447 290.878 749.232 290.484C749.019 290.086 748.726 289.77 748.351 289.535C747.98 289.3 747.555 289.183 747.078 289.183C746.718 289.183 746.383 289.255 746.072 289.399C745.762 289.539 745.489 289.732 745.254 289.978C745.023 290.225 744.841 290.507 744.709 290.825C744.576 291.139 744.51 291.471 744.51 291.819C744.51 292.282 744.618 292.713 744.834 293.115C745.053 293.516 745.353 293.84 745.732 294.086C746.114 294.333 746.548 294.456 747.033 294.456Z" fill="#4D29EF"/>
<rect x="625" y="16.808" width="120" height="40" rx="8" fill="#EEEBFF"/>
<path d="M634.403 42.808L639.227 33.2625V33.183H633.608V31.1716H641.773V33.2114L636.943 42.808H634.403ZM642.896 42.9557C642.521 42.9557 642.199 42.8231 641.93 42.558C641.665 42.289 641.533 41.967 641.533 41.592C641.533 41.2208 641.665 40.9026 641.93 40.6375C642.199 40.3723 642.521 40.2398 642.896 40.2398C643.26 40.2398 643.578 40.3723 643.851 40.6375C644.124 40.9026 644.26 41.2208 644.26 41.592C644.26 41.842 644.196 42.0712 644.067 42.2795C643.942 42.4841 643.777 42.6489 643.572 42.7739C643.368 42.8951 643.143 42.9557 642.896 42.9557ZM650.222 42.967C649.623 42.9633 649.045 42.8629 648.489 42.6659C647.936 42.4689 647.439 42.1489 647 41.7057C646.561 41.2625 646.212 40.6754 645.955 39.9443C645.701 39.2133 645.574 38.3155 645.574 37.2511C645.578 36.2739 645.689 35.4008 645.909 34.6318C646.133 33.8591 646.451 33.2038 646.864 32.6659C647.28 32.128 647.778 31.7189 648.358 31.4386C648.938 31.1545 649.587 31.0125 650.307 31.0125C651.083 31.0125 651.769 31.164 652.364 31.467C652.958 31.7663 653.436 32.1735 653.795 32.6886C654.159 33.2038 654.379 33.7814 654.455 34.4216H652.028C651.934 34.0163 651.735 33.6981 651.432 33.467C651.129 33.236 650.754 33.1205 650.307 33.1205C649.549 33.1205 648.973 33.45 648.58 34.1091C648.189 34.7682 647.991 35.664 647.983 36.7966H648.062C648.237 36.4519 648.472 36.1583 648.767 35.9159C649.066 35.6697 649.405 35.4822 649.784 35.3534C650.167 35.2208 650.57 35.1545 650.994 35.1545C651.684 35.1545 652.297 35.3174 652.835 35.6432C653.373 35.9651 653.797 36.4083 654.108 36.9727C654.419 37.5371 654.574 38.183 654.574 38.9102C654.574 39.6981 654.39 40.3989 654.023 41.0125C653.659 41.6261 653.15 42.1072 652.494 42.4557C651.843 42.8004 651.085 42.9708 650.222 42.967ZM650.21 41.0352C650.589 41.0352 650.928 40.9443 651.227 40.7625C651.527 40.5807 651.761 40.3345 651.932 40.0239C652.102 39.7133 652.188 39.3648 652.188 38.9784C652.188 38.592 652.102 38.2455 651.932 37.9386C651.765 37.6318 651.534 37.3875 651.239 37.2057C650.943 37.0239 650.606 36.933 650.227 36.933C649.943 36.933 649.68 36.986 649.438 37.092C649.199 37.1981 648.989 37.3458 648.807 37.5352C648.629 37.7246 648.489 37.9443 648.386 38.1943C648.284 38.4405 648.233 38.7038 648.233 38.9841C648.233 39.3591 648.318 39.7019 648.489 40.0125C648.663 40.3231 648.898 40.5712 649.193 40.7568C649.492 40.9424 649.831 41.0352 650.21 41.0352ZM670.357 35.2455H667.868C667.822 34.9235 667.73 34.6375 667.589 34.3875C667.449 34.1337 667.269 33.9178 667.05 33.7398C666.83 33.5617 666.576 33.4254 666.288 33.3307C666.004 33.236 665.696 33.1886 665.362 33.1886C664.76 33.1886 664.235 33.3383 663.788 33.6375C663.341 33.933 662.995 34.3648 662.749 34.933C662.502 35.4973 662.379 36.183 662.379 36.9898C662.379 37.8193 662.502 38.5163 662.749 39.0807C662.999 39.6451 663.347 40.0712 663.794 40.3591C664.241 40.647 664.758 40.7909 665.345 40.7909C665.675 40.7909 665.98 40.7473 666.26 40.6602C666.544 40.5731 666.796 40.4462 667.016 40.2795C667.235 40.1091 667.417 39.9026 667.561 39.6602C667.709 39.4178 667.811 39.1413 667.868 38.8307L670.357 38.842C670.292 39.3761 670.131 39.8913 669.874 40.3875C669.62 40.8799 669.277 41.3212 668.845 41.7114C668.417 42.0977 667.906 42.4045 667.311 42.6318C666.72 42.8553 666.052 42.967 665.305 42.967C664.268 42.967 663.339 42.7322 662.521 42.2625C661.707 41.7928 661.063 41.1129 660.589 40.2227C660.12 39.3326 659.885 38.2549 659.885 36.9898C659.885 35.7208 660.124 34.6413 660.601 33.7511C661.078 32.861 661.726 32.183 662.544 31.717C663.362 31.2473 664.283 31.0125 665.305 31.0125C665.98 31.0125 666.605 31.1072 667.18 31.2966C667.76 31.486 668.273 31.7625 668.72 32.1261C669.167 32.486 669.531 32.9273 669.811 33.45C670.095 33.9727 670.277 34.5712 670.357 35.2455ZM679.837 34.933C679.757 34.6564 679.645 34.4121 679.501 34.2C679.357 33.9841 679.181 33.8023 678.973 33.6545C678.768 33.503 678.534 33.3875 678.268 33.308C678.007 33.2284 677.717 33.1886 677.399 33.1886C676.804 33.1886 676.282 33.3364 675.831 33.6318C675.384 33.9273 675.036 34.3572 674.786 34.9216C674.536 35.4822 674.411 36.1678 674.411 36.9784C674.411 37.789 674.534 38.4784 674.78 39.0466C675.026 39.6148 675.375 40.0485 675.825 40.3477C676.276 40.6432 676.808 40.7909 677.422 40.7909C677.979 40.7909 678.454 40.6924 678.848 40.4955C679.246 40.2947 679.549 40.0125 679.757 39.6489C679.969 39.2852 680.075 38.8553 680.075 38.3591L680.575 38.433H677.575V36.5807H682.445V38.0466C682.445 39.0693 682.229 39.9481 681.797 40.683C681.365 41.414 680.77 41.9784 680.013 42.3761C679.255 42.7701 678.388 42.967 677.411 42.967C676.32 42.967 675.361 42.7265 674.536 42.2455C673.71 41.7606 673.066 41.0731 672.604 40.183C672.145 39.289 671.916 38.2284 671.916 37.0011C671.916 36.058 672.053 35.217 672.325 34.4784C672.602 33.736 672.988 33.1072 673.484 32.592C673.981 32.0769 674.558 31.6848 675.217 31.4159C675.876 31.147 676.59 31.0125 677.359 31.0125C678.018 31.0125 678.632 31.1091 679.2 31.3023C679.768 31.4917 680.272 31.7606 680.712 32.1091C681.155 32.4576 681.517 32.8723 681.797 33.3534C682.077 33.8307 682.257 34.3572 682.337 34.933H679.837ZM684.293 42.808V31.1716H688.884C689.766 31.1716 690.518 31.3401 691.139 31.6773C691.76 32.0106 692.234 32.4746 692.56 33.0693C692.889 33.6602 693.054 34.342 693.054 35.1148C693.054 35.8875 692.887 36.5693 692.554 37.1602C692.221 37.7511 691.738 38.2114 691.105 38.5409C690.476 38.8705 689.715 39.0352 688.821 39.0352H685.895V37.0636H688.423C688.897 37.0636 689.287 36.9822 689.594 36.8193C689.904 36.6526 690.135 36.4235 690.287 36.1318C690.442 35.8364 690.52 35.4973 690.52 35.1148C690.52 34.7284 690.442 34.3913 690.287 34.1034C690.135 33.8117 689.904 33.5864 689.594 33.4273C689.283 33.2644 688.889 33.183 688.412 33.183H686.753V42.808H684.293ZM695.314 42.808H692.678L696.695 31.1716H699.865L703.876 42.808H701.24L698.325 33.8307H698.234L695.314 42.808ZM695.149 38.2341H701.376V40.1545H695.149V38.2341Z" fill="#4D29EF"/>
<g clip-path="url(#clip1_18_5009)">
<path d="M719.4 34.008H719.6C720.37 34.008 721 34.638 721 35.408V42.408C721 43.178 720.37 43.808 719.6 43.808H719.4C718.63 43.808 718 43.178 718 42.408V35.408C718 34.638 718.63 34.008 719.4 34.008ZM725 29.808C725.77 29.808 726.4 30.438 726.4 31.208V42.408C726.4 43.178 725.77 43.808 725 43.808C724.23 43.808 723.6 43.178 723.6 42.408V31.208C723.6 30.438 724.23 29.808 725 29.808ZM730.6 37.808C731.37 37.808 732 38.438 732 39.208V42.408C732 43.178 731.37 43.808 730.6 43.808C729.83 43.808 729.2 43.178 729.2 42.408V39.208C729.2 38.438 729.83 37.808 730.6 37.808Z" fill="#4D29EF"/>
</g>
<rect x="25" y="182.808" width="34" height="24" rx="12" fill="#4318FF" fill-opacity="0.1"/>
<path d="M36.9215 198.927C36.5323 198.922 36.1488 198.851 35.771 198.714C35.396 198.578 35.055 198.351 34.7482 198.032C34.4414 197.714 34.1957 197.287 34.011 196.75C33.8292 196.213 33.7383 195.542 33.7383 194.738C33.7383 193.977 33.8136 193.301 33.9641 192.71C34.1175 192.119 34.3377 191.62 34.6246 191.214C34.9116 190.805 35.2582 190.494 35.6644 190.281C36.0707 190.068 36.5266 189.961 37.0323 189.961C37.5522 189.961 38.0138 190.064 38.4173 190.268C38.8207 190.473 39.1474 190.755 39.3974 191.116C39.6502 191.477 39.8107 191.887 39.8789 192.348H38.5792C38.4911 191.984 38.3164 191.687 38.055 191.457C37.7937 191.227 37.4528 191.112 37.0323 191.112C36.3931 191.112 35.8945 191.39 35.5366 191.947C35.1815 192.504 35.0025 193.278 34.9996 194.27H35.0636C35.2141 194.022 35.3988 193.812 35.6175 193.639C35.8391 193.463 36.0863 193.328 36.359 193.234C36.6346 193.137 36.9244 193.089 37.2283 193.089C37.734 193.089 38.1914 193.213 38.6005 193.46C39.0124 193.704 39.3406 194.042 39.5849 194.474C39.8292 194.906 39.9513 195.4 39.9513 195.957C39.9513 196.514 39.8249 197.018 39.5721 197.47C39.3221 197.922 38.9698 198.28 38.5153 198.544C38.0607 198.805 37.5295 198.933 36.9215 198.927ZM36.9173 197.819C37.2525 197.819 37.5522 197.737 37.8164 197.572C38.0806 197.407 38.2894 197.186 38.4428 196.907C38.5962 196.629 38.6729 196.318 38.6729 195.974C38.6729 195.639 38.5977 195.334 38.4471 195.058C38.2994 194.782 38.0948 194.564 37.8335 194.402C37.5749 194.24 37.2795 194.159 36.9471 194.159C36.6942 194.159 36.4599 194.207 36.244 194.304C36.0309 194.4 35.8434 194.534 35.6815 194.704C35.5195 194.875 35.3917 195.071 35.2979 195.292C35.207 195.511 35.1616 195.743 35.1616 195.987C35.1616 196.314 35.2369 196.616 35.3874 196.895C35.5408 197.173 35.7496 197.397 36.0138 197.568C36.2809 197.736 36.582 197.819 36.9173 197.819ZM41.9616 198.889C41.7287 198.889 41.5284 198.807 41.3608 198.642C41.1932 198.474 41.1094 198.272 41.1094 198.037C41.1094 197.804 41.1932 197.605 41.3608 197.44C41.5284 197.272 41.7287 197.189 41.9616 197.189C42.1946 197.189 42.3949 197.272 42.5625 197.44C42.7301 197.605 42.8139 197.804 42.8139 198.037C42.8139 198.193 42.7741 198.336 42.6946 198.467C42.6179 198.595 42.5156 198.697 42.3878 198.774C42.2599 198.851 42.1179 198.889 41.9616 198.889ZM47.2436 198.927C46.7095 198.927 46.2294 198.825 45.8033 198.62C45.38 198.413 45.0419 198.129 44.7891 197.768C44.5362 197.407 44.4013 196.995 44.3842 196.532H45.6626C45.6939 196.907 45.8601 197.216 46.1612 197.457C46.4624 197.699 46.8232 197.819 47.2436 197.819C47.5788 197.819 47.8757 197.743 48.1342 197.589C48.3956 197.433 48.6001 197.218 48.7479 196.946C48.8984 196.673 48.9737 196.362 48.9737 196.012C48.9737 195.657 48.897 195.341 48.7436 195.062C48.5902 194.784 48.3786 194.565 48.1087 194.406C47.8416 194.247 47.5348 194.166 47.1882 194.163C46.924 194.163 46.6584 194.209 46.3913 194.299C46.1243 194.39 45.9084 194.51 45.7436 194.657L44.5376 194.478L45.0277 190.081H49.826V191.21H46.1229L45.8459 193.652H45.897C46.0675 193.487 46.2933 193.349 46.5746 193.238C46.8587 193.128 47.1626 193.072 47.4865 193.072C48.0178 193.072 48.4908 193.199 48.9055 193.451C49.3232 193.704 49.6513 194.049 49.8899 194.487C50.1314 194.922 50.2507 195.422 50.2479 195.987C50.2507 196.552 50.1229 197.057 49.8643 197.5C49.6087 197.943 49.2536 198.292 48.799 198.548C48.3473 198.801 47.8288 198.927 47.2436 198.927Z" fill="#4D29EF"/>
<rect x="164.5" y="139.808" width="35" height="24" rx="12" fill="#4318FF" fill-opacity="0.1"/>
<path d="M176.665 155.927C176.055 155.927 175.515 155.822 175.046 155.612C174.58 155.402 174.215 155.112 173.951 154.743C173.687 154.373 173.556 153.953 173.559 153.481C173.556 153.112 173.631 152.772 173.785 152.463C173.941 152.15 174.153 151.89 174.42 151.683C174.687 151.473 174.985 151.339 175.314 151.282V151.231C174.88 151.126 174.532 150.893 174.27 150.532C174.009 150.172 173.88 149.757 173.883 149.288C173.88 148.842 173.998 148.444 174.236 148.095C174.478 147.743 174.809 147.466 175.229 147.264C175.65 147.062 176.128 146.961 176.665 146.961C177.197 146.961 177.671 147.064 178.089 147.268C178.509 147.47 178.84 147.747 179.081 148.099C179.323 148.449 179.445 148.845 179.448 149.288C179.445 149.757 179.312 150.172 179.047 150.532C178.783 150.893 178.439 151.126 178.016 151.231V151.282C178.343 151.339 178.637 151.473 178.898 151.683C179.162 151.89 179.373 152.15 179.529 152.463C179.688 152.772 179.769 153.112 179.772 153.481C179.769 153.953 179.635 154.373 179.371 154.743C179.107 155.112 178.741 155.402 178.272 155.612C177.806 155.822 177.27 155.927 176.665 155.927ZM176.665 154.849C177.026 154.849 177.339 154.789 177.603 154.67C177.867 154.548 178.072 154.379 178.216 154.163C178.361 153.944 178.435 153.689 178.438 153.396C178.435 153.092 178.356 152.824 178.199 152.591C178.046 152.358 177.837 152.174 177.573 152.041C177.309 151.907 177.006 151.841 176.665 151.841C176.322 151.841 176.016 151.907 175.749 152.041C175.482 152.174 175.272 152.358 175.118 152.591C174.965 152.824 174.89 153.092 174.893 153.396C174.89 153.689 174.959 153.944 175.101 154.163C175.246 154.379 175.452 154.548 175.719 154.67C175.986 154.789 176.302 154.849 176.665 154.849ZM176.665 150.788C176.955 150.788 177.212 150.73 177.437 150.613C177.661 150.497 177.837 150.335 177.965 150.128C178.096 149.92 178.162 149.677 178.165 149.399C178.162 149.126 178.097 148.887 177.969 148.683C177.844 148.478 177.67 148.321 177.445 148.21C177.221 148.096 176.961 148.039 176.665 148.039C176.364 148.039 176.1 148.096 175.873 148.21C175.648 148.321 175.474 148.478 175.349 148.683C175.224 148.887 175.162 149.126 175.165 149.399C175.162 149.677 175.225 149.92 175.353 150.128C175.481 150.335 175.657 150.497 175.881 150.613C176.108 150.73 176.37 150.788 176.665 150.788ZM181.897 155.889C181.664 155.889 181.464 155.807 181.296 155.642C181.129 155.474 181.045 155.272 181.045 155.037C181.045 154.804 181.129 154.605 181.296 154.44C181.464 154.272 181.664 154.189 181.897 154.189C182.13 154.189 182.33 154.272 182.498 154.44C182.666 154.605 182.749 154.804 182.749 155.037C182.749 155.193 182.71 155.336 182.63 155.467C182.553 155.595 182.451 155.697 182.323 155.774C182.195 155.851 182.053 155.889 181.897 155.889ZM187.236 146.961C187.625 146.964 188.008 147.035 188.386 147.174C188.764 147.314 189.105 147.541 189.409 147.856C189.716 148.172 189.96 148.598 190.142 149.135C190.327 149.669 190.42 150.334 190.423 151.129C190.423 151.893 190.346 152.574 190.193 153.17C190.04 153.764 189.819 154.265 189.532 154.674C189.248 155.084 188.903 155.395 188.497 155.608C188.091 155.821 187.633 155.927 187.125 155.927C186.605 155.927 186.143 155.825 185.74 155.62C185.336 155.416 185.008 155.133 184.756 154.772C184.503 154.409 184.345 153.991 184.282 153.52H185.582C185.667 153.895 185.841 154.199 186.102 154.432C186.366 154.662 186.707 154.777 187.125 154.777C187.764 154.777 188.263 154.498 188.621 153.941C188.979 153.382 189.159 152.601 189.162 151.598H189.094C188.946 151.842 188.761 152.052 188.54 152.228C188.321 152.405 188.075 152.541 187.802 152.637C187.53 152.734 187.238 152.782 186.929 152.782C186.426 152.782 185.969 152.659 185.557 152.412C185.145 152.164 184.817 151.825 184.572 151.393C184.328 150.961 184.206 150.468 184.206 149.914C184.206 149.363 184.331 148.863 184.581 148.414C184.834 147.966 185.186 147.611 185.638 147.349C186.092 147.085 186.625 146.956 187.236 146.961ZM187.24 148.069C186.907 148.069 186.608 148.152 186.341 148.316C186.077 148.478 185.868 148.699 185.714 148.977C185.561 149.253 185.484 149.559 185.484 149.897C185.484 150.236 185.558 150.542 185.706 150.818C185.856 151.091 186.061 151.308 186.319 151.47C186.581 151.629 186.879 151.709 187.214 151.709C187.464 151.709 187.697 151.66 187.913 151.564C188.129 151.467 188.318 151.334 188.48 151.163C188.642 150.99 188.768 150.794 188.859 150.575C188.95 150.356 188.996 150.126 188.996 149.885C188.996 149.564 188.919 149.265 188.765 148.99C188.615 148.714 188.407 148.493 188.143 148.325C187.879 148.155 187.578 148.069 187.24 148.069Z" fill="#4D29EF"/>
<rect x="306" y="186.808" width="32" height="24" rx="12" fill="#4318FF" fill-opacity="0.1"/>
<path d="M318.263 202.927C317.874 202.922 317.491 202.851 317.113 202.714C316.738 202.578 316.397 202.351 316.09 202.032C315.783 201.714 315.537 201.287 315.353 200.75C315.171 200.213 315.08 199.542 315.08 198.738C315.08 197.977 315.155 197.301 315.306 196.71C315.459 196.119 315.68 195.62 315.966 195.214C316.253 194.805 316.6 194.494 317.006 194.281C317.412 194.068 317.868 193.961 318.374 193.961C318.894 193.961 319.356 194.064 319.759 194.268C320.162 194.473 320.489 194.755 320.739 195.116C320.992 195.477 321.153 195.887 321.221 196.348H319.921C319.833 195.984 319.658 195.687 319.397 195.457C319.135 195.227 318.795 195.112 318.374 195.112C317.735 195.112 317.236 195.39 316.878 195.947C316.523 196.504 316.344 197.278 316.341 198.27H316.405C316.556 198.022 316.741 197.812 316.959 197.639C317.181 197.463 317.428 197.328 317.701 197.234C317.976 197.137 318.266 197.089 318.57 197.089C319.076 197.089 319.533 197.213 319.942 197.46C320.354 197.704 320.682 198.042 320.927 198.474C321.171 198.906 321.293 199.4 321.293 199.957C321.293 200.514 321.167 201.018 320.914 201.47C320.664 201.922 320.312 202.28 319.857 202.544C319.403 202.805 318.871 202.933 318.263 202.927ZM318.259 201.819C318.594 201.819 318.894 201.737 319.158 201.572C319.422 201.407 319.631 201.186 319.785 200.907C319.938 200.629 320.015 200.318 320.015 199.974C320.015 199.639 319.939 199.334 319.789 199.058C319.641 198.782 319.437 198.564 319.175 198.402C318.917 198.24 318.621 198.159 318.289 198.159C318.036 198.159 317.802 198.207 317.586 198.304C317.373 198.4 317.185 198.534 317.023 198.704C316.861 198.875 316.733 199.071 316.64 199.292C316.549 199.511 316.503 199.743 316.503 199.987C316.503 200.314 316.579 200.616 316.729 200.895C316.883 201.173 317.091 201.397 317.356 201.568C317.623 201.736 317.924 201.819 318.259 201.819ZM323.303 202.889C323.07 202.889 322.87 202.807 322.703 202.642C322.535 202.474 322.451 202.272 322.451 202.037C322.451 201.804 322.535 201.605 322.703 201.44C322.87 201.272 323.07 201.189 323.303 201.189C323.536 201.189 323.737 201.272 323.904 201.44C324.072 201.605 324.156 201.804 324.156 202.037C324.156 202.193 324.116 202.336 324.036 202.467C323.96 202.595 323.857 202.697 323.73 202.774C323.602 202.851 323.46 202.889 323.303 202.889ZM328.102 194.081V202.808H326.781V195.402H326.73L324.642 196.765V195.504L326.819 194.081H328.102Z" fill="#4D29EF"/>
<rect x="445.5" y="149.808" width="33" height="24" rx="12" fill="#4318FF" fill-opacity="0.1"/>
<path d="M455.059 165.808L458.869 158.274V158.21H454.463V157.081H460.233V158.248L456.436 165.808H455.059ZM461.071 165.889C460.838 165.889 460.638 165.807 460.47 165.642C460.303 165.474 460.219 165.272 460.219 165.037C460.219 164.804 460.303 164.605 460.47 164.44C460.638 164.272 460.838 164.189 461.071 164.189C461.304 164.189 461.504 164.272 461.672 164.44C461.839 164.605 461.923 164.804 461.923 165.037C461.923 165.193 461.884 165.336 461.804 165.467C461.727 165.595 461.625 165.697 461.497 165.774C461.369 165.851 461.227 165.889 461.071 165.889ZM466.353 165.927C465.819 165.927 465.339 165.825 464.913 165.62C464.489 165.413 464.151 165.129 463.898 164.768C463.646 164.407 463.511 163.995 463.494 163.532H464.772C464.803 163.907 464.969 164.216 465.271 164.457C465.572 164.699 465.933 164.819 466.353 164.819C466.688 164.819 466.985 164.743 467.244 164.589C467.505 164.433 467.71 164.218 467.857 163.946C468.008 163.673 468.083 163.362 468.083 163.012C468.083 162.657 468.006 162.341 467.853 162.062C467.7 161.784 467.488 161.565 467.218 161.406C466.951 161.247 466.644 161.166 466.298 161.163C466.033 161.163 465.768 161.209 465.501 161.299C465.234 161.39 465.018 161.51 464.853 161.657L463.647 161.478L464.137 157.081H468.935V158.21H465.232L464.955 160.652H465.006C465.177 160.487 465.403 160.349 465.684 160.238C465.968 160.128 466.272 160.072 466.596 160.072C467.127 160.072 467.6 160.199 468.015 160.451C468.433 160.704 468.761 161.049 468.999 161.487C469.241 161.922 469.36 162.422 469.357 162.987C469.36 163.552 469.232 164.057 468.974 164.5C468.718 164.943 468.363 165.292 467.908 165.548C467.457 165.801 466.938 165.927 466.353 165.927Z" fill="#4D29EF"/>
<rect x="577.5" y="174.808" width="35" height="24" rx="12" fill="#4318FF" fill-opacity="0.1"/>
<path d="M589.646 190.927C589.257 190.922 588.873 190.851 588.496 190.714C588.121 190.578 587.78 190.351 587.473 190.032C587.166 189.714 586.92 189.287 586.736 188.75C586.554 188.213 586.463 187.542 586.463 186.738C586.463 185.977 586.538 185.301 586.689 184.71C586.842 184.119 587.062 183.62 587.349 183.214C587.636 182.805 587.983 182.494 588.389 182.281C588.795 182.068 589.251 181.961 589.757 181.961C590.277 181.961 590.738 182.064 591.142 182.268C591.545 182.473 591.872 182.755 592.122 183.116C592.375 183.477 592.535 183.887 592.604 184.348H591.304C591.216 183.984 591.041 183.687 590.78 183.457C590.518 183.227 590.177 183.112 589.757 183.112C589.118 183.112 588.619 183.39 588.261 183.947C587.906 184.504 587.727 185.278 587.724 186.27H587.788C587.939 186.022 588.123 185.812 588.342 185.639C588.564 185.463 588.811 185.328 589.084 185.234C589.359 185.137 589.649 185.089 589.953 185.089C590.459 185.089 590.916 185.213 591.325 185.46C591.737 185.704 592.065 186.042 592.309 186.474C592.554 186.906 592.676 187.4 592.676 187.957C592.676 188.514 592.55 189.018 592.297 189.47C592.047 189.922 591.694 190.28 591.24 190.544C590.785 190.805 590.254 190.933 589.646 190.927ZM589.642 189.819C589.977 189.819 590.277 189.737 590.541 189.572C590.805 189.407 591.014 189.186 591.167 188.907C591.321 188.629 591.398 188.318 591.398 187.974C591.398 187.639 591.322 187.334 591.172 187.058C591.024 186.782 590.819 186.564 590.558 186.402C590.3 186.24 590.004 186.159 589.672 186.159C589.419 186.159 589.184 186.207 588.969 186.304C588.756 186.4 588.568 186.534 588.406 186.704C588.244 186.875 588.116 187.071 588.023 187.292C587.932 187.511 587.886 187.743 587.886 187.987C587.886 188.314 587.961 188.616 588.112 188.895C588.265 189.173 588.474 189.397 588.738 189.568C589.006 189.736 589.307 189.819 589.642 189.819ZM594.686 190.889C594.453 190.889 594.253 190.807 594.085 190.642C593.918 190.474 593.834 190.272 593.834 190.037C593.834 189.804 593.918 189.605 594.085 189.44C594.253 189.272 594.453 189.189 594.686 189.189C594.919 189.189 595.119 189.272 595.287 189.44C595.455 189.605 595.539 189.804 595.539 190.037C595.539 190.193 595.499 190.336 595.419 190.467C595.343 190.595 595.24 190.697 595.112 190.774C594.985 190.851 594.843 190.889 594.686 190.889ZM597.045 189.103V188.038L600.816 182.081H601.656V183.649H601.123L598.426 187.919V187.987H603.595V189.103H597.045ZM601.183 190.808V188.78L601.191 188.294V182.081H602.44V190.808H601.183Z" fill="#4D29EF"/>
<rect x="725.5" y="137.808" width="33" height="24" rx="12" fill="#4318FF" fill-opacity="0.1"/>
<path d="M734.948 153.808L738.758 146.274V146.21H734.351V145.081H740.121V146.248L736.324 153.808H734.948ZM740.96 153.889C740.727 153.889 740.526 153.807 740.359 153.642C740.191 153.474 740.107 153.272 740.107 153.037C740.107 152.804 740.191 152.605 740.359 152.44C740.526 152.272 740.727 152.189 740.96 152.189C741.193 152.189 741.393 152.272 741.561 152.44C741.728 152.605 741.812 152.804 741.812 153.037C741.812 153.193 741.772 153.336 741.693 153.467C741.616 153.595 741.514 153.697 741.386 153.774C741.258 153.851 741.116 153.889 740.96 153.889ZM746.298 144.961C746.687 144.964 747.071 145.035 747.449 145.174C747.827 145.314 748.167 145.541 748.471 145.856C748.778 146.172 749.023 146.598 749.204 147.135C749.389 147.669 749.483 148.334 749.486 149.129C749.486 149.893 749.409 150.574 749.256 151.17C749.102 151.764 748.882 152.265 748.595 152.674C748.311 153.084 747.966 153.395 747.559 153.608C747.153 153.821 746.696 153.927 746.187 153.927C745.667 153.927 745.206 153.825 744.802 153.62C744.399 153.416 744.071 153.133 743.818 152.772C743.565 152.409 743.407 151.991 743.345 151.52H744.645C744.73 151.895 744.903 152.199 745.165 152.432C745.429 152.662 745.77 152.777 746.187 152.777C746.827 152.777 747.325 152.498 747.683 151.941C748.041 151.382 748.221 150.601 748.224 149.598H748.156C748.008 149.842 747.824 150.052 747.602 150.228C747.383 150.405 747.138 150.541 746.865 150.637C746.592 150.734 746.301 150.782 745.991 150.782C745.488 150.782 745.031 150.659 744.619 150.412C744.207 150.164 743.879 149.825 743.635 149.393C743.39 148.961 743.268 148.468 743.268 147.914C743.268 147.363 743.393 146.863 743.643 146.414C743.896 145.966 744.248 145.611 744.7 145.349C745.155 145.085 745.687 144.956 746.298 144.961ZM746.302 146.069C745.97 146.069 745.67 146.152 745.403 146.316C745.139 146.478 744.93 146.699 744.777 146.977C744.623 147.253 744.547 147.559 744.547 147.897C744.547 148.236 744.621 148.542 744.768 148.818C744.919 149.091 745.123 149.308 745.382 149.47C745.643 149.629 745.942 149.709 746.277 149.709C746.527 149.709 746.76 149.66 746.976 149.564C747.192 149.467 747.381 149.334 747.542 149.163C747.704 148.99 747.831 148.794 747.922 148.575C748.013 148.356 748.058 148.126 748.058 147.885C748.058 147.564 747.981 147.265 747.828 146.99C747.677 146.714 747.47 146.493 747.206 146.325C746.942 146.155 746.64 146.069 746.302 146.069Z" fill="#4D29EF"/>
</g>
<defs>
<linearGradient id="paint0_linear_18_5009" x1="373.137" y1="143.308" x2="373.137" y2="325.386" gradientUnits="userSpaceOnUse">
<stop stop-color="#E9E3FF"/>
<stop offset="0.72165" stop-color="#E9E3FF" stop-opacity="0"/>
</linearGradient>
<clipPath id="clip0_18_5009">
<rect y="0.807953" width="761" height="324" rx="20" fill="white"/>
</clipPath>
<clipPath id="clip1_18_5009">
<rect width="24" height="24" fill="white" transform="translate(713 24.808)"/>
</clipPath>
</defs>
</svg>
