<svg width="268" height="136" viewBox="0 0 268 136" fill="none" xmlns="http://www.w3.org/2000/svg">
<g filter="url(#filter0_f_20_2314)">
<ellipse cx="199.602" cy="66.1676" rx="13.6623" ry="11.5051" transform="rotate(1.07834 199.602 66.1676)" fill="#EA973D"/>
</g>
<path d="M111.951 39.5793C116.115 39.6166 120.248 39.953 124.32 40.5774L124.263 40.9631C124.772 41.0412 125.281 41.124 125.788 41.2112L125.854 40.8274C129.944 41.5296 133.97 42.5221 137.903 43.7942L137.784 44.1653C138.274 44.3238 138.764 44.4873 139.251 44.6545L139.376 44.2864C143.29 45.6294 147.107 47.2491 150.8 49.136L150.623 49.4836C151.082 49.718 151.538 49.9569 151.993 50.1994L152.176 49.8557C155.816 51.7976 159.329 54.0005 162.688 56.4534L162.458 56.7678C162.874 57.0715 163.287 57.3793 163.698 57.6907L163.934 57.3791C167.212 59.8628 170.336 62.5889 173.279 65.5452L173.004 65.8205C173.186 66.0031 173.367 66.187 173.547 66.3713C173.73 66.5581 173.912 66.7455 174.093 66.9338L174.373 66.6633C177.296 69.7034 179.988 72.9326 182.438 76.3225L182.123 76.551C182.429 76.9745 182.732 77.4008 183.03 77.8293L183.35 77.6067C185.753 81.0569 187.912 84.6652 189.812 88.4045V88.4055L189.464 88.5823C189.7 89.0481 189.933 89.5167 190.161 89.9866L190.511 89.8157C192.346 93.5881 193.921 97.4869 195.226 101.484H195.227L194.855 101.605C195.017 102.101 195.176 102.599 195.329 103.099L195.701 102.985C196.931 106.985 197.89 111.079 198.568 115.238L198.186 115.3C198.27 115.816 198.349 116.332 198.425 116.85L198.811 116.793C199.412 120.925 199.736 125.117 199.771 129.341L199.383 129.344C199.385 129.605 199.387 129.868 199.387 130.129H198.668C198.668 129.87 198.667 129.61 198.665 129.351L198.274 129.355H198.272C198.237 125.202 197.92 121.08 197.328 117.018L197.715 116.963C197.64 116.45 197.561 115.938 197.478 115.427L197.092 115.489H197.091C196.424 111.401 195.48 107.377 194.271 103.444H194.272L194.646 103.328C194.493 102.833 194.336 102.339 194.176 101.847L193.805 101.968H193.803C192.521 98.0389 190.972 94.206 189.168 90.4973H189.17L189.521 90.3264C189.295 89.8605 189.064 89.3967 188.829 88.9348L188.48 89.1116C186.613 85.4351 184.491 81.8874 182.128 78.4953H182.13L182.45 78.2717C182.154 77.8468 181.854 77.4242 181.551 77.0041L181.233 77.2327C178.824 73.9001 176.177 70.7262 173.304 67.7375H173.305L173.586 67.467C173.406 67.2802 173.226 67.0938 173.045 66.9084L172.506 66.3625L172.229 66.6379L172.228 66.6389C169.334 63.7327 166.264 61.0522 163.041 58.6106L163.277 58.2991C162.87 57.9902 162.459 57.6853 162.047 57.384L161.816 57.6994L161.815 57.7004C158.514 55.2892 155.061 53.123 151.482 51.2141L151.483 51.2131L151.667 50.8684C151.216 50.6278 150.763 50.3919 150.308 50.1594L150.13 50.5061L150.129 50.5071C146.499 48.6522 142.747 47.0588 138.899 45.7385L138.9 45.7375L139.027 45.3684C138.544 45.2025 138.059 45.0413 137.572 44.884L137.452 45.2541C133.585 44.0034 129.626 43.0285 125.604 42.3381L125.605 42.3371L125.672 41.9524C125.168 41.8659 124.664 41.7838 124.158 41.7063L124.1 42.093H124.099C120.095 41.4791 116.032 41.1481 111.938 41.1116L111.938 41.1106L111.942 40.7209C111.687 40.7186 111.431 40.717 111.175 40.717C110.919 40.717 110.664 40.7186 110.408 40.7209L110.411 41.1106V41.1116C106.317 41.1482 102.255 41.4791 98.251 42.093L98.1914 41.7063C97.686 41.7838 97.1812 41.8659 96.6777 41.9524L96.7441 42.3371V42.3381C92.7229 43.0286 88.7646 44.0044 84.8975 45.2551L84.7773 44.884C84.2912 45.0412 83.8065 45.2026 83.3232 45.3684L83.4502 45.7375V45.7385C79.6028 47.0589 75.8499 48.652 72.2197 50.5071V50.5061L72.042 50.1594C71.5873 50.3918 71.1344 50.6279 70.6836 50.8684L70.8672 51.2131V51.2141C67.2887 53.1232 63.8349 55.289 60.5332 57.7004V57.6994L60.3027 57.384C59.8903 57.6852 59.4799 57.9902 59.0723 58.2991L59.3086 58.6106C56.0855 61.0522 53.0143 63.7318 50.1211 66.6379L49.8438 66.3625L49.3047 66.9084C49.1234 67.0937 48.9432 67.2803 48.7637 67.467L49.0449 67.7375C46.1718 70.726 43.525 73.9003 41.1162 77.2327L40.7998 77.0041C40.4962 77.4241 40.1964 77.8468 39.9004 78.2717L40.2207 78.4953C37.8576 81.8873 35.7364 85.4353 33.8691 89.1116L33.5205 88.9348C33.2859 89.3966 33.0557 89.8606 32.8291 90.3264L33.1797 90.4973H33.1807C31.3767 94.2059 29.828 98.0389 28.5459 101.968H28.5449L28.1738 101.847C28.0132 102.339 27.8573 102.833 27.7051 103.328L28.0781 103.444H28.0791C26.8698 107.377 25.9257 111.401 25.2588 115.489H25.2578L24.873 115.427C24.7897 115.938 24.7105 116.45 24.6357 116.963L25.0215 117.019C24.4297 121.081 24.1115 125.202 24.0762 129.355H24.0752L23.6855 129.351C23.6833 129.61 23.6816 129.87 23.6816 130.129H22.9639C22.9639 129.868 22.9646 129.605 22.9668 129.344L22.5771 129.341C22.6131 125.117 22.9361 120.924 23.5381 116.792L23.5391 116.793L23.9248 116.85C24.0002 116.332 24.08 115.816 24.1641 115.3L23.7803 115.238C24.4586 111.079 25.4174 106.985 26.6475 102.985L27.0205 103.099C27.1741 102.599 27.3321 102.101 27.4941 101.605L27.124 101.484C28.4281 97.4871 30.0029 93.588 31.8379 89.8157L32.1885 89.9866C32.417 89.5167 32.6501 89.0481 32.8867 88.5823L32.5381 88.4055C34.4375 84.6659 36.5962 81.0571 39 77.6067L39.3193 77.8293C39.6179 77.4008 39.9204 76.9746 40.2266 76.551L39.9102 76.3225C42.3605 72.9326 45.0538 69.7043 47.9766 66.6643L48.2568 66.9338L48.8027 66.3713C48.9832 66.1869 49.1649 66.0032 49.3467 65.8205L49.0703 65.5452C51.7655 62.8379 54.6123 60.3237 57.5908 58.0119L58.416 57.3791L58.6514 57.6907C59.0624 57.3793 59.4758 57.0715 59.8916 56.7678L59.6621 56.4534C63.0204 54.0007 66.5331 51.7975 70.1729 49.8557L70.3574 50.1994C70.812 49.957 71.2681 49.7179 71.7266 49.4836L71.5498 49.136C75.2421 47.2492 79.0594 45.6294 82.9727 44.2864L83.0996 44.6545C83.5868 44.4873 84.0753 44.3238 84.5654 44.1653L84.4453 43.7942C88.3791 42.5219 92.4056 41.5297 96.4961 40.8274L96.5615 41.2112C97.0692 41.124 97.5783 41.0413 98.0879 40.9631L98.0283 40.5774C102.101 39.9529 106.234 39.6166 110.398 39.5793L110.401 39.969C110.659 39.9667 110.917 39.966 111.175 39.966C111.433 39.966 111.691 39.9667 111.948 39.969L111.951 39.5793Z" stroke="#7A7A7A" stroke-width="0.780632" stroke-dasharray="1.56 12.49"/>
<path d="M7.17304 135.609C3.73102 135.829 0.743711 133.215 0.718324 129.766C0.519127 102.704 10.2708 76.4229 28.2427 55.9953C46.2146 35.5677 71.0394 22.5477 97.9068 19.298C101.331 18.8838 104.304 21.5139 104.524 24.9559L104.539 25.1933C104.759 28.6353 102.142 31.5836 98.7215 32.0229C75.2245 35.0407 53.5405 46.51 37.7989 64.4026C22.0572 82.2952 13.4435 105.264 13.4434 128.954C13.4434 132.403 10.8525 135.374 7.41048 135.594L7.17304 135.609Z" fill="#D76B66"/>
<path d="M106.762 24.8369C106.616 21.3909 109.293 18.4605 112.742 18.5094C133.669 18.8059 154.087 25.0443 171.606 36.4949C174.493 38.3819 175.075 42.3081 173.028 45.0839L172.887 45.2754C170.84 48.0513 166.94 48.6236 164.039 46.7579C148.876 37.0056 131.305 31.6371 113.281 31.249C109.832 31.1747 106.918 28.5205 106.772 25.0746L106.762 24.8369Z" fill="#F6CF7D"/>
<path d="M175.009 46.5812C177.121 43.8549 181.057 43.3442 183.66 45.6075C193.553 54.2109 201.836 64.5075 208.12 76.0141C209.773 79.0411 208.431 82.7762 205.315 84.2556L205.1 84.3577C201.985 85.8371 198.277 84.4992 196.602 81.4844C191.202 71.7674 184.183 63.0424 175.849 55.6861C173.263 53.4037 172.75 49.4956 174.863 46.7692L175.009 46.5812Z" fill="#EA973D"/>
<path d="M205.769 85.2246C208.9 83.7772 212.629 85.1363 213.897 88.3437C219.111 101.532 221.738 115.603 221.631 129.784C221.606 133.233 218.618 135.846 215.176 135.625L214.938 135.61C211.496 135.389 208.906 132.419 208.906 128.97C208.908 116.906 206.676 104.945 202.323 93.6937C201.078 90.477 202.423 86.7719 205.553 85.3245L205.769 85.2246Z" fill="#75C57F"/>
<circle cx="194.312" cy="66.1169" r="7.80632" fill="#F9F9F9" stroke="#EA973D" stroke-width="6.24506"/>
<path d="M99.4014 126.263C98.0974 126.254 96.8244 126.028 95.5825 125.584C94.3406 125.132 93.2229 124.4 92.2293 123.389C91.2358 122.368 90.4463 121.016 89.8608 119.33C89.2754 117.636 88.9871 115.538 88.9959 113.036C88.9959 110.703 89.2443 108.623 89.7411 106.796C90.2378 104.968 90.952 103.425 91.8834 102.165C92.8148 100.897 93.937 99.9298 95.2499 99.2644C96.5716 98.5991 98.0486 98.2665 99.6808 98.2665C101.393 98.2665 102.91 98.6036 104.232 99.2777C105.562 99.9519 106.636 100.874 107.452 102.045C108.268 103.208 108.773 104.52 108.969 105.984H104.112C103.863 104.937 103.353 104.103 102.582 103.483C101.819 102.853 100.852 102.538 99.6808 102.538C97.7914 102.538 96.3365 103.358 95.3164 104.999C94.3051 106.641 93.795 108.894 93.7862 111.759H93.9725C94.4071 110.978 94.9704 110.309 95.6624 109.75C96.3543 109.191 97.1349 108.761 98.0043 108.459C98.8825 108.149 99.8095 107.993 100.785 107.993C102.382 107.993 103.815 108.375 105.083 109.138C106.361 109.901 107.372 110.952 108.117 112.291C108.862 113.622 109.23 115.148 109.221 116.869C109.23 118.66 108.822 120.271 107.997 121.699C107.172 123.118 106.023 124.236 104.551 125.052C103.078 125.868 101.362 126.272 99.4014 126.263ZM99.3748 122.271C100.342 122.271 101.207 122.036 101.97 121.566C102.732 121.096 103.336 120.461 103.779 119.663C104.223 118.865 104.44 117.969 104.431 116.975C104.44 115.999 104.227 115.117 103.792 114.327C103.367 113.538 102.777 112.912 102.023 112.451C101.269 111.99 100.408 111.759 99.4413 111.759C98.7228 111.759 98.053 111.896 97.4321 112.171C96.8111 112.446 96.27 112.828 95.8087 113.316C95.3474 113.795 94.9837 114.354 94.7176 114.992C94.4604 115.622 94.3273 116.296 94.3184 117.015C94.3273 117.964 94.5491 118.838 94.9837 119.636C95.4184 120.435 96.0172 121.073 96.7801 121.552C97.543 122.031 98.4079 122.271 99.3748 122.271ZM122.137 126.263C120.833 126.254 119.56 126.028 118.318 125.584C117.077 125.132 115.959 124.4 114.965 123.389C113.972 122.368 113.182 121.016 112.597 119.33C112.011 117.636 111.723 115.538 111.732 113.036C111.732 110.703 111.98 108.623 112.477 106.796C112.974 104.968 113.688 103.425 114.619 102.165C115.551 100.897 116.673 99.9298 117.986 99.2644C119.308 98.5991 120.785 98.2665 122.417 98.2665C124.129 98.2665 125.646 98.6036 126.967 99.2777C128.298 99.9519 129.371 100.874 130.188 102.045C131.004 103.208 131.509 104.52 131.705 105.984H126.848C126.599 104.937 126.089 104.103 125.318 103.483C124.555 102.853 123.588 102.538 122.417 102.538C120.527 102.538 119.072 103.358 118.052 104.999C117.041 106.641 116.531 108.894 116.522 111.759H116.708C117.143 110.978 117.706 110.309 118.398 109.75C119.09 109.191 119.871 108.761 120.74 108.459C121.618 108.149 122.545 107.993 123.521 107.993C125.118 107.993 126.551 108.375 127.819 109.138C129.096 109.901 130.108 110.952 130.853 112.291C131.598 113.622 131.966 115.148 131.957 116.869C131.966 118.66 131.558 120.271 130.733 121.699C129.908 123.118 128.759 124.236 127.287 125.052C125.814 125.868 124.098 126.272 122.137 126.263ZM122.111 122.271C123.078 122.271 123.943 122.036 124.705 121.566C125.468 121.096 126.072 120.461 126.515 119.663C126.959 118.865 127.176 117.969 127.167 116.975C127.176 115.999 126.963 115.117 126.528 114.327C126.103 113.538 125.513 112.912 124.759 112.451C124.005 111.99 123.144 111.759 122.177 111.759C121.459 111.759 120.789 111.896 120.168 112.171C119.547 112.446 119.006 112.828 118.545 113.316C118.083 113.795 117.72 114.354 117.454 114.992C117.196 115.622 117.063 116.296 117.054 117.015C117.063 117.964 117.285 118.838 117.72 119.636C118.154 120.435 118.753 121.073 119.516 121.552C120.279 122.031 121.144 122.271 122.111 122.271Z" fill="#242424"/>
<defs>
<filter id="filter0_f_20_2314" x="131.296" y="0.0173645" width="136.612" height="132.3" filterUnits="userSpaceOnUse" color-interpolation-filters="sRGB">
<feFlood flood-opacity="0" result="BackgroundImageFix"/>
<feBlend mode="normal" in="SourceGraphic" in2="BackgroundImageFix" result="shape"/>
<feGaussianBlur stdDeviation="27.3221" result="effect1_foregroundBlur_20_2314"/>
</filter>
</defs>
</svg>
