<svg width="29" height="21" viewBox="0 0 29 21" fill="none" xmlns="http://www.w3.org/2000/svg">
<path d="M5.5755 1.28389C9.37641 1.09463 12.3325 1 14.4445 1C16.5565 1 19.514 1.09463 23.317 1.28457C24.3121 1.33424 25.2555 1.74336 25.9718 2.43597C26.6881 3.12857 27.1287 4.05759 27.2118 5.05051C27.386 7.13097 27.4731 8.9632 27.4731 10.5479C27.4731 12.1518 27.384 14.0094 27.2057 16.1214C27.1229 17.1029 26.6907 18.0221 25.9877 18.7121C25.2847 19.402 24.3575 19.8168 23.3746 19.8811C20.1236 20.0937 17.1469 20.2 14.4445 20.2C11.7428 20.2 8.76681 20.0937 5.5179 19.8811C4.53532 19.8169 3.60837 19.4024 2.90539 18.7129C2.20242 18.0233 1.77005 17.1046 1.68681 16.1234C1.50647 13.9957 1.41595 12.1367 1.41595 10.5479C1.41595 8.9776 1.50441 7.14469 1.67995 5.04846C1.76339 4.05578 2.20416 3.12709 2.92044 2.43477C3.63673 1.74244 4.57987 1.33351 5.57481 1.28389H5.5755Z" stroke="black" stroke-opacity="0.7" stroke-width="1.6" stroke-linejoin="round"/>
<path d="M12.3888 7.58975V13.6213C12.3887 13.7275 12.4175 13.8318 12.4719 13.9229C12.5264 14.0141 12.6046 14.0888 12.6982 14.1391C12.7917 14.1894 12.8972 14.2134 13.0033 14.2086C13.1094 14.2037 13.2122 14.1702 13.3008 14.1116L17.8244 11.1219C17.9053 11.0686 17.9717 10.9961 18.0178 10.9109C18.0639 10.8258 18.0882 10.7305 18.0886 10.6337C18.089 10.5369 18.0655 10.4414 18.0201 10.3559C17.9747 10.2703 17.9089 10.1973 17.8285 10.1433L13.3042 7.10152C13.2158 7.0421 13.1129 7.00783 13.0065 7.00239C12.9001 6.99694 12.7942 7.02052 12.7002 7.07059C12.6062 7.12067 12.5275 7.19537 12.4727 7.28669C12.4178 7.37801 12.3888 7.48253 12.3888 7.58906V7.58975Z" stroke="black" stroke-opacity="0.7" stroke-width="1.6" stroke-linejoin="round"/>
</svg>
