<svg width="81" height="22" viewBox="0 0 81 22" fill="none" xmlns="http://www.w3.org/2000/svg">
<path d="M2.72443 6.0972L5.18537 13.833H5.27983L7.74574 6.0972H10.1321L6.62216 16.279H3.84801L0.333097 6.0972H2.72443ZM11.3178 16.279V8.64266H13.4357V16.279H11.3178ZM12.3817 7.65828C12.0669 7.65828 11.7968 7.55388 11.5714 7.34507C11.3493 7.13295 11.2383 6.8794 11.2383 6.58442C11.2383 6.29275 11.3493 6.04252 11.5714 5.83371C11.7968 5.62159 12.0669 5.51553 12.3817 5.51553C12.6966 5.51553 12.9651 5.62159 13.1871 5.83371C13.4125 6.04252 13.5252 6.29275 13.5252 6.58442C13.5252 6.8794 13.4125 7.13295 13.1871 7.34507C12.9651 7.55388 12.6966 7.65828 12.3817 7.65828ZM18.6124 16.4282C17.8269 16.4282 17.1507 16.2691 16.584 15.9509C16.0205 15.6294 15.5864 15.1753 15.2814 14.5887C14.9765 13.9987 14.824 13.301 14.824 12.4956C14.824 11.7101 14.9765 11.0207 15.2814 10.4275C15.5864 9.83418 16.0156 9.37183 16.5691 9.04039C17.1259 8.70895 17.7788 8.54323 18.5279 8.54323C19.0317 8.54323 19.5007 8.62443 19.9348 8.78683C20.3723 8.94593 20.7535 9.18622 21.0783 9.50772C21.4064 9.82921 21.6616 10.2336 21.8439 10.7208C22.0262 11.2047 22.1174 11.7714 22.1174 12.4211V13.0027H15.6692V11.6902H20.1238C20.1238 11.3853 20.0575 11.1152 19.9249 10.8799C19.7923 10.6446 19.6084 10.4606 19.373 10.328C19.141 10.1921 18.8709 10.1242 18.5627 10.1242C18.2412 10.1242 17.9561 10.1988 17.7076 10.3479C17.4623 10.4937 17.2701 10.691 17.1309 10.9395C16.9917 11.1848 16.9204 11.4582 16.9171 11.7598V13.0077C16.9171 13.3856 16.9867 13.712 17.1259 13.9871C17.2684 14.2622 17.4689 14.4743 17.7275 14.6235C17.986 14.7726 18.2926 14.8472 18.6472 14.8472C18.8825 14.8472 19.098 14.8141 19.2935 14.7478C19.4891 14.6815 19.6564 14.5821 19.7956 14.4495C19.9348 14.3169 20.0409 14.1545 20.1138 13.9623L22.0726 14.0915C21.9732 14.5622 21.7694 14.9732 21.4611 15.3245C21.1562 15.6725 20.7618 15.9443 20.2779 16.1398C19.7973 16.3321 19.2421 16.4282 18.6124 16.4282ZM24.9512 16.279L22.873 8.64266H25.0158L26.199 13.7733H26.2686L27.5016 8.64266H29.6046L30.8574 13.7435H30.9221L32.0854 8.64266H34.2232L32.15 16.279H29.9078L28.5953 11.4765H28.5009L27.1884 16.279H24.9512ZM40.7708 16.4232C40.2836 16.4232 39.8494 16.3387 39.4682 16.1696C39.0871 15.9973 38.7855 15.7437 38.5634 15.409C38.3446 15.0709 38.2353 14.65 38.2353 14.1462C38.2353 13.722 38.3132 13.3657 38.4689 13.0773C38.6247 12.789 38.8368 12.557 39.1053 12.3813C39.3738 12.2056 39.6787 12.0731 40.0201 11.9836C40.3648 11.8941 40.726 11.8311 41.1039 11.7946C41.548 11.7482 41.906 11.7052 42.1777 11.6654C42.4495 11.6223 42.6467 11.5593 42.7694 11.4765C42.892 11.3936 42.9533 11.271 42.9533 11.1086V11.0787C42.9533 10.7639 42.8539 10.5203 42.655 10.3479C42.4595 10.1756 42.181 10.0894 41.8198 10.0894C41.4386 10.0894 41.1354 10.1739 40.91 10.3429C40.6846 10.5087 40.5355 10.7175 40.4625 10.9694L38.5037 10.8103C38.6032 10.3463 38.7987 9.94522 39.0904 9.60715C39.382 9.26576 39.7582 9.00393 40.2189 8.82164C40.6829 8.63603 41.2199 8.54323 41.8297 8.54323C42.254 8.54323 42.66 8.59294 43.0478 8.69237C43.4389 8.79181 43.7852 8.94593 44.0868 9.15473C44.3917 9.36354 44.632 9.63201 44.8077 9.96013C44.9834 10.2849 45.0712 10.6744 45.0712 11.1285V16.279H43.0627V15.2201H43.003C42.8804 15.4587 42.7163 15.6692 42.5108 15.8515C42.3053 16.0304 42.0584 16.1713 41.7701 16.2741C41.4817 16.3735 41.1486 16.4232 40.7708 16.4232ZM41.3773 14.9616C41.6889 14.9616 41.964 14.9002 42.2026 14.7776C42.4412 14.6517 42.6285 14.4826 42.7644 14.2705C42.9003 14.0584 42.9682 13.8181 42.9682 13.5496V12.7392C42.9019 12.7823 42.8108 12.8221 42.6948 12.8586C42.5821 12.8917 42.4545 12.9232 42.312 12.953C42.1694 12.9795 42.0269 13.0044 41.8844 13.0276C41.7419 13.0475 41.6126 13.0657 41.4966 13.0823C41.248 13.1187 41.031 13.1767 40.8453 13.2563C40.6597 13.3358 40.5156 13.4436 40.4128 13.5794C40.3101 13.712 40.2587 13.8777 40.2587 14.0766C40.2587 14.365 40.3631 14.5854 40.5719 14.7378C40.784 14.887 41.0525 14.9616 41.3773 14.9616ZM48.8322 6.0972V16.279H46.7143V6.0972H48.8322ZM52.6467 6.0972V16.279H50.5288V6.0972H52.6467Z" fill="#4318FF"/>
<path d="M61.8965 12.1564L74.3295 12.1564L71.1883 15.3063L72.4255 16.5435L77.6899 11.279L72.4255 6.01454L71.1883 7.25169L74.3295 10.4016L61.8965 10.4016L61.8965 12.1564Z" fill="#4318FF"/>
</svg>
