<svg width="23" height="23" viewBox="0 0 23 23" fill="none" xmlns="http://www.w3.org/2000/svg">
<path d="M11.7 1.44556C6.17701 1.44556 1.70001 5.92256 1.70001 11.4456C1.70001 16.9686 6.17701 21.4456 11.7 21.4456C17.223 21.4456 21.7 16.9686 21.7 11.4456C21.7 5.92256 17.223 1.44556 11.7 1.44556Z" stroke="black" stroke-width="1.5" stroke-linecap="round" stroke-linejoin="round"/>
<path d="M7.70001 20.6136V13.4456L11.7 6.44556L15.7 13.4456V20.6136" stroke="black" stroke-width="1.5" stroke-linecap="round" stroke-linejoin="round"/>
<path d="M7.70001 13.4456C7.70001 13.4456 8.82701 14.4456 9.70001 14.4456C10.573 14.4456 11.7 13.4456 11.7 13.4456C11.7 13.4456 12.827 14.4456 13.7 14.4456C14.573 14.4456 15.7 13.4456 15.7 13.4456" stroke="black" stroke-width="1.5" stroke-linecap="round" stroke-linejoin="round"/>
</svg>
