<svg width="23" height="23" viewBox="0 0 23 23" fill="none" xmlns="http://www.w3.org/2000/svg">
<path d="M21.7 11.4456C21.7 14.0977 20.6464 16.6413 18.7711 18.5166C16.8957 20.392 14.3522 21.4456 11.7 21.4456C9.04785 21.4456 6.50431 20.392 4.62894 18.5166C2.75358 16.6413 1.70001 14.0977 1.70001 11.4456M21.7 11.4456C21.7 8.79339 20.6464 6.24985 18.7711 4.37449C16.8957 2.49913 14.3522 1.44556 11.7 1.44556C9.04785 1.44556 6.50431 2.49913 4.62894 4.37449C2.75358 6.24985 1.70001 8.79339 1.70001 11.4456M21.7 11.4456H1.70001" stroke="black" stroke-width="1.6" stroke-linecap="round" stroke-linejoin="round"/>
<path d="M15.5462 11.4456C15.3572 15.1025 14.0103 18.6046 11.7 21.4456C9.38973 18.6046 8.04277 15.1025 7.85385 11.4456C8.04277 7.78865 9.38973 4.28656 11.7 1.44556C14.0103 4.28656 15.3572 7.78865 15.5462 11.4456Z" stroke="black" stroke-width="1.6" stroke-linecap="round" stroke-linejoin="round"/>
</svg>
