<svg width="16" height="15" viewBox="0 0 16 15" fill="none" xmlns="http://www.w3.org/2000/svg">
<path d="M13.0908 0.714905V2.38776H12.2432V1.56256H1.8125V10.8262H9.74121V11.6739H0.964844V0.714905H13.0908ZM12.2773 3.04791C12.6992 3.04791 13.1041 3.21642 13.4023 3.51471C13.7004 3.81293 13.8681 4.21707 13.8682 4.63873C13.8682 5.06057 13.7006 5.46545 13.4023 5.76373C13.1041 6.06197 12.6991 6.22955 12.2773 6.22955C11.8557 6.22946 11.4515 6.0618 11.1533 5.76373C10.855 5.46545 10.6875 5.06057 10.6875 4.63873C10.6875 4.217 10.8551 3.81294 11.1533 3.51471C11.4515 3.21651 11.8556 3.048 12.2773 3.04791ZM12.2773 3.89655C12.0807 3.89664 11.8921 3.97438 11.7529 4.11334C11.6137 4.2526 11.5352 4.4418 11.5352 4.63873C11.5352 4.83573 11.6136 5.02483 11.7529 5.16412C11.8921 5.3032 12.0806 5.38181 12.2773 5.3819C12.4743 5.3819 12.6634 5.30337 12.8027 5.16412C12.942 5.02483 13.0205 4.83573 13.0205 4.63873C13.0205 4.4418 12.942 4.2526 12.8027 4.11334C12.6635 3.97421 12.4742 3.89655 12.2773 3.89655Z" fill="#4270C3" stroke="#4270C3" stroke-width="0.07"/>
<path d="M12.7625 6.54822C13.3397 6.54831 13.8784 6.74485 14.2937 7.13708C14.693 7.51424 14.9005 7.99736 14.9851 8.45349C15.1176 9.16769 14.9808 9.9462 14.6462 10.6361V13.7777C14.6463 14.0305 14.5508 14.2744 14.3796 14.4603C14.2086 14.646 13.974 14.7607 13.7224 14.7816C13.4706 14.8025 13.2197 14.7279 13.0203 14.5726C12.8209 14.4174 12.6869 14.1929 12.6453 13.9437L12.4724 12.9027L12.2996 13.9437C12.258 14.1929 12.1239 14.4174 11.9246 14.5726C11.7251 14.7279 11.4743 14.8025 11.2224 14.7816C10.9706 14.7607 10.7354 14.6462 10.5642 14.4603C10.393 14.2744 10.2986 14.0304 10.2986 13.7777V10.1752C10.1288 10.2625 9.94127 10.3109 9.74976 10.3109H7.76636C7.44787 10.3109 7.14206 10.1844 6.91675 9.95935C6.69139 9.734 6.56421 9.42746 6.56421 9.10876C6.56432 8.79022 6.69149 8.48441 6.91675 8.25916C7.14207 8.03404 7.44784 7.90759 7.76636 7.90759H9.26831L10.3455 6.88123L10.4324 6.80505C10.6431 6.63942 10.9044 6.54836 11.1746 6.54822H12.7625ZM11.1746 7.39587C11.1063 7.39596 11.0399 7.41612 10.9832 7.45251L10.9304 7.49353L9.7312 8.63806C9.65243 8.71331 9.54717 8.75516 9.43823 8.75525H7.76636C7.6725 8.75525 7.58175 8.7924 7.51538 8.85876C7.44918 8.92502 7.41198 9.01511 7.41187 9.10876C7.41187 9.2026 7.44904 9.29338 7.51538 9.35974C7.58175 9.42611 7.6725 9.46326 7.76636 9.46326H9.74976C9.84072 9.46318 9.92813 9.42747 9.9939 9.36462L10.4294 8.94958C10.4895 8.89233 10.5656 8.85396 10.6472 8.83923C10.7288 8.82454 10.8132 8.83391 10.8894 8.86658C10.9655 8.8992 11.0303 8.95373 11.0759 9.02283C11.1215 9.092 11.1462 9.17337 11.1462 9.25623V13.7777L11.157 13.8353C11.1641 13.8536 11.1748 13.8705 11.1882 13.8851C11.2153 13.9145 11.2529 13.9326 11.2927 13.9359C11.3325 13.9392 11.3716 13.9272 11.4031 13.9027C11.4345 13.8783 11.4559 13.8433 11.4626 13.8041L11.8689 11.3715C11.8853 11.2726 11.936 11.1824 12.0125 11.1176C12.089 11.0527 12.1865 11.017 12.2869 11.017H12.658C12.7583 11.017 12.8558 11.0527 12.9324 11.1176C13.0087 11.1824 13.0595 11.2726 13.0759 11.3715L13.4822 13.8041C13.4889 13.8431 13.5096 13.8783 13.5408 13.9027C13.5723 13.9272 13.6123 13.9392 13.6521 13.9359C13.6919 13.9326 13.7295 13.9145 13.7566 13.8851C13.7835 13.8558 13.7985 13.8175 13.7986 13.7777V10.5375C13.7986 10.4697 13.8143 10.4024 13.8455 10.3422C14.1426 9.7682 14.2507 9.14115 14.1521 8.60876C14.0921 8.28529 13.9517 7.98003 13.7117 7.7533C13.4672 7.52258 13.1425 7.39597 12.7625 7.39587H11.1746Z" fill="#4270C3" stroke="#4270C3" stroke-width="0.07"/>
</svg>
