<svg width="20" height="23" viewBox="0 0 20 23" fill="none" xmlns="http://www.w3.org/2000/svg">
<path d="M11.1194 4.33097H4.9656C4.14954 4.33097 3.36692 4.65514 2.78988 5.23218C2.21285 5.80921 1.88867 6.59184 1.88867 7.40789V18.1771C1.88867 18.9932 2.21285 19.7758 2.78988 20.3528C3.36692 20.9299 4.14954 21.254 4.9656 21.254H15.7348C16.5509 21.254 17.3335 20.9299 17.9105 20.3528C18.4876 19.7758 18.8117 18.9932 18.8117 18.1771V13.5617M15.7348 1.25404V5.86943" stroke="#4318FF" stroke-width="2.18182" stroke-linecap="round" stroke-linejoin="round"/>
<path d="M15.735 10.1002C15.633 10.1002 15.5351 10.0596 15.463 9.98751C15.3909 9.91538 15.3503 9.81755 15.3503 9.71555C15.3503 9.61354 15.3909 9.51571 15.463 9.44358C15.5351 9.37145 15.633 9.33093 15.735 9.33093M15.735 10.1002C15.837 10.1002 15.9348 10.0596 16.0069 9.98751C16.0791 9.91538 16.1196 9.81755 16.1196 9.71555C16.1196 9.61354 16.0791 9.51571 16.0069 9.44358C15.9348 9.37145 15.837 9.33093 15.735 9.33093" stroke="#4318FF" stroke-width="2.18182" stroke-linecap="round" stroke-linejoin="round"/>
</svg>
