<svg width="16" height="23" viewBox="0 0 16 23" fill="none" xmlns="http://www.w3.org/2000/svg">
<path d="M4.36676 8.11356C3.48266 8.11356 2.63478 7.76236 2.00962 7.1372C1.38447 6.51205 1.03326 5.66416 1.03326 4.78006C1.03326 3.89596 1.38447 3.04808 2.00962 2.42292C2.63478 1.79777 3.48266 1.44656 4.36676 1.44656H7.69976V8.11356M4.36676 8.11356H7.69976M4.36676 8.11356C3.4828 8.11356 2.63504 8.46472 2.00998 9.08978C1.38492 9.71484 1.03376 10.5626 1.03376 11.4466C1.03376 12.3305 1.38492 13.1783 2.00998 13.8034C2.63504 14.4284 3.4828 14.7796 4.36676 14.7796H7.69976V8.11356" stroke="black" stroke-width="1.5"/>
<path d="M14.3668 11.4466C14.3668 12.3307 14.0155 13.1786 13.3904 13.8037C12.7652 14.4289 11.9174 14.7801 11.0333 14.7801C10.1492 14.7801 9.30127 14.4289 8.67611 13.8037C8.05096 13.1786 7.69975 12.3307 7.69975 11.4466C7.69975 10.5625 8.05096 9.71458 8.67611 9.08943C9.30127 8.46427 10.1492 8.11307 11.0333 8.11307C11.9174 8.11307 12.7652 8.46427 13.3904 9.08943C14.0155 9.71458 14.3668 10.5625 14.3668 11.4466ZM4.36675 14.7806H7.69975V18.1136C7.69956 18.7727 7.50391 19.417 7.13756 19.965C6.7712 20.513 6.25059 20.94 5.64155 21.1921C5.0325 21.4443 4.36238 21.5101 3.71591 21.3814C3.06943 21.2527 2.47564 20.9352 2.00961 20.469C1.54359 20.0028 1.22625 19.4089 1.09772 18.7624C0.9692 18.1159 1.03526 17.4458 1.28756 16.8369C1.53986 16.2279 1.96705 15.7074 2.51514 15.3412C3.06323 14.975 3.70759 14.7806 4.36675 14.7806Z" stroke="black" stroke-width="1.5"/>
<path d="M7.69977 1.44656H11.0328C11.9169 1.44656 12.7648 1.79777 13.3899 2.42292C14.0151 3.04808 14.3663 3.89596 14.3663 4.78006C14.3663 5.66416 14.0151 6.51205 13.3899 7.1372C12.7648 7.76236 11.9169 8.11356 11.0328 8.11356H7.69977V1.44656Z" stroke="black" stroke-width="1.5"/>
</svg>
