<svg width="26" height="28" viewBox="0 0 26 28" fill="none" xmlns="http://www.w3.org/2000/svg">
<g opacity="0.2">
<path fill-rule="evenodd" clip-rule="evenodd" d="M20.5833 23.5807C20.5833 24.2611 20.0645 24.8133 19.4226 24.8133C18.7807 24.8133 18.2619 24.2611 18.2619 23.5807C18.2619 20.1825 15.6584 17.4178 12.4583 17.4178C9.25822 17.4178 6.65474 20.1825 6.65474 23.5807C6.65474 24.2611 6.1359 24.8133 5.49403 24.8133C4.85215 24.8133 4.33331 24.2611 4.33331 23.5807C4.33331 18.8229 7.97912 14.9526 12.4583 14.9526C16.9375 14.9526 20.5833 18.8229 20.5833 23.5807ZM12.4583 5.09186C13.7386 5.09186 14.7797 6.1975 14.7797 7.55705C14.7797 8.9166 13.7386 10.0222 12.4583 10.0222C11.178 10.0222 10.1369 8.9166 10.1369 7.55705C10.1369 6.1975 11.178 5.09186 12.4583 5.09186ZM12.4583 12.4874C15.0188 12.4874 17.1012 10.2761 17.1012 7.55705C17.1012 4.83795 15.0188 2.62668 12.4583 2.62668C9.89778 2.62668 7.81546 4.83795 7.81546 7.55705C7.81546 10.2761 9.89778 12.4874 12.4583 12.4874Z" fill="black"/>
</g>
</svg>
