<svg width="26" height="28" viewBox="0 0 26 28" fill="none" xmlns="http://www.w3.org/2000/svg">
<path fill-rule="evenodd" clip-rule="evenodd" d="M15.5232 22.8992C15.4506 22.8992 15.3758 22.8959 15.3011 22.8882C14.3477 22.7916 13.6002 22.1027 13.3944 21.1321L10.4878 7.38521L7.49458 14.465C7.32233 14.871 6.93125 15.1339 6.50008 15.1339H3.25008C2.651 15.1339 2.16675 14.6369 2.16675 14.0246C2.16675 13.4111 2.651 12.9152 3.25008 12.9152H5.78941L8.50425 6.4933C8.88883 5.58808 9.736 5.06115 10.6991 5.15988C11.6524 5.25639 12.3999 5.94529 12.6057 6.91596L15.5123 20.6628L18.5056 13.5831C18.6778 13.177 19.0678 12.9152 19.5001 12.9152H22.7501C23.3492 12.9152 23.8334 13.4111 23.8334 14.0246C23.8334 14.6369 23.3492 15.1339 22.7501 15.1339H20.2107L17.4959 21.5547C17.1417 22.3901 16.3822 22.8992 15.5232 22.8992Z" fill="black"/>
</svg>
