<svg width="25" height="25" viewBox="0 0 25 25" fill="none" xmlns="http://www.w3.org/2000/svg">
<g clip-path="url(#clip0_18_6007)">
<path d="M22.0499 9.25403H17.2599L12.8799 2.69403C12.6899 2.41403 12.3699 2.27403 12.0499 2.27403C11.7299 2.27403 11.4099 2.41403 11.2199 2.70403L6.83993 9.25403H2.04993C1.49993 9.25403 1.04993 9.70403 1.04993 10.254C1.04993 10.344 1.05993 10.434 1.08993 10.524L3.62993 19.794C3.85993 20.634 4.62993 21.254 5.54993 21.254H18.5499C19.4699 21.254 20.2399 20.634 20.4799 19.794L23.0199 10.524L23.0499 10.254C23.0499 9.70403 22.5999 9.25403 22.0499 9.25403ZM12.0499 5.05403L14.8499 9.25403H9.24993L12.0499 5.05403ZM18.5499 19.254L5.55993 19.264L3.35993 11.254H20.7499L18.5499 19.254ZM12.0499 13.254C10.9499 13.254 10.0499 14.154 10.0499 15.254C10.0499 16.354 10.9499 17.254 12.0499 17.254C13.1499 17.254 14.0499 16.354 14.0499 15.254C14.0499 14.154 13.1499 13.254 12.0499 13.254Z" fill="#01B574"/>
</g>
<defs>
<clipPath id="clip0_18_6007">
<rect width="24" height="24" fill="white" transform="translate(0.0499268 0.254044)"/>
</clipPath>
</defs>
</svg>
