<svg width="25" height="25" viewBox="0 0 25 25" fill="none" xmlns="http://www.w3.org/2000/svg">
<g clip-path="url(#clip0_18_6010)">
<path d="M4.04993 6.25404H20.0499V8.25404H4.04993V6.25404ZM6.04993 2.25404H18.0499V4.25404H6.04993V2.25404ZM20.0499 10.254H4.04993C2.94993 10.254 2.04993 11.154 2.04993 12.254V20.254C2.04993 21.354 2.94993 22.254 4.04993 22.254H20.0499C21.1499 22.254 22.0499 21.354 22.0499 20.254V12.254C22.0499 11.154 21.1499 10.254 20.0499 10.254ZM20.0499 20.254H4.04993V12.254H20.0499V20.254ZM10.0499 12.984V19.514L16.0499 16.254L10.0499 12.984Z" fill="#FFB547"/>
</g>
<defs>
<clipPath id="clip0_18_6010">
<rect width="24" height="24" fill="white" transform="translate(0.0499268 0.254044)"/>
</clipPath>
</defs>
</svg>
