<svg width="15" height="13" viewBox="0 0 15 13" fill="none" xmlns="http://www.w3.org/2000/svg">
<path d="M13.7949 6.92953L14.8 7.94184L10.1118 12.6731L7.62056 10.1603L8.62569 9.14799L10.1118 10.6413L13.7949 6.92953ZM6.54364 0.826965C7.30529 0.826965 8.03574 1.12953 8.5743 1.66809C9.11287 2.20666 9.41543 2.93711 9.41543 3.69876C9.41543 4.46041 9.11287 5.19086 8.5743 5.72943C8.03574 6.26799 7.30529 6.57055 6.54364 6.57055C5.78199 6.57055 5.05154 6.26799 4.51297 5.72943C3.97441 5.19086 3.67184 4.46041 3.67184 3.69876C3.67184 2.93711 3.97441 2.20666 4.51297 1.66809C5.05154 1.12953 5.78199 0.826965 6.54364 0.826965ZM6.54364 2.26286C6.16282 2.26286 5.79759 2.41414 5.52831 2.68343C5.25902 2.95271 5.10774 3.31794 5.10774 3.69876C5.10774 4.07958 5.25902 4.44481 5.52831 4.71409C5.79759 4.98338 6.16282 5.13466 6.54364 5.13466C6.92446 5.13466 7.28969 4.98338 7.55897 4.71409C7.82825 4.44481 7.97954 4.07958 7.97954 3.69876C7.97954 3.31794 7.82825 2.95271 7.55897 2.68343C7.28969 2.41414 6.92446 2.26286 6.54364 2.26286ZM6.54364 7.2885C7.03184 7.2885 7.62056 7.35312 8.2739 7.47517L7.07492 8.67414L6.54364 8.65261C4.41133 8.65261 2.16415 9.70081 2.16415 10.1603V10.95H6.61543L7.97954 12.3141H0.800049V10.1603C0.800049 8.25055 4.62672 7.2885 6.54364 7.2885Z" fill="#4270C3"/>
</svg>
