<svg width="26" height="26" viewBox="0 0 26 26" fill="none" xmlns="http://www.w3.org/2000/svg">
<path d="M1.4907 24.4722L9.84451 16.1323M9.84451 16.1323C9.66161 15.9498 9.51671 15.733 9.41769 15.4945C9.31868 15.256 9.26768 15.0004 9.26762 14.7423C9.26756 14.4841 9.31843 14.2284 9.41734 13.9899C9.51624 13.7514 9.66124 13.5346 9.84405 13.352C10.0269 13.1694 10.2439 13.0246 10.4828 12.9257C10.7217 12.8269 10.9777 12.776 11.2363 12.7759C11.4949 12.7758 11.751 12.8266 11.9899 12.9254C12.2289 13.0241 12.446 13.1689 12.6289 13.3514C12.9982 13.72 13.2058 14.2199 13.206 14.7413C13.2061 15.2627 12.9987 15.7628 12.6295 16.1316C12.2603 16.5003 11.7595 16.7076 11.2373 16.7077C10.715 16.7078 10.2139 16.5009 9.84451 16.1323ZM20.5193 11.9623L24.2315 8.25491C24.7237 7.76341 25.0002 7.09688 25.0002 6.40189C25.0002 5.70691 24.7237 5.04038 24.2315 4.54888L21.4487 1.76804C21.2049 1.52455 20.9154 1.33139 20.5968 1.19961C20.2782 1.06783 19.9368 1 19.5919 1C19.2471 1 18.9056 1.06783 18.587 1.19961C18.2684 1.33139 17.9789 1.52455 17.7351 1.76804L14.0229 5.47538M20.3642 12.4236L17.8636 19.913C17.8237 20.0331 17.7554 20.1417 17.6644 20.2298C17.5735 20.3178 17.4626 20.3827 17.3412 20.4189L2.01183 24.9675C1.87373 25.0085 1.72702 25.0108 1.58767 24.9743C1.44832 24.9378 1.32167 24.8638 1.22151 24.7605C1.12135 24.6571 1.0515 24.5283 1.01958 24.388C0.987656 24.2478 0.994878 24.1014 1.04046 23.965L6.01809 9.05961C6.05376 8.95259 6.11208 8.85449 6.18909 8.77195C6.2661 8.68942 6.35999 8.62439 6.4644 8.58129L13.5357 5.67464C13.6795 5.61537 13.8376 5.59992 13.9902 5.63024C14.1427 5.66055 14.2828 5.73529 14.3929 5.84501L20.1739 11.619C20.2773 11.7222 20.3499 11.8522 20.3835 11.9943C20.4172 12.1364 20.4105 12.2851 20.3642 12.4236Z" stroke="#329B57" stroke-width="1.5" stroke-linecap="round" stroke-linejoin="round"/>
</svg>
