<svg width="21" height="20" viewBox="0 0 21 20" fill="none" xmlns="http://www.w3.org/2000/svg">
<path d="M10.4741 7C9.67844 7 8.91537 7.31607 8.35276 7.87868C7.79015 8.44129 7.47408 9.20435 7.47408 10C7.47408 10.7956 7.79015 11.5587 8.35276 12.1213C8.91537 12.6839 9.67844 13 10.4741 13C11.2697 13 12.0328 12.6839 12.5954 12.1213C13.158 11.5587 13.4741 10.7956 13.4741 10C13.4741 9.20435 13.158 8.44129 12.5954 7.87868C12.0328 7.31607 11.2697 7 10.4741 7ZM10.4741 5C11.8002 5 13.0719 5.52678 14.0096 6.46447C14.9473 7.40215 15.4741 8.67392 15.4741 10C15.4741 11.3261 14.9473 12.5979 14.0096 13.5355C13.0719 14.4732 11.8002 15 10.4741 15C9.148 15 7.87623 14.4732 6.93855 13.5355C6.00087 12.5979 5.47408 11.3261 5.47408 10C5.47408 8.67392 6.00087 7.40215 6.93855 6.46447C7.87623 5.52678 9.148 5 10.4741 5ZM16.9741 4.75C16.9741 5.08152 16.8424 5.39946 16.608 5.63388C16.3735 5.8683 16.0556 6 15.7241 6C15.3926 6 15.0746 5.8683 14.8402 5.63388C14.6058 5.39946 14.4741 5.08152 14.4741 4.75C14.4741 4.41848 14.6058 4.10054 14.8402 3.86612C15.0746 3.6317 15.3926 3.5 15.7241 3.5C16.0556 3.5 16.3735 3.6317 16.608 3.86612C16.8424 4.10054 16.9741 4.41848 16.9741 4.75ZM10.4741 2C8.00008 2 7.59608 2.007 6.44508 2.058C5.66108 2.095 5.13508 2.2 4.64708 2.39C4.2387 2.53994 3.8695 2.78026 3.56708 3.093C3.25409 3.3954 3.01344 3.76458 2.86308 4.173C2.67308 4.663 2.56808 5.188 2.53208 5.971C2.48008 7.075 2.47308 7.461 2.47308 10C2.47308 12.475 2.48008 12.878 2.53108 14.029C2.56808 14.812 2.67308 15.339 2.86208 15.826C3.03208 16.261 3.23208 16.574 3.56408 16.906C3.90108 17.242 4.21408 17.443 4.64408 17.609C5.13808 17.8 5.66408 17.906 6.44408 17.942C7.54808 17.994 7.93408 18 10.4731 18C12.9481 18 13.3511 17.993 14.5021 17.942C15.2841 17.905 15.8101 17.8 16.2991 17.611C16.7071 17.4603 17.0761 17.2201 17.3791 16.908C17.7161 16.572 17.9171 16.259 18.0831 15.828C18.2731 15.336 18.3791 14.81 18.4151 14.028C18.4671 12.925 18.4731 12.538 18.4731 10C18.4731 7.526 18.4661 7.122 18.4151 5.971C18.3781 5.189 18.2721 4.661 18.0831 4.173C17.9323 3.76502 17.6921 3.39598 17.3801 3.093C17.0778 2.77985 16.7086 2.53917 16.3001 2.389C15.8101 2.199 15.2841 2.094 14.5021 2.058C13.3991 2.006 13.0131 2 10.4731 2M10.4731 0C13.1901 0 13.5291 0.00999994 14.5961 0.0599999C15.6601 0.11 16.3861 0.277 17.0231 0.525C17.6831 0.779 18.2391 1.123 18.7951 1.678C19.3036 2.1779 19.697 2.78259 19.9481 3.45C20.1951 4.087 20.3631 4.813 20.4131 5.878C20.4601 6.944 20.4731 7.283 20.4731 10C20.4731 12.717 20.4631 13.056 20.4131 14.122C20.3631 15.187 20.1951 15.912 19.9481 16.55C19.6977 17.2178 19.3042 17.8226 18.7951 18.322C18.295 18.8303 17.6904 19.2238 17.0231 19.475C16.3861 19.722 15.6601 19.89 14.5961 19.94C13.5291 19.987 13.1901 20 10.4731 20C7.75608 20 7.41708 19.99 6.35008 19.94C5.28608 19.89 4.56108 19.722 3.92308 19.475C3.25541 19.2245 2.65061 18.8309 2.15108 18.322C1.64252 17.8222 1.24904 17.2175 0.998084 16.55C0.750084 15.913 0.583083 15.187 0.533083 14.122C0.485083 13.056 0.473083 12.717 0.473083 10C0.473083 7.283 0.483083 6.944 0.533083 5.878C0.583083 4.813 0.750084 4.088 0.998084 3.45C1.24832 2.78218 1.64189 2.17732 2.15108 1.678C2.65075 1.16923 3.25551 0.775729 3.92308 0.525C4.56008 0.277 5.28508 0.11 6.35008 0.0599999C7.41808 0.0129999 7.75708 0 10.4741 0" fill="black" fill-opacity="0.7"/>
</svg>
