<svg width="25" height="25" viewBox="0 0 25 25" fill="none" xmlns="http://www.w3.org/2000/svg">
<path d="M18.8187 15.8489C18.8187 16.071 18.7305 16.2839 18.5735 16.4409C18.4165 16.5979 18.2035 16.6861 17.9815 16.6861H12.4001C12.178 16.6861 11.9651 16.5979 11.8081 16.4409C11.6511 16.2839 11.5629 16.071 11.5629 15.8489C11.5629 15.6269 11.6511 15.4139 11.8081 15.2569C11.9651 15.0999 12.178 15.0117 12.4001 15.0117H17.9815C18.2035 15.0117 18.4165 15.0999 18.5735 15.2569C18.7305 15.4139 18.8187 15.6269 18.8187 15.8489ZM7.3545 9.62455C7.27047 9.55105 7.1726 9.49509 7.06664 9.45997C6.96067 9.42484 6.84875 9.41127 6.73746 9.42004C6.62617 9.42881 6.51776 9.45976 6.4186 9.51104C6.31945 9.56233 6.23155 9.63293 6.16008 9.71869C6.08862 9.80446 6.03502 9.90364 6.00246 10.0104C5.96989 10.1172 5.959 10.2294 5.97044 10.3405C5.98188 10.4515 6.01542 10.5591 6.06907 10.657C6.12273 10.7549 6.19542 10.8411 6.28287 10.9105L6.54408 11.1282C7.27971 11.7421 7.76082 12.144 8.06891 12.4856C8.36138 12.8093 8.38929 12.9622 8.38929 13.0582C8.38929 13.1542 8.36138 13.306 8.06891 13.6309C7.7597 13.9725 7.27971 14.3754 6.54408 14.9883L6.28287 15.2059C6.11837 15.3499 6.01667 15.5524 5.9995 15.7703C5.98232 15.9882 6.05104 16.2041 6.19096 16.372C6.33088 16.5399 6.53091 16.6465 6.74832 16.6689C6.96573 16.6913 7.18328 16.6277 7.3545 16.4919L7.6637 16.2352C8.33905 15.6726 8.91394 15.1937 9.31133 14.7527C9.73329 14.2839 10.0637 13.747 10.0637 13.0582C10.0637 12.3695 9.73329 11.8314 9.31133 11.3637C8.91394 10.9228 8.33905 10.4439 7.6637 9.8813L7.3545 9.62455Z" fill="#CD7015"/>
<path fill-rule="evenodd" clip-rule="evenodd" d="M12.3363 0.500031H12.4635C15.041 0.500031 17.0604 0.500031 18.6366 0.712124C20.2485 0.928682 21.521 1.38189 22.5201 2.37984C23.5192 3.37891 23.9713 4.65147 24.1878 6.2645C24.3999 7.83957 24.3999 9.85891 24.3999 12.4364V12.5637C24.3999 15.1411 24.3999 17.1605 24.1878 18.7367C23.9713 20.3486 23.518 21.6211 22.5201 22.6202C21.521 23.6193 20.2485 24.0714 18.6354 24.2879C17.0604 24.5 15.041 24.5 12.4635 24.5H12.3363C9.75879 24.5 7.73944 24.5 6.16325 24.2879C4.55134 24.0714 3.27879 23.6182 2.27972 22.6202C1.28065 21.6211 0.828554 20.3486 0.611995 18.7356C0.399902 17.1605 0.399902 15.1411 0.399902 12.5637V12.4364C0.399902 9.85891 0.399902 7.83957 0.611995 6.26338C0.828554 4.65147 1.28176 3.37891 2.27972 2.37984C3.27879 1.38077 4.55134 0.928682 6.16437 0.712124C7.73944 0.500031 9.75879 0.500031 12.3363 0.500031ZM6.38651 2.37091C4.9599 2.56291 4.09925 2.92905 3.46409 3.56422C2.82781 4.2005 2.46279 5.06003 2.27079 6.48775C2.07655 7.93891 2.07432 9.84552 2.07432 12.5C2.07432 15.1545 2.07655 17.0611 2.27079 18.5123C2.46279 19.94 2.82893 20.8007 3.46409 21.437C4.10037 22.0721 4.9599 22.4371 6.38762 22.6291C7.83879 22.8234 9.74539 22.8256 12.3999 22.8256C15.0544 22.8256 16.961 22.8234 18.4122 22.6291C19.8399 22.4371 20.7006 22.071 21.3368 21.4358C21.972 20.7996 22.337 19.94 22.529 18.5123C22.7233 17.0611 22.7255 15.1545 22.7255 12.5C22.7255 9.84552 22.7233 7.93891 22.529 6.48775C22.337 5.06003 21.9709 4.19938 21.3357 3.5631C20.6994 2.92794 19.8399 2.56291 18.4122 2.37091C16.961 2.17668 15.0544 2.17445 12.3999 2.17445C9.74539 2.17445 7.83767 2.17668 6.38651 2.37091Z" fill="#CD7015"/>
</svg>
