<svg width="27" height="27" viewBox="0 0 27 27" fill="none" xmlns="http://www.w3.org/2000/svg">
<path d="M7.59998 15.9L9.75638 13.3128C10.6108 12.2868 11.038 11.7744 11.5996 11.7744C12.1624 11.7744 12.5896 12.2868 13.444 13.3128L13.756 13.6872C14.6104 14.7132 15.0376 15.2256 15.6004 15.2256C16.162 15.2256 16.5892 14.7132 17.4436 13.6872L19.6 11.1M1.59998 13.5C1.59998 7.84323 1.59998 5.01483 3.35678 3.25683C5.11598 1.50003 7.94318 1.50003 13.6 1.50003C19.2568 1.50003 22.0852 1.50003 23.842 3.25683C25.6 5.01603 25.6 7.84323 25.6 13.5C25.6 19.1568 25.6 21.9852 23.842 23.742C22.0864 25.5 19.2568 25.5 13.6 25.5C7.94318 25.5 5.11478 25.5 3.35678 23.742C1.59998 21.9864 1.59998 19.1568 1.59998 13.5Z" stroke="#329B57" stroke-width="1.5" stroke-linecap="round"/>
</svg>
