<svg width="24" height="27" viewBox="0 0 24 27" fill="none" xmlns="http://www.w3.org/2000/svg">
<path d="M5.2 7.50003V11.7C5.2 12.3366 5.45286 12.947 5.90294 13.3971C6.35303 13.8472 6.96348 14.1 7.6 14.1H16C16.6365 14.1 17.247 13.8472 17.6971 13.3971C18.1471 12.947 18.4 12.3366 18.4 11.7V7.50003M11.8 14.1V19.5M1.72 1.50003H8.68C9.07764 1.50003 9.4 1.82239 9.4 2.22003V6.78003C9.4 7.17768 9.07764 7.50003 8.68 7.50003H1.72C1.32235 7.50003 1 7.17768 1 6.78003V2.22003C1 1.82239 1.32235 1.50003 1.72 1.50003ZM8.32 19.5H15.28C15.6776 19.5 16 19.8224 16 20.22V24.78C16 25.1777 15.6776 25.5 15.28 25.5H8.32C7.92236 25.5 7.6 25.1777 7.6 24.78V20.22C7.6 19.8224 7.92236 19.5 8.32 19.5ZM14.92 1.50003H21.88C22.2776 1.50003 22.6 1.82239 22.6 2.22003V6.78003C22.6 7.17768 22.2776 7.50003 21.88 7.50003H14.92C14.5224 7.50003 14.2 7.17768 14.2 6.78003V2.22003C14.2 1.82239 14.5224 1.50003 14.92 1.50003Z" stroke="#219BBC" stroke-width="1.5"/>
</svg>
