<svg width="26" height="27" viewBox="0 0 26 27" fill="none" xmlns="http://www.w3.org/2000/svg">
<path d="M10.4286 4.9286H12.1429M7.85714 7.50003V3.21432C7.85714 2.75966 8.03775 2.32362 8.35925 2.00213C8.68074 1.68064 9.11677 1.50003 9.57143 1.50003H16.4286C16.8832 1.50003 17.3193 1.68064 17.6408 2.00213C17.9622 2.32362 18.1429 2.75966 18.1429 3.21432V11.7857C18.1429 12.2404 17.9622 12.6764 17.6408 12.9979C17.3193 13.3194 16.8832 13.5 16.4286 13.5H9.57143C9.11677 13.5 8.68074 13.6806 8.35925 14.0021C8.03775 14.3236 7.85714 14.7597 7.85714 15.2143V23.7857C7.85714 24.2404 8.03775 24.6764 8.35925 24.9979C8.68074 25.3194 9.11677 25.5 9.57143 25.5H16.4286C16.8832 25.5 17.3193 25.3194 17.6408 24.9979C17.9622 24.6764 18.1429 24.2404 18.1429 23.7857V19.5M13.8571 8.35717H2.71429C2.25963 8.35717 1.82359 8.53779 1.5021 8.85928C1.18061 9.18077 1 9.6168 1 10.0715V18.6429C1 19.0975 1.18061 19.5336 1.5021 19.8551C1.82359 20.1766 2.25963 20.3572 2.71429 20.3572H7.85714M12.1429 18.6429H23.2857C23.7404 18.6429 24.1764 18.4623 24.4979 18.1408C24.8194 17.8193 25 17.3833 25 16.9286V8.35717C25 7.90252 24.8194 7.46648 24.4979 7.14499C24.1764 6.8235 23.7404 6.64289 23.2857 6.64289H18.1429M13.8571 22.0715H15.5714" stroke="#4270C3" stroke-width="1.3"/>
</svg>
