<svg width="24" height="24" viewBox="0 0 24 24" fill="none" xmlns="http://www.w3.org/2000/svg">
<path d="M18.4186 15.3489C18.4186 15.5709 18.3304 15.7838 18.1734 15.9409C18.0164 16.0979 17.8034 16.1861 17.5814 16.1861H12C11.778 16.1861 11.565 16.0979 11.408 15.9409C11.251 15.7838 11.1628 15.5709 11.1628 15.3489C11.1628 15.1268 11.251 14.9139 11.408 14.7569C11.565 14.5999 11.778 14.5116 12 14.5116H17.5814C17.8034 14.5116 18.0164 14.5999 18.1734 14.7569C18.3304 14.9139 18.4186 15.1268 18.4186 15.3489ZM6.95442 9.12448C6.8704 9.05098 6.77253 8.99502 6.66656 8.9599C6.5606 8.92478 6.44868 8.9112 6.33739 8.91998C6.2261 8.92875 6.11769 8.95969 6.01853 9.01098C5.91937 9.06227 5.83148 9.13287 5.76001 9.21863C5.68854 9.30439 5.63495 9.40357 5.60238 9.51035C5.56981 9.61713 5.55893 9.72935 5.57037 9.84039C5.58181 9.95144 5.61535 10.0591 5.669 10.157C5.72265 10.2549 5.79534 10.341 5.88279 10.4104L6.144 10.6281C6.87963 11.2421 7.36075 11.6439 7.66884 11.9855C7.96131 12.3092 7.98921 12.4622 7.98921 12.5582C7.98921 12.6542 7.96131 12.806 7.66884 13.1308C7.35963 13.4724 6.87963 13.8754 6.144 14.4882L5.88279 14.7059C5.7183 14.8498 5.6166 15.0523 5.59942 15.2702C5.58225 15.4881 5.65096 15.7041 5.79088 15.872C5.9308 16.0399 6.13084 16.1464 6.34825 16.1688C6.56566 16.1912 6.78321 16.1277 6.95442 15.9918L7.26363 15.7351C7.93898 15.1725 8.51386 14.6936 8.91126 14.2527C9.33321 13.7838 9.66363 13.2469 9.66363 12.5582C9.66363 11.8694 9.33321 11.3314 8.91126 10.8636C8.51386 10.4227 7.93898 9.94383 7.26363 9.38123L6.95442 9.12448Z" fill="#DB5AC4"/>
<path fill-rule="evenodd" clip-rule="evenodd" d="M11.9364 3.05176e-05H12.0636C14.6411 3.05176e-05 16.6605 3.05841e-05 18.2367 0.212124C19.8486 0.428682 21.1211 0.881891 22.1202 1.87984C23.1193 2.87891 23.5714 4.15147 23.7879 5.7645C24 7.33957 24 9.35891 24 11.9364V12.0637C24 14.6411 24 16.6605 23.7879 18.2367C23.5714 19.8486 23.1181 21.1211 22.1202 22.1202C21.1211 23.1193 19.8486 23.5714 18.2355 23.7879C16.6605 24 14.6411 24 12.0636 24H11.9364C9.35888 24 7.33954 24 5.76335 23.7879C4.15144 23.5714 2.87888 23.1182 1.87981 22.1202C0.880744 21.1211 0.428651 19.8486 0.212093 18.2356C6.65354e-08 16.6605 0 14.6411 0 12.0637V11.9364C0 9.35891 6.65354e-08 7.33957 0.212093 5.76338C0.428651 4.15147 0.881861 2.87891 1.87981 1.87984C2.87888 0.880775 4.15144 0.428682 5.76447 0.212124C7.33954 3.05841e-05 9.35888 3.05176e-05 11.9364 3.05176e-05ZM5.9866 1.87091C4.56 2.06291 3.69935 2.42905 3.06419 3.06422C2.42791 3.7005 2.06288 4.56003 1.87088 5.98775C1.67665 7.43891 1.67442 9.34552 1.67442 12C1.67442 14.6545 1.67665 16.5611 1.87088 18.0123C2.06288 19.44 2.42902 20.3007 3.06419 20.937C3.70047 21.5721 4.56 21.9371 5.98772 22.1291C7.43888 22.3234 9.34549 22.3256 12 22.3256C14.6545 22.3256 16.5611 22.3234 18.0123 22.1291C19.44 21.9371 20.3007 21.571 20.9369 20.9358C21.5721 20.2996 21.9371 19.44 22.1291 18.0123C22.3233 16.5611 22.3256 14.6545 22.3256 12C22.3256 9.34552 22.3233 7.43891 22.1291 5.98775C21.9371 4.56003 21.571 3.69938 20.9358 3.0631C20.2995 2.42794 19.44 2.06291 18.0123 1.87091C16.5611 1.67668 14.6545 1.67445 12 1.67445C9.34549 1.67445 7.43777 1.67668 5.9866 1.87091Z" fill="#DB5AC4"/>
</svg>
