<svg width="26" height="27" viewBox="0 0 26 27" fill="none" xmlns="http://www.w3.org/2000/svg">
<path d="M1.69065 24.9722L10.0445 16.6323M10.0445 16.6323C9.86157 16.4498 9.71666 16.233 9.61764 15.9945C9.51863 15.756 9.46763 15.5004 9.46757 15.2423C9.46751 14.9841 9.51838 14.7284 9.61729 14.4899C9.71619 14.2514 9.86119 14.0346 10.044 13.852C10.2268 13.6694 10.4439 13.5246 10.6827 13.4257C10.9216 13.3269 11.1777 13.276 11.4363 13.2759C11.6949 13.2758 11.9509 13.3266 12.1899 13.4254C12.4288 13.5241 12.6459 13.6689 12.8288 13.8514C13.1982 14.22 13.4058 14.7199 13.4059 15.2413C13.406 15.7627 13.1987 16.2628 12.8295 16.6316C12.4603 17.0003 11.9595 17.2076 11.4372 17.2077C10.9149 17.2078 10.4138 17.0009 10.0445 16.6323ZM20.7193 12.4623L24.4315 8.75491C24.9237 8.26341 25.2001 7.59688 25.2001 6.90189C25.2001 6.20691 24.9237 5.54038 24.4315 5.04888L21.6486 2.26804C21.4048 2.02455 21.1154 1.83139 20.7968 1.69961C20.4782 1.56783 20.1367 1.5 19.7919 1.5C19.447 1.5 19.1055 1.56783 18.7869 1.69961C18.4684 1.83139 18.1789 2.02455 17.9351 2.26804L14.2229 5.97538M20.5642 12.9236L18.0635 20.413C18.0236 20.5331 17.9553 20.6417 17.8644 20.7298C17.7734 20.8178 17.6625 20.8827 17.5411 20.9189L2.21178 25.4675C2.07368 25.5085 1.92697 25.5108 1.78762 25.4743C1.64827 25.4378 1.52163 25.3638 1.42146 25.2605C1.3213 25.1571 1.25145 25.0283 1.21953 24.888C1.18761 24.7478 1.19483 24.6014 1.24041 24.465L6.21804 9.55961C6.25371 9.45259 6.31204 9.35449 6.38904 9.27195C6.46605 9.18942 6.55994 9.12439 6.66435 9.08129L13.7357 6.17464C13.8794 6.11537 14.0376 6.09992 14.1901 6.13024C14.3427 6.16055 14.4828 6.23529 14.5929 6.34501L20.3738 12.119C20.4773 12.2222 20.5499 12.3522 20.5835 12.4943C20.6171 12.6364 20.6104 12.7851 20.5642 12.9236Z" stroke="#D74BBF" stroke-width="1.5" stroke-linecap="round" stroke-linejoin="round"/>
</svg>
