<svg width="15" height="15" viewBox="0 0 15 15" fill="none" xmlns="http://www.w3.org/2000/svg">
<path d="M9.89153 5.98053L13.2156 6.48622L10.8057 8.94466C10.6817 9.07134 10.589 9.22735 10.5356 9.39938C10.4822 9.5714 10.4696 9.75432 10.4988 9.93252L11.0658 13.3951L8.10349 11.7654C7.94838 11.6801 7.77556 11.6355 7.60009 11.6355C7.42461 11.6355 7.2518 11.6801 7.09668 11.7654L4.13439 13.3951L4.70187 9.93252C4.73116 9.75432 4.71855 9.5714 4.66511 9.39938C4.61166 9.22735 4.51898 9.07134 4.39498 8.94466L1.98455 6.48622L5.30865 5.98053C5.48173 5.95429 5.64607 5.88458 5.78744 5.77745C5.92881 5.67031 6.04296 5.52897 6.12002 5.36564L7.60062 2.22566L9.08069 5.36564C9.1577 5.52889 9.27177 5.67019 9.41304 5.77733C9.55431 5.88446 9.71853 5.9542 9.89153 5.98053ZM8.32531 1.22044C8.02973 0.593228 7.17098 0.593228 6.8754 1.22044L5.15251 4.87171L1.29217 5.45972C0.631008 5.55996 0.366114 6.4039 0.843138 6.89054L3.64068 9.74436L2.98113 13.7669C2.86861 14.454 3.56261 14.9765 4.15485 14.6506L7.60062 12.755L11.0453 14.6506C11.6376 14.9765 12.3321 14.454 12.219 13.7669L11.56 9.74436L14.357 6.89054C14.8341 6.40334 14.5692 5.55996 13.9085 5.45916L10.0477 4.87227L8.32531 1.22044Z" fill="#4270C3"/>
</svg>
