<svg width="21" height="21" viewBox="0 0 21 21" fill="none" xmlns="http://www.w3.org/2000/svg">
<path d="M17.6799 3.02645C16.7265 2.06334 15.5908 1.29971 14.3391 0.780113C13.0874 0.260513 11.7448 -0.00465931 10.3896 6.19522e-05C4.71119 6.19522e-05 0.0831999 4.62805 0.0831999 10.3064C0.0831999 12.1264 0.561598 13.8944 1.456 15.4544L0 20.8L5.45998 19.3648C6.96798 20.1864 8.66317 20.6232 10.3896 20.6232C16.068 20.6232 20.6959 15.9952 20.6959 10.3168C20.6959 7.56084 19.6247 4.97125 17.6799 3.02645ZM10.3896 18.876C8.85037 18.876 7.34238 18.46 6.02158 17.68L5.70958 17.4928L2.46479 18.3456L3.32799 15.184L3.11999 14.8616C2.26485 13.4961 1.81078 11.9176 1.80959 10.3064C1.80959 5.58484 5.65758 1.73686 10.3792 1.73686C12.6672 1.73686 14.82 2.63125 16.432 4.25365C17.2301 5.04817 17.8627 5.99321 18.2929 7.034C18.7232 8.07479 18.9425 9.19063 18.9383 10.3168C18.9591 15.0384 15.1112 18.876 10.3896 18.876ZM15.0904 12.4696C14.8304 12.3448 13.5616 11.7208 13.3328 11.6272C13.0936 11.544 12.9272 11.5024 12.7504 11.752C12.5736 12.012 12.0848 12.5944 11.9392 12.7608C11.7936 12.9376 11.6376 12.9584 11.3776 12.8232C11.1176 12.6984 10.2856 12.4176 9.30797 11.544C8.53837 10.8576 8.02878 10.0152 7.87278 9.75523C7.72718 9.49523 7.85198 9.36003 7.98718 9.22483C8.10158 9.11043 8.24718 8.92323 8.37198 8.77763C8.49678 8.63204 8.54878 8.51764 8.63198 8.35124C8.71517 8.17444 8.67357 8.02884 8.61117 7.90404C8.54877 7.77924 8.02878 6.51044 7.82078 5.99044C7.61278 5.49125 7.39438 5.55365 7.23838 5.54325H6.73918C6.56238 5.54325 6.29198 5.60564 6.05278 5.86564C5.82398 6.12564 5.15839 6.74964 5.15839 8.01844C5.15839 9.28723 6.08398 10.5144 6.20878 10.6808C6.33358 10.8576 8.02878 13.4576 10.608 14.5704C11.2216 14.8408 11.7 14.9968 12.0744 15.1112C12.688 15.3088 13.2496 15.2776 13.6968 15.2152C14.196 15.1424 15.2256 14.5912 15.4336 13.988C15.652 13.3848 15.652 12.8752 15.5792 12.7608C15.5064 12.6464 15.3504 12.5944 15.0904 12.4696Z" fill="black" fill-opacity="0.7"/>
</svg>
