<svg width="23" height="23" viewBox="0 0 23 23" fill="none" xmlns="http://www.w3.org/2000/svg">
<path d="M8.01676 3.92071H4.01676C3.30952 3.92071 2.63124 4.20166 2.13115 4.70176C1.63105 5.20186 1.3501 5.88013 1.3501 6.58738V18.5874C1.3501 19.2946 1.63105 19.9729 2.13115 20.473C2.63124 20.9731 3.30952 21.254 4.01676 21.254H16.0168C16.724 21.254 17.4023 20.9731 17.9024 20.473C18.4025 19.9729 18.6834 19.2946 18.6834 18.5874V14.5874M13.3501 5.25404C13.3501 6.31491 13.7715 7.33233 14.5217 8.08247C15.2718 8.83262 16.2892 9.25404 17.3501 9.25404C18.411 9.25404 19.4284 8.83262 20.1785 8.08247C20.9287 7.33233 21.3501 6.31491 21.3501 5.25404C21.3501 4.19318 20.9287 3.17576 20.1785 2.42562C19.4284 1.67547 18.411 1.25404 17.3501 1.25404C16.2892 1.25404 15.2718 1.67547 14.5217 2.42562C13.7715 3.17576 13.3501 4.19318 13.3501 5.25404Z" stroke="#01B574" stroke-width="2" stroke-linecap="round" stroke-linejoin="round"/>
</svg>
