<svg width="24" height="20" viewBox="0 0 24 20" fill="none" xmlns="http://www.w3.org/2000/svg">
<path d="M22.5531 0H1.43308C1.17848 0 0.934296 0.101143 0.754261 0.281177C0.574226 0.461212 0.473083 0.705392 0.473083 0.96L0.473083 18.24C0.473083 18.4946 0.574226 18.7388 0.754261 18.9188C0.934296 19.0989 1.17848 19.2 1.43308 19.2H22.5531C22.8077 19.2 23.0519 19.0989 23.2319 18.9188C23.4119 18.7388 23.5131 18.4946 23.5131 18.24V0.96C23.5131 0.705392 23.4119 0.461212 23.2319 0.281177C23.0519 0.101143 22.8077 0 22.5531 0ZM21.5931 17.28H19.6731V16.32H14.8731V17.28H2.39308V1.92H21.5931V17.28ZM10.3515 7.4016C10.3515 6.96622 10.5244 6.54867 10.8323 6.24081C11.1402 5.93295 11.5577 5.76 11.9931 5.76C12.9051 5.76 13.6347 6.4992 13.6347 7.4016C13.6347 8.3136 12.9051 9.0528 11.9931 9.0528C11.0811 9.0528 10.3515 8.3136 10.3515 7.4016ZM5.95468 8.9184C5.95468 8.2368 6.51148 7.68 7.19308 7.68C7.52153 7.68 7.83652 7.81047 8.06876 8.04272C8.30101 8.27496 8.43148 8.58996 8.43148 8.9184C8.43148 9.6 7.87468 10.1472 7.19308 10.1472C6.51148 10.1472 5.95468 9.6 5.95468 8.9184ZM15.5547 8.9184C15.5547 8.58996 15.6852 8.27496 15.9174 8.04272C16.1496 7.81047 16.4646 7.68 16.7931 7.68C17.1215 7.68 17.4365 7.81047 17.6688 8.04272C17.901 8.27496 18.0315 8.58996 18.0315 8.9184C18.0315 9.6 17.4747 10.1472 16.7931 10.1472C16.1115 10.1472 15.5547 9.6 15.5547 8.9184ZM19.6731 12.6144V13.44H4.31308V12.6144C4.31308 11.712 5.80108 10.9728 7.19308 10.9728C7.72108 10.9728 8.25868 11.0784 8.72908 11.2608C9.44908 10.5984 10.7451 10.1472 11.9931 10.1472C13.2411 10.1472 14.5371 10.5984 15.2571 11.2608C15.7275 11.0784 16.2651 10.9728 16.7931 10.9728C18.1851 10.9728 19.6731 11.712 19.6731 12.6144Z" fill="black" fill-opacity="0.7"/>
</svg>
