<svg width="21" height="21" viewBox="0 0 21 21" fill="none" xmlns="http://www.w3.org/2000/svg">
<path d="M10.0499 1.9207C6.36657 1.9207 3.38323 2.33736 3.38323 5.25403V13.5874C3.38323 14.3207 3.70823 14.979 4.21657 15.4374V16.9207C4.21657 17.379 4.59157 17.754 5.0499 17.754H5.88323C6.34157 17.754 6.71657 17.379 6.71657 16.9207V16.0874H13.3832V16.9207C13.3832 17.379 13.7582 17.754 14.2166 17.754H15.0499C15.5082 17.754 15.8832 17.379 15.8832 16.9207V15.4374C16.3916 14.979 16.7166 14.3207 16.7166 13.5874V5.25403C16.7166 2.33736 13.7332 1.9207 10.0499 1.9207ZM14.7666 4.41236H5.33323C5.79157 3.9707 6.9749 3.58736 10.0499 3.58736C13.1249 3.58736 14.3082 3.9707 14.7666 4.41236ZM15.0499 6.07903V8.58736H5.0499V6.07903H15.0499ZM14.7666 14.1957L14.5249 14.4207H5.5749L5.33323 14.1957C5.2249 14.104 5.0499 13.8957 5.0499 13.5874V10.254H15.0499V13.5874C15.0499 13.8957 14.8749 14.104 14.7666 14.1957Z" fill="#4318FF"/>
<path d="M7.13323 13.5874C7.82359 13.5874 8.38323 13.0277 8.38323 12.3374C8.38323 11.647 7.82359 11.0874 7.13323 11.0874C6.44288 11.0874 5.88323 11.647 5.88323 12.3374C5.88323 13.0277 6.44288 13.5874 7.13323 13.5874Z" fill="#4318FF"/>
<path d="M12.9666 13.5874C13.657 13.5874 14.2166 13.0277 14.2166 12.3374C14.2166 11.647 13.657 11.0874 12.9666 11.0874C12.2763 11.0874 11.7166 11.647 11.7166 12.3374C11.7166 13.0277 12.2763 13.5874 12.9666 13.5874Z" fill="#4318FF"/>
</svg>
